<svg width="29" height="29" viewBox="0 0 29 29" fill="none" xmlns="http://www.w3.org/2000/svg">
<path d="M26.1077 5.1445C25.2807 3.37514 23.7902 2.00003 21.9535 1.3269C16.4723 -0.663636 10.4334 -0.404001 5.14455 2.04811C3.37518 2.8751 2.00007 4.3656 1.32695 6.20228C-0.673208 11.6739 -0.413572 17.7224 2.04816 23.0113C2.55781 24.1075 3.31748 25.0403 4.25986 25.7615C4.25986 26.5115 4.19255 27.5501 3.82714 28.0597C3.69251 28.2424 3.78867 28.5117 4.00984 28.5501C4.94261 28.704 6.53889 28.6944 7.40434 27.1943C12.5586 28.7425 18.1071 28.3867 23.0113 26.1077C24.7807 25.2807 26.1558 23.7902 26.8289 21.9535C28.8291 16.4819 28.5694 10.4334 26.1077 5.1445Z" fill="#5B21B6"/>
<path d="M7.18359 4.07715H15.4535C19.8576 4.07715 22.1751 5.97153 22.1751 8.93329C22.1751 11.0681 20.6558 12.6932 18.4633 13.1452V13.3279C20.8866 13.4048 22.9156 15.1934 22.9156 17.9436C22.9156 21.0881 20.3577 23.3863 16.1362 23.3863H7.18359V4.07715ZM16.944 10.0007C16.944 8.76982 15.9823 8.07746 14.5976 8.07746H12.2513V11.9143H14.5207C15.9343 11.9143 16.944 11.2219 16.944 9.99107V10.0007ZM17.5594 17.3089C17.5594 15.8954 16.5497 15.0972 14.915 15.0972H12.2513V19.3091H14.838C16.6555 19.3091 17.5594 18.6167 17.5594 17.3089Z" fill="white"/>
</svg>
