<svg width="1502" height="344" viewBox="0 0 1502 344" fill="none" xmlns="http://www.w3.org/2000/svg">
<g clip-path="url(#clip0_32_1411)">
<path d="M313.612 61.7982C303.678 40.5442 285.774 24.0262 263.711 15.9404C197.87 -7.97028 125.329 -4.85149 61.7983 24.6038C40.5444 34.5377 24.0263 52.4418 15.9406 74.5044C-8.08565 140.23 -4.96686 212.886 24.6039 276.417C30.726 289.585 39.8513 300.79 51.1714 309.453C51.1714 318.463 50.3628 330.938 45.9734 337.06C44.3562 339.255 45.5113 342.489 48.1681 342.951C59.3726 344.8 78.5474 344.684 88.9434 326.664C150.857 345.262 217.507 340.988 276.417 313.612C297.671 303.678 314.189 285.774 322.275 263.711C346.301 197.985 343.183 125.329 313.612 61.7982Z" fill="#5B21B6"/>
<path d="M86.2861 48.9766H185.625C238.529 48.9766 266.367 71.7322 266.367 107.309C266.367 132.953 248.117 152.474 221.78 157.903V160.098C250.889 161.022 275.262 182.507 275.262 215.543C275.262 253.315 244.536 280.922 193.827 280.922H86.2861V48.9766ZM203.53 120.131C203.53 105.346 191.978 97.029 175.345 97.029H147.16V143.118H174.421C191.401 143.118 203.53 134.801 203.53 120.016V120.131ZM210.922 207.919C210.922 190.939 198.794 181.352 179.157 181.352H147.16V231.946H178.233C200.064 231.946 210.922 223.629 210.922 207.919Z" fill="white"/>
<path d="M417.572 280.922H357.044V48.9766H417.572V280.922Z" fill="black"/>
<path d="M505.706 177.425L546.366 175.807V161.715C546.366 152.128 538.396 146.699 526.498 146.699C514.023 146.699 505.937 152.128 504.435 163.101H448.297C450.608 131.336 476.135 104.768 527.422 104.768C575.821 104.768 606.894 128.448 606.894 162.062V280.922H550.178V256.549H548.907C538.627 275.493 521.416 283.81 498.313 283.81C465.046 283.81 441.598 267.407 441.598 232.87C441.598 194.405 470.129 179.735 505.706 177.425ZM517.835 245.114C532.851 245.114 546.943 235.526 546.712 219.124V209.883C540.59 209.999 524.65 210.692 516.564 211.5C505.706 212.771 498.66 220.164 498.66 229.404C498.66 239.685 506.63 245.114 517.95 245.114H517.835Z" fill="black"/>
<path d="M698.147 280.922H637.619V48.9766H695.952V139.653H697.916C705.655 117.821 724.483 104.768 750.127 104.768C786.975 104.768 811.001 131.682 811.001 170.147V281.038H750.473V182.623C750.473 164.718 741.232 154.091 724.483 154.091C708.774 154.091 698.147 164.718 698.147 182.623V281.038V280.922Z" fill="black"/>
<path d="M841.957 48.9766H902.485V137.111H903.409C910.109 119.785 926.165 104.768 952.386 104.768C987.27 104.768 1020.65 131.336 1020.65 194.174C1020.65 257.011 989.234 283.232 951.808 283.232C926.858 283.232 910.455 269.718 903.409 252.507H901.792V281.038H841.842V48.9766H841.957ZM930.092 236.682C947.996 236.682 958.277 220.279 958.277 193.712C958.277 167.144 947.996 151.435 930.092 151.435C912.188 151.435 900.983 167.491 900.983 193.712C900.983 219.932 911.841 236.682 930.092 236.682Z" fill="black"/>
<path d="M1108.21 280.922H1047.68V48.9766H1108.21V280.922Z" fill="black"/>
<path d="M1196.23 177.425L1236.89 175.807V161.715C1236.89 152.128 1228.92 146.699 1217.02 146.699C1204.55 146.699 1196.46 152.128 1194.96 163.101H1138.94C1141.13 131.336 1166.77 104.768 1218.06 104.768C1266.46 104.768 1297.53 128.448 1297.53 162.062V280.922H1240.82V256.549H1239.55C1229.27 275.493 1211.94 283.81 1188.95 283.81C1155.69 283.81 1132.24 267.407 1132.24 232.87C1132.24 194.405 1160.77 179.735 1196.34 177.425H1196.23ZM1208.47 245.114C1223.49 245.114 1237.58 235.526 1237.35 219.124V209.883C1231.23 209.999 1215.29 210.692 1207.2 211.5C1196.34 212.771 1189.3 220.164 1189.3 229.404C1189.3 239.685 1197.27 245.114 1208.59 245.114H1208.47Z" fill="black"/>
<path d="M1388.79 280.922H1328.26V48.9766H1386.59V139.653H1388.55C1396.29 117.821 1415.12 104.768 1440.77 104.768C1477.61 104.768 1501.64 131.682 1501.64 170.147V281.038H1441.11V182.623C1441.11 164.718 1431.87 154.091 1415.12 154.091C1399.41 154.091 1388.9 164.718 1388.9 182.623V281.038L1388.79 280.922Z" fill="black"/>
</g>
<defs>
<clipPath id="clip0_32_1411">
<rect width="1501.52" height="343.76" fill="white"/>
</clipPath>
</defs>
</svg>
