<svg width="508" height="508" viewBox="0 0 508 508" fill="none" xmlns="http://www.w3.org/2000/svg">
<rect width="508" height="508" fill="#F1F5F9"/>
<path d="M300.061 218.584C296.865 211.745 291.104 206.431 284.006 203.829C262.821 196.136 239.481 197.139 219.04 206.616C212.201 209.813 206.887 215.573 204.285 222.672C196.555 243.819 197.558 267.197 207.072 287.638C209.042 291.875 211.978 295.48 215.621 298.267C215.621 301.166 215.36 305.18 213.948 307.15C213.428 307.856 213.799 308.897 214.654 309.045C218.259 309.64 224.429 309.603 227.774 303.805C247.695 309.789 269.139 308.414 288.094 299.605C294.932 296.409 300.247 290.648 302.849 283.55C310.579 262.402 309.576 239.025 300.061 218.584Z" fill="#E2E8F0"/>
<path d="M226.921 214.458H258.883C275.905 214.458 284.862 221.78 284.862 233.227C284.862 241.478 278.99 247.759 270.516 249.506V250.212C279.882 250.509 287.724 257.422 287.724 268.052C287.724 280.205 277.838 289.087 261.522 289.087H226.921V214.458ZM264.644 237.353C264.644 232.595 260.928 229.919 255.576 229.919H246.507V244.749H255.278C260.742 244.749 264.644 242.073 264.644 237.315V237.353ZM267.023 265.599C267.023 260.135 263.12 257.05 256.802 257.05H246.507V273.329H256.505C263.529 273.329 267.023 270.653 267.023 265.599Z" fill="white"/>
</svg>
