<svg width="120" height="120" viewBox="0 0 120 120" fill="none" xmlns="http://www.w3.org/2000/svg">
<path d="M53.0322 49.2188H66.9678V83.1776H53.0322V49.2188Z" fill="#BDBDBD"/>
<path opacity="0.2" d="M64.3274 51.8592V80.6105H55.5993V51.8592H64.3274ZM66.9678 49.2188H53.0322V83.1776H66.9678V49.2188Z" fill="#424242"/>
<path d="M44.3037 85.5971C44.3037 82.3699 46.9441 79.7295 50.1713 79.7295H69.6811C72.9083 79.7295 75.5488 82.3699 75.5488 85.5971C75.5488 86.1839 75.1087 86.6239 74.5219 86.6239H45.3305C44.8171 86.6239 44.3037 86.1839 44.3037 85.5971Z" fill="#BDBDBD"/>
<path opacity="0.2" d="M69.7544 81.4164C71.808 81.4164 73.495 82.8833 73.8617 84.8637H46.1372C46.504 82.8833 48.1909 81.4164 50.2446 81.4164H69.7544ZM69.7544 79.7295H50.2446C47.0174 79.7295 44.377 82.3699 44.377 85.5971C44.377 86.1839 44.817 86.6239 45.4038 86.6239H74.5952C75.1819 86.6239 75.622 86.1839 75.622 85.5971C75.622 82.3699 72.9816 79.7295 69.7544 79.7295Z" fill="#424242"/>
<path d="M95.0589 72.762H24.8676C21.6404 72.762 19 70.1216 19 66.8944V24.8676C19 21.6404 21.6404 19 24.8676 19H95.0589C98.2861 19 100.927 21.6404 100.927 24.8676V66.8944C100.853 70.1216 98.2861 72.762 95.0589 72.762Z" fill="url(#paint0_linear_155_1767)"/>
<path opacity="0.2" d="M95.0589 21.6404C96.8192 21.6404 98.2861 23.1073 98.2861 24.8676V66.8944C98.2861 68.6547 96.8192 70.1216 95.0589 70.1216H24.8676C23.1073 70.1216 21.6404 68.6547 21.6404 66.8944V24.8676C21.6404 23.1073 23.1073 21.6404 24.8676 21.6404H95.0589ZM95.0589 19H24.8676C21.6404 19 19 21.6404 19 24.8676V66.8944C19 70.1216 21.6404 72.762 24.8676 72.762H95.0589C98.2861 72.762 100.927 70.1216 100.927 66.8944V24.8676C100.853 21.6404 98.2861 19 95.0589 19Z" fill="#424242"/>
<path d="M92.345 63.3008H27.5812C26.4077 63.3008 25.3809 62.3473 25.3809 61.1004V27.5817C25.3809 26.4082 26.3343 25.3813 27.5812 25.3813H92.345C93.5919 25.3813 94.5454 26.3348 94.5454 27.5817V61.1738C94.5454 62.3473 93.5919 63.3008 92.345 63.3008Z" fill="#757575"/>
<path d="M84.0568 89.0444H35.8691C35.2089 89.0444 34.5488 89.4112 34.1821 89.9979L28.9746 98.8727H91.0246L85.7438 89.9246C85.377 89.4112 84.7169 89.0444 84.0568 89.0444Z" fill="url(#paint1_linear_155_1767)"/>
<path opacity="0.2" d="M84.0568 90.1446C84.3502 90.1446 84.6436 90.2913 84.7903 90.5847L89.1176 97.9192H30.7349L35.0623 90.5847C35.2089 90.2913 35.5023 90.1446 35.7957 90.1446H84.0568ZM84.0568 89.0444H35.8691C35.2089 89.0444 34.5488 89.4112 34.1821 89.9979L28.9746 98.8727H91.0246L85.7438 89.9246C85.377 89.4112 84.7169 89.0444 84.0568 89.0444Z" fill="#424242"/>
<path d="M40.7107 92.2716H37.4102L37.8502 91.4648H41.1508L40.7107 92.2716Z" fill="#F5F5F5"/>
<path d="M45.9177 92.2716H42.6172L42.9839 91.4648H46.4311L45.9177 92.2716Z" fill="#F5F5F5"/>
<path d="M50.9051 92.2716H47.5312L48.0447 91.4648H51.3452L50.9051 92.2716Z" fill="#F5F5F5"/>
<path d="M55.8201 92.2716H52.5195L53.0329 91.4648H56.1868L55.8201 92.2716Z" fill="#F5F5F5"/>
<path d="M60.7333 92.2716H57.3594L57.6528 91.4648H60.4399L60.7333 92.2716Z" fill="#F5F5F5"/>
<path d="M65.6477 92.2716H62.3472L61.9805 91.4648H65.1343L65.6477 92.2716Z" fill="#F5F5F5"/>
<path d="M70.781 92.2716H67.4071L66.8203 91.4648H70.1208L70.781 92.2716Z" fill="#F5F5F5"/>
<path d="M75.696 92.2716H72.3221L71.7354 91.4648H75.1092L75.696 92.2716Z" fill="#F5F5F5"/>
<path d="M82.3702 92.2716H77.3094L76.7227 91.4648H81.8568L82.3702 92.2716Z" fill="#F5F5F5"/>
<path d="M79.8027 93.5925H83.1032L82.5165 92.7124H79.1426L79.8027 93.5925Z" fill="#F5F5F5"/>
<path d="M74.375 93.5925H77.6755L77.0154 92.7124H73.7148L74.375 93.5925Z" fill="#F5F5F5"/>
<path d="M69.3875 93.5925H72.6881L72.1747 92.7124H68.8008L69.3875 93.5925Z" fill="#F5F5F5"/>
<path d="M64.0338 93.5925H67.3344L66.7476 92.7124H63.5938L64.0338 93.5925Z" fill="#F5F5F5"/>
<path d="M59.2666 93.5925H62.5671L62.2004 92.7124H59.4133L59.2666 93.5925Z" fill="#F5F5F5"/>
<path d="M54.499 93.5925H57.7996L58.0196 92.7124H54.7924L54.499 93.5925Z" fill="#F5F5F5"/>
<path d="M49.292 93.5925H52.5925L53.0326 92.7124H49.8054L49.292 93.5925Z" fill="#F5F5F5"/>
<path d="M43.4238 93.5925H46.7977L47.3111 92.7124H43.9372L43.4238 93.5925Z" fill="#F5F5F5"/>
<path d="M36.6758 93.5925H41.6633L42.1767 92.7124H37.1159L36.6758 93.5925Z" fill="#F5F5F5"/>
<path d="M68.2157 94.9119H71.5895L71.0028 94.0317H67.6289L68.2157 94.9119Z" fill="#F5F5F5"/>
<path d="M62.934 94.9119H66.2345L65.7945 94.0317H62.6406L62.934 94.9119Z" fill="#F5F5F5"/>
<path d="M56.627 94.9119H60.0008L59.9275 94.0317H56.9203L56.627 94.9119Z" fill="#F5F5F5"/>
<path d="M50.6855 94.9119H54.0594L54.3528 94.0317H51.1256L50.6855 94.9119Z" fill="#F5F5F5"/>
<path d="M44.4512 94.9119H47.7517L48.2651 94.0317H44.9646L44.4512 94.9119Z" fill="#F5F5F5"/>
<path d="M36.0166 94.9119H42.691L43.2044 94.0317H36.53L36.0166 94.9119Z" fill="#F5F5F5"/>
<path d="M73.8621 94.9119H83.8371L83.2503 94.0317H73.2754L73.8621 94.9119Z" fill="#F5F5F5"/>
<path d="M81.4169 96.2322H84.7908L84.1307 95.3521H80.7568L81.4169 96.2322Z" fill="#F5F5F5"/>
<path d="M75.2558 96.2322H78.5563L77.8962 95.3521H74.5957L75.2558 96.2322Z" fill="#F5F5F5"/>
<path d="M48.6309 96.2322H71.2945L70.7811 95.3521H49.1443L48.6309 96.2322Z" fill="#F5F5F5"/>
<path d="M41.5176 96.2322H44.8915L45.2582 95.3521H42.031L41.5176 96.2322Z" fill="#F5F5F5"/>
<path d="M35.209 96.2322H38.5095L38.8762 95.3521H35.6491L35.209 96.2322Z" fill="#F5F5F5"/>
<path d="M89.9244 101H30.0748C29.488 101 28.9746 100.487 28.9746 99.8998V98.9463H91.0246V99.8998C91.0246 100.487 90.5112 101 89.9244 101Z" fill="#9E9E9E"/>
<path opacity="0.2" d="M90.5112 99.4597V99.8998C90.5112 100.193 90.2178 100.487 89.9244 100.487H30.0748C29.7814 100.487 29.488 100.193 29.488 99.8998V99.4597H90.5112ZM91.0246 98.9463H28.9746V99.8998C28.9746 100.487 29.488 101 30.0748 101H89.9244C90.5112 101 91.0246 100.487 91.0246 99.8998V98.9463Z" fill="#424242"/>
<defs>
<linearGradient id="paint0_linear_155_1767" x1="59.9633" y1="19.1666" x2="59.9633" y2="72.3952" gradientUnits="userSpaceOnUse">
<stop offset="0.0040657" stop-color="#EEEEEE"/>
<stop offset="1" stop-color="#BDBDBD"/>
</linearGradient>
<linearGradient id="paint1_linear_155_1767" x1="59.9996" y1="98.9123" x2="59.9996" y2="89.1434" gradientUnits="userSpaceOnUse">
<stop stop-color="#9E9E9E"/>
<stop offset="1" stop-color="#E0E0E0"/>
</linearGradient>
</defs>
</svg>
