<svg width="120" height="120" viewBox="0 0 120 120" fill="none" xmlns="http://www.w3.org/2000/svg">
<path d="M17.5434 34.5613C15.3085 34.3287 11.1047 32.8498 10.3238 36.1315C9.7921 39.0392 14.4778 42.5036 17.6514 42.8525C16.0563 43.5006 15.1507 45.8849 15.9316 47.613C17.5849 51.5177 22.9103 52.1408 26.3082 50.8364C23.6746 53.686 26.8399 57.516 29.8474 58.3302C32.8548 59.1443 36.7595 56.5274 38.6953 54.6082C38.6953 54.6082 44.785 48.4521 39.3682 46.6576C30.0634 43.5753 28.1276 33.3566 23.4254 27.3999C21.581 25.0404 15.8319 21.4431 13.0073 24.866C10.573 28.0977 15.4664 32.5092 17.5434 34.5613Z" fill="#CFD8DC"/>
<path opacity="0.2" d="M16.0983 25.1069C18.2251 25.1069 21.0332 27.0343 22.1215 28.4134C23.484 30.1415 24.6222 32.3015 25.8351 34.5945C28.6266 39.8866 31.7919 45.8849 38.8453 48.2195C39.485 48.4355 39.8506 48.693 39.9253 49.0087C40.1746 50.0389 38.6875 52.2405 37.5244 53.4202C35.8295 55.1067 33.063 56.8181 31.0525 56.8181C30.7783 56.8181 30.5208 56.7849 30.2882 56.7267C28.8758 56.3446 27.4386 55.0236 27.0813 53.7774C26.8819 53.0879 27.0315 52.5146 27.5383 51.958C28.0617 51.3931 28.1281 50.5374 27.6878 49.8977C27.3721 49.4324 26.8487 49.1666 26.3087 49.1666C26.1093 49.1666 25.9099 49.1998 25.7105 49.2746C24.8631 49.5986 23.8329 49.7813 22.8111 49.7813C21.839 49.7813 18.5657 49.5736 17.4608 46.9567C17.4525 46.94 17.4525 46.9317 17.4442 46.9151C17.2531 46.4831 17.2614 45.8766 17.4774 45.3283C17.6602 44.8714 17.9676 44.5058 18.275 44.3812C18.9811 44.0904 19.3965 43.3676 19.2968 42.6116C19.1888 41.8556 18.5907 41.2741 17.8263 41.191C16.1149 41.0082 13.6973 39.5543 12.5508 38.0174C12.1105 37.4192 11.8862 36.8543 11.9443 36.4555C12.0357 36.065 12.1853 35.6828 13.4398 35.6828C14.2041 35.6828 15.1096 35.8407 15.9072 35.9819C16.4223 36.0733 16.9125 36.1564 17.3694 36.2062C17.4275 36.2145 17.4857 36.2145 17.5439 36.2145C18.1836 36.2145 18.7651 35.849 19.0476 35.2591C19.3467 34.6194 19.2137 33.8634 18.7153 33.3649L18.3082 32.9662C16.5718 31.2714 12.9662 27.7571 14.3204 25.8795C14.769 25.3561 15.334 25.1069 16.0983 25.1069ZM16.0983 23.4453C14.9352 23.4453 13.8468 23.8441 13.0077 24.8577C10.5735 28.0977 15.4586 32.5009 17.5439 34.553C16.4389 34.4367 14.8604 34.0213 13.4398 34.0213C11.9859 34.0213 10.7148 34.4616 10.316 36.1232C9.78429 39.0309 14.4699 42.4953 17.6436 42.8443C16.0484 43.4923 15.1429 45.8766 15.9238 47.6047C17.0703 50.313 19.9947 51.4429 22.8111 51.4429C24.0489 51.4429 25.2619 51.2269 26.3004 50.8281C23.6668 53.6777 26.8321 57.5077 29.8395 58.3219C30.23 58.4299 30.6288 58.4714 31.0442 58.4714C33.8273 58.4714 37.001 56.2698 38.6875 54.5916C38.6875 54.5916 44.7771 48.4355 39.3604 46.641C30.0556 43.5587 28.1198 33.34 23.4175 27.3833C22.1215 25.73 18.8814 23.4453 16.0983 23.4453Z" fill="#424242"/>
<path d="M54.9121 20.7119L54.9709 20.7371Z" fill="url(#paint0_linear_155_1950)"/>
<path d="M65.8297 71.1163C74.7025 59.9588 85.1123 49.6487 84.1735 33.9551L84.1071 33.9218L50.6096 18.7184C49.6376 18.2781 48.5161 18.9759 48.5077 20.0476C48.4496 30.6984 42.8418 39.1392 36.5278 47.0815C27.8377 58.0064 17.7104 68.2334 18.1756 83.387C18.1424 83.9769 18.4664 84.5585 19.0396 84.8243H19.0479C23.476 86.8348 44.8606 96.5384 51.7312 99.6539C53.0272 100.244 53.7999 100.593 53.858 100.618L53.8663 100.626C53.1352 88.6543 59.0588 79.6319 65.8297 71.1163Z" fill="url(#paint1_linear_155_1950)"/>
<path d="M59.5819 27.433L75.4417 34.6276C74.5444 37.9009 75.8986 41.4152 78.7814 43.2346C76.3306 51.4179 70.6812 58.3301 65.2146 65.0179L65.1565 65.0844C64.1014 66.3804 63.0047 67.718 61.9496 69.0472C57.5714 74.5471 53.2513 80.6035 51.0912 87.6736C50.601 87.5739 50.1109 87.5323 49.6041 87.5323C46.9788 87.5323 44.5529 88.8616 43.1322 91.0133L27.2725 83.8187C27.8291 81.7916 27.5383 79.6066 26.4334 77.7705C26.3835 77.6958 26.3337 77.6127 26.2838 77.5379L26.2423 77.4715C26.1841 77.3884 26.126 77.3053 26.0678 77.2222C26.0014 77.1308 25.9266 77.0394 25.8601 76.9481C25.7937 76.865 25.7189 76.7736 25.6192 76.6656C25.5527 76.5908 25.4946 76.516 25.4281 76.4496C25.3035 76.3167 25.1706 76.192 25.0376 76.0674C24.9712 76.0093 24.9047 75.9511 24.805 75.868C24.6887 75.7683 24.5724 75.6769 24.4561 75.5856C24.3813 75.5274 24.3066 75.4776 24.2235 75.4194C24.1072 75.3363 23.9825 75.2532 23.8247 75.1619C23.7582 75.1203 23.6918 75.0788 23.6253 75.0455C23.617 75.0372 23.6004 75.0372 23.5921 75.0289C26.0512 66.8706 31.684 59.975 37.1423 53.2955L37.2004 53.229C38.2555 51.933 39.3522 50.5954 40.4073 49.2661C44.7606 43.7912 49.0641 37.768 51.2324 30.698C51.8472 30.8558 52.4786 30.9306 53.1183 30.9306C55.7436 30.8974 58.1695 29.5681 59.5819 27.433ZM59.0668 25.8545C57.9785 28.2638 55.6024 29.6844 53.1266 29.6844C52.3623 29.6844 51.5814 29.5515 50.8254 29.2607V29.269C50.6924 29.2192 50.5595 29.1693 50.4266 29.1112L50.4183 29.1278C48.4825 36.3806 44.179 42.5617 39.4602 48.4852C38.3884 49.8311 37.3001 51.1687 36.2035 52.4979C30.3464 59.6593 24.5059 66.829 22.1548 75.6105L22.1299 75.652C22.1382 75.652 22.1382 75.652 22.1465 75.6603C22.2628 75.7102 22.3874 75.76 22.512 75.8099C22.537 75.8182 22.5536 75.8348 22.5785 75.8431C22.7364 75.9179 22.8859 75.9926 23.0354 76.0757C23.1019 76.109 23.1601 76.1505 23.2265 76.192C23.3345 76.2585 23.4342 76.325 23.5339 76.3914C23.6004 76.433 23.6668 76.4828 23.725 76.5327C23.8247 76.6074 23.9244 76.6905 24.0241 76.7736C24.0905 76.8317 24.157 76.8816 24.2235 76.9397C24.3398 77.0478 24.4478 77.1558 24.5558 77.2638C24.6223 77.3302 24.6804 77.3967 24.7386 77.4715C24.7967 77.5462 24.8632 77.6127 24.9213 77.6875C24.9795 77.7622 25.0376 77.8453 25.0958 77.9201L25.2453 78.1444C25.2952 78.2275 25.3533 78.3022 25.4032 78.3853C26.4749 80.1632 26.6826 82.423 25.7604 84.4501L43.6723 92.5752C44.7689 90.1659 47.1367 88.7453 49.6207 88.7453C50.3933 88.7453 51.1743 88.8865 51.9386 89.169L51.9635 89.1357V89.1274C53.9076 81.8913 58.2111 75.7268 62.9217 69.8033C63.9934 68.4574 65.0817 67.1198 66.1783 65.7906C72.0354 58.6291 77.8759 51.4594 80.227 42.678C80.2353 42.6614 80.2353 42.6448 80.2436 42.6281C76.962 41.141 75.5081 37.2695 76.9952 33.9879L59.0668 25.8545Z" fill="#2E7D32"/>
<path d="M45.218 72.769C44.5368 72.4616 43.8472 72.4367 43.1576 72.7025C42.4681 72.9684 41.6788 73.5832 40.7816 74.5552C39.5769 75.9177 38.4221 76.79 37.3172 77.1639C36.2122 77.5377 35.0575 77.4546 33.8611 76.9063C32.6399 76.3497 31.8008 75.5438 31.3438 74.4804C30.8869 73.417 30.862 72.229 31.2774 70.9163L29.3499 70.044C29.0675 69.9111 28.9345 69.5788 29.0675 69.288L29.3499 68.6566C29.4829 68.3741 29.8152 68.2412 30.1059 68.3741L32.0417 69.2548C32.7811 68.0833 33.7448 67.3439 34.9411 67.0532C36.0129 66.7873 37.2092 66.9202 38.5468 67.4436C38.8043 67.5433 38.9206 67.8507 38.8043 68.1083L38.2809 69.2548C38.1729 69.4957 37.8904 69.6037 37.6412 69.5123C36.7606 69.1883 35.963 69.1218 35.2402 69.3046C34.3928 69.5206 33.778 70.0523 33.3959 70.8997C32.9971 71.7887 32.914 72.5696 33.1633 73.2425C33.4125 73.9155 33.9442 74.4472 34.7584 74.8127C35.5227 75.1617 36.2372 75.1866 36.9101 74.8958C37.583 74.605 38.364 73.9736 39.2529 73.0099C40.1336 72.0462 40.9477 71.34 41.6788 70.908C42.4099 70.476 43.141 70.2351 43.8638 70.2019C44.5866 70.1686 45.3426 70.3265 46.1319 70.6837C47.3864 71.257 48.2338 72.0877 48.6575 73.1927C49.0812 74.2976 49.0563 75.5604 48.5744 76.9894L50.1861 77.7205C50.4686 77.8534 50.6015 78.1857 50.4686 78.4765L50.1861 79.0913C50.0532 79.3738 49.7209 79.5067 49.4301 79.3738L47.8184 78.6427C47.0624 79.9719 46.082 80.8276 44.8608 81.2264C43.7807 81.5754 42.5927 81.5089 41.305 81.0187C41.0391 80.919 40.9311 80.6116 41.0391 80.3541L41.5625 79.191C41.6705 78.9584 41.9364 78.8338 42.169 78.9251C43.033 79.2408 43.8223 79.2741 44.5118 79.0248C45.3177 78.7341 45.9408 78.0944 46.3977 77.0974C46.838 76.1254 46.9544 75.2531 46.7384 74.4804C46.539 73.7078 46.0239 73.1345 45.218 72.769Z" fill="white"/>
<path d="M49.0396 77.2055L47.8183 78.6511L31.3271 70.9414L30.7705 70.6838L32.0416 69.2549L48.5577 76.9895L49.0396 77.2055Z" fill="white"/>
<path opacity="0.5" d="M58.3275 59.7845C64.5631 59.7845 69.618 54.7296 69.618 48.494C69.618 42.2585 64.5631 37.2036 58.3275 37.2036C52.092 37.2036 47.0371 42.2585 47.0371 48.494C47.0371 54.7296 52.092 59.7845 58.3275 59.7845Z" fill="#2E7D32"/>
<path d="M36.5189 47.0898C40.0747 42.6201 43.4062 37.9926 45.6493 32.9082C43.4062 37.9843 40.083 42.5952 36.5356 47.0649C30.9859 54.0435 24.8463 60.7397 21.249 68.6072C24.838 60.7397 30.9776 54.0601 36.5189 47.0898Z" fill="#2E7D32"/>
<path d="M84.0558 33.9298L53.6904 20.1553L83.981 33.8965L84.0558 33.9298Z" fill="#2E7D32"/>
<path d="M71.196 73.4836C79.8695 62.5753 89.9885 52.5394 89.5648 37.4356C89.598 36.8457 89.274 36.2642 88.7008 36.0066C88.6924 36.0066 88.6841 36.0066 88.6841 35.9983L84.1813 33.9546C85.1201 49.6399 74.7103 59.9583 65.8374 71.1158C59.0665 79.6231 53.143 88.6538 53.8574 100.625C55.1119 101.19 56.2003 101.689 57.056 102.079C58.028 102.52 59.1496 101.83 59.1579 100.758C59.2659 89.9083 64.8654 81.4425 71.196 73.4836Z" fill="#2E7D32"/>
<path d="M37.6315 45.6777C37.2493 46.1762 36.8838 46.6331 36.5016 47.115C34.0092 50.2471 31.3008 53.5287 28.9414 56.4863L64.6072 72.6701C65.006 72.155 65.4131 71.6316 65.8285 71.1165C68.2959 68.0177 70.8797 64.977 73.3056 61.8698L37.6315 45.6777Z" fill="#FFECB3"/>
<path d="M73.3224 61.8613C70.8882 64.9685 68.3044 68.0092 65.837 71.1163C65.4299 71.6314 65.0228 72.1465 64.624 72.6699L68.7198 76.6992C69.5257 75.6192 70.3565 74.5475 71.2039 73.4841C73.2393 70.9252 75.3578 68.408 77.4016 65.8657L73.3224 61.8613Z" fill="#FFECB3"/>
<path opacity="0.5" d="M73.3224 61.8613C70.8882 64.9685 68.3044 68.0092 65.837 71.1163C65.4299 71.6314 65.0228 72.1465 64.624 72.6699L68.7198 76.6992C69.5257 75.6192 70.3565 74.5475 71.2039 73.4841C73.2393 70.9252 75.3578 68.408 77.4016 65.8657L73.3224 61.8613Z" fill="#FFB74D"/>
<path opacity="0.2" d="M50.1615 20.3467L83.4429 35.4505H83.4513C83.4596 35.4588 83.4762 35.4588 83.4845 35.4671L87.896 37.4693V37.4776C88.2532 50.0225 80.9755 58.8787 73.2824 68.2583C72.1608 69.6208 71.006 71.0332 69.8845 72.4372C63.9942 79.8396 57.7134 88.7041 57.4891 100.443L54.5232 99.0973L53.3102 98.5489L52.3963 98.1336L19.8294 83.3621V83.3455C19.4389 70.651 26.808 61.637 34.6091 52.0912C35.6642 50.7952 36.7609 49.4576 37.8243 48.1283C43.7063 40.7177 49.9954 31.8615 50.1615 20.3467ZM49.987 18.5938C49.2061 18.5938 48.5082 19.2085 48.4999 20.0559C48.4418 30.7067 42.8339 39.1475 36.5199 47.0898C27.8299 58.0147 17.7026 68.2417 18.1678 83.3953C18.1346 83.9852 18.4586 84.5668 19.0318 84.8326H19.0401C23.4682 86.8431 44.8528 96.5467 51.7234 99.6622C53.0194 100.252 53.7921 100.601 53.8502 100.626L53.8585 100.634C55.113 101.199 56.2014 101.698 57.0571 102.088C57.2565 102.179 57.4725 102.221 57.6719 102.221C58.4445 102.221 59.1507 101.615 59.159 100.767C59.2753 89.917 64.8665 81.4513 71.1971 73.4923C79.8706 62.5758 89.9896 52.5398 89.5659 37.4361C89.5991 36.8462 89.2751 36.2646 88.7018 36.0071C88.6935 36.0071 88.6852 36.0071 88.6852 35.9988L84.1824 33.955L84.1159 33.9218L50.6184 18.7184C50.4024 18.6353 50.1947 18.5938 49.987 18.5938Z" fill="#424242"/>
<path d="M109.944 69.7128C110.667 65.3262 104.17 63.3739 101.18 63.54C93.6028 63.9305 84.6386 69.1977 76.1895 64.2296C71.2712 61.3384 70.6481 69.9703 70.6481 69.9703C70.4736 72.6953 71.0718 77.3561 73.6722 79.0841C76.2642 80.8121 81.2324 80.6626 81.6394 76.8077C82.8939 80.2223 86.8734 83.8196 90.9027 82.4903C92.7139 81.942 93.9102 79.6906 93.3453 78.0622C95.6964 80.2306 101.396 81.4685 103.232 79.1506C105.184 76.409 101.304 74.2157 99.6593 72.687C102.575 72.903 109.114 73.6757 109.944 69.7128Z" fill="#CFD8DC"/>
<path opacity="0.2" d="M101.545 65.1928C103.555 65.1928 106.504 66.1067 107.759 67.5938C108.241 68.1587 108.415 68.732 108.316 69.4049C108.033 70.6179 106.396 71.2327 103.447 71.2327C102.334 71.2327 101.237 71.1413 100.357 71.0748L99.7917 71.0333C99.7502 71.0333 99.7086 71.025 99.6671 71.025C99.0108 71.025 98.4126 71.4154 98.1467 72.0219C97.8643 72.6699 98.0221 73.426 98.5372 73.9078C98.8695 74.2152 99.26 74.5309 99.6671 74.8549C102.118 76.8239 102.359 77.4802 101.919 78.1531C101.603 78.5187 100.847 78.7347 99.8914 78.7347C98.0138 78.7347 95.6378 77.9039 94.483 76.8405C94.1673 76.5497 93.7602 76.4002 93.3614 76.4002C93.0457 76.4002 92.73 76.4916 92.4558 76.6743C91.8161 77.0897 91.5503 77.8873 91.7912 78.6101C91.8992 78.9258 91.8244 79.391 91.6001 79.8313C91.3343 80.3547 90.8856 80.7618 90.437 80.9031C90.4204 80.9031 90.4121 80.9114 90.3955 80.9197C89.9967 81.0526 89.5813 81.1191 89.1659 81.1191C86.5988 81.1191 84.0732 78.5852 83.2175 76.2423C82.9765 75.586 82.3451 75.154 81.6556 75.154C81.5891 75.154 81.5226 75.154 81.4479 75.1706C80.6835 75.262 80.0854 75.8768 80.0023 76.6411C79.8361 78.1698 78.4736 78.4855 77.3687 78.4855C76.3717 78.4855 75.3416 78.1947 74.6105 77.7045C72.8824 76.558 72.143 72.9192 72.3258 70.1028C72.4753 68.1006 73.3144 65.3091 74.3446 65.3091C74.5274 65.3091 74.8514 65.3756 75.3665 65.6747C78.0583 67.2615 80.9909 68.0258 84.339 68.0258C87.7369 68.0258 91.0186 67.2449 94.1922 66.4889C96.7095 65.8907 99.0938 65.3258 101.295 65.2094C101.362 65.1928 101.445 65.1928 101.545 65.1928ZM101.545 63.5312C101.42 63.5312 101.304 63.5313 101.187 63.5396C96.0116 63.8054 90.1878 66.3476 84.3224 66.3476C81.6057 66.3476 78.8724 65.7993 76.1973 64.2208C75.4911 63.8054 74.8763 63.6309 74.3363 63.6309C71.1128 63.6309 70.6559 69.9699 70.6559 69.9699C70.4814 72.6949 71.0796 77.3556 73.68 79.0836C74.6852 79.7483 76.0477 80.1387 77.3604 80.1387C79.4374 80.1387 81.398 79.1667 81.6473 76.8073C82.719 79.7233 85.7846 82.7723 89.1576 82.7723C89.7308 82.7723 90.3207 82.681 90.9106 82.4899C92.7217 81.9416 93.918 79.6901 93.3531 78.0618C94.8153 79.4076 97.5735 80.3963 99.8831 80.3963C101.295 80.3963 102.542 80.0307 103.231 79.1501C105.184 76.4085 101.304 74.2152 99.6588 72.6866C100.631 72.7613 102.002 72.8942 103.439 72.8942C106.297 72.8942 109.387 72.3542 109.944 69.7123C110.642 65.4919 104.66 63.5312 101.545 63.5312Z" fill="#424242"/>
<defs>
<linearGradient id="paint0_linear_155_1950" x1="54.9427" y1="20.7268" x2="54.9427" y2="20.7268" gradientUnits="userSpaceOnUse">
<stop stop-color="#43A047"/>
<stop offset="0.9992" stop-color="#66BB6A"/>
</linearGradient>
<linearGradient id="paint1_linear_155_1950" x1="36.0358" y1="92.5421" x2="66.153" y2="26.1633" gradientUnits="userSpaceOnUse">
<stop stop-color="#43A047"/>
<stop offset="0.9992" stop-color="#66BB6A"/>
</linearGradient>
</defs>
</svg>
