<svg width="120" height="120" viewBox="0 0 120 120" fill="none" xmlns="http://www.w3.org/2000/svg">
<path d="M88.3863 71.3248C91.5426 59.3595 83.7164 46.0383 70.6607 35.8879C61.8086 29.0014 52.7773 28.8938 47.8419 28.6858C42.3686 28.4562 36.8809 30.1348 32.2253 33.6498C24.9443 39.1518 21.6947 47.9106 20.0807 64.345C19.4781 70.4855 18.5886 76.8053 19.2127 82.8669C19.7937 88.4765 22.0964 93.2684 25.719 97.2066C30.2598 102.142 37.7632 103.935 44.5422 102.788C50.9552 101.704 57.0096 98.218 62.8488 95.1263L64.592 94.2009C79.1828 86.4751 86.0621 80.1553 88.3863 71.3248Z" fill="url(#paint0_radial_155_1717)"/>
<path opacity="0.2" d="M46.8448 30.8156C47.1461 30.8156 47.4474 30.8228 47.7487 30.8371L48.3297 30.8587C53.2077 31.0523 61.3639 31.3823 69.3408 37.5874C82.7049 47.9817 89.0463 60.3918 86.306 70.7789C84.2114 78.7199 77.8413 84.7528 63.5805 92.3064L62.3395 92.9592L61.8374 93.2247C61.285 93.5188 60.7255 93.82 60.1659 94.1142C54.9939 96.8831 49.6425 99.7453 44.1835 100.664C42.9927 100.864 41.7732 100.965 40.5537 100.965C35.188 100.965 30.3602 99.0638 27.3043 95.7425C23.8683 92.0123 21.8669 87.6007 21.3575 82.6366C20.8482 77.7228 21.4006 72.4647 21.9386 67.3859C22.039 66.439 22.1395 65.4849 22.2327 64.5452C23.8109 48.4838 26.9815 40.2989 33.5309 35.3564C37.462 32.3866 42.0745 30.8156 46.8448 30.8156ZM46.8448 28.6636C41.7015 28.6636 36.594 30.3493 32.2253 33.6491C24.9443 39.1512 21.6947 47.9099 20.0807 64.3443C19.4781 70.4848 18.5886 76.8046 19.2127 82.8662C19.7937 88.4758 22.0964 93.2677 25.719 97.2059C29.3846 101.187 34.9728 103.124 40.5537 103.124C41.8951 103.124 43.2294 103.009 44.5422 102.794C50.9552 101.711 57.0096 98.2245 62.8488 95.1328L64.592 94.2074C79.1899 86.4816 86.0621 80.1546 88.3935 71.3313C91.5498 59.3659 83.7236 46.0449 70.6679 35.8944C61.8087 29.0007 52.7773 28.8931 47.8419 28.6851C47.512 28.6707 47.1748 28.6636 46.8448 28.6636Z" fill="#424242"/>
<path d="M33.8391 48.2954C34.6864 47.2687 34.8852 46.0336 34.2833 45.5369C33.6813 45.0401 32.5064 45.4697 31.6591 46.4964C30.8119 47.5231 30.613 48.7582 31.215 49.255C31.817 49.7517 32.9918 49.3221 33.8391 48.2954Z" fill="#603813"/>
<path d="M46.1353 52.7149C46.1975 51.3852 45.616 50.2776 44.8364 50.2411C44.0568 50.2046 43.3743 51.2529 43.312 52.5826C43.2497 53.9123 43.8312 55.0198 44.6108 55.0564C45.3904 55.0929 46.073 54.0446 46.1353 52.7149Z" fill="#603813"/>
<path d="M62.9445 59.7429C63.5379 58.5513 63.4526 57.3032 62.7539 56.9553C62.0552 56.6073 61.0078 57.2913 60.4143 58.4829C59.8209 59.6746 59.9062 60.9227 60.6049 61.2706C61.3036 61.6186 62.3511 60.9346 62.9445 59.7429Z" fill="#603813"/>
<path d="M40.4274 60.9355C40.5711 59.6121 40.0585 58.4709 39.2825 58.3867C38.5066 58.3025 37.7611 59.3071 37.6175 60.6306C37.4739 61.954 37.9865 63.0951 38.7624 63.1793C39.5383 63.2635 40.2838 62.259 40.4274 60.9355Z" fill="#603813"/>
<path d="M29.5837 64.9897C29.7127 63.6648 29.1876 62.5294 28.4108 62.4538C27.6339 62.3781 26.8997 63.3909 26.7707 64.7158C26.6417 66.0407 27.1668 67.1761 27.9436 67.2517C28.7204 67.3273 29.4547 66.3146 29.5837 64.9897Z" fill="#603813"/>
<path d="M38.0636 74.9778C38.6571 73.7861 38.5717 72.5381 37.8731 72.1901C37.1744 71.8422 36.1269 72.5262 35.5335 73.7178C34.9401 74.9095 35.0254 76.1575 35.7241 76.5055C36.4227 76.8534 37.4702 76.1694 38.0636 74.9778Z" fill="#603813"/>
<path d="M48.8566 82.8245C49.45 81.6328 49.3647 80.3847 48.666 80.0368C47.9674 79.6889 46.9199 80.3728 46.3265 81.5645C45.733 82.7561 45.8183 84.0042 46.517 84.3522C47.2157 84.7001 48.2632 84.0161 48.8566 82.8245Z" fill="#603813"/>
<path d="M56.951 91.258C58.146 90.6714 58.8359 89.628 58.4921 88.9274C58.1482 88.2267 56.9007 88.1342 55.7057 88.7207C54.5107 89.3073 53.8208 90.3507 54.1646 91.0513C54.5085 91.7519 55.756 91.8445 56.951 91.258Z" fill="#603813"/>
<path d="M59.0399 82.1627C60.2348 81.5762 60.9248 80.5328 60.5809 79.8322C60.237 79.1315 58.9895 79.039 57.7946 79.6255C56.5996 80.212 55.9096 81.2555 56.2535 81.9561C56.5974 82.6567 57.8449 82.7492 59.0399 82.1627Z" fill="#603813"/>
<path d="M34.4678 92.6049C35.192 92.3139 35.3767 91.0767 34.8805 89.8415C34.3842 88.6063 33.3949 87.8409 32.6707 88.1319C31.9465 88.4228 31.7617 89.66 32.2579 90.8952C32.7542 92.1304 33.7436 92.8958 34.4678 92.6049Z" fill="#603813"/>
<path d="M43.3384 94.2107C44.4912 93.5452 45.1093 92.4577 44.7191 91.7818C44.3288 91.1059 43.078 91.0975 41.9252 91.7631C40.7724 92.4287 40.1542 93.5162 40.5445 94.1921C40.9347 94.868 42.1856 94.8763 43.3384 94.2107Z" fill="#603813"/>
<path d="M28.2714 80.261C29.0234 80.0524 29.3446 78.8434 28.9888 77.5607C28.633 76.278 27.7349 75.4073 26.9828 75.6159C26.2308 75.8245 25.9095 77.0335 26.2654 78.3162C26.6212 79.5989 27.5193 80.4696 28.2714 80.261Z" fill="#603813"/>
<path d="M49.8117 68.4836C50.4051 67.292 50.3198 66.0439 49.6211 65.696C48.9224 65.348 47.875 66.032 47.2815 67.2237C46.6881 68.4153 46.7734 69.6634 47.4721 70.0113C48.1708 70.3593 49.2182 69.6753 49.8117 68.4836Z" fill="#603813"/>
<path d="M59.0046 70.7107C59.9458 69.7694 60.2615 68.559 59.7096 68.0071C59.1578 67.4553 57.9473 67.7709 57.0061 68.7122C56.0648 69.6535 55.7491 70.8639 56.301 71.4158C56.8529 71.9676 58.0633 71.652 59.0046 70.7107Z" fill="#603813"/>
<path d="M69.0576 77.8741C69.6189 76.6672 69.5003 75.4219 68.7927 75.0928C68.085 74.7637 67.0563 75.4753 66.4949 76.6823C65.9336 77.8892 66.0522 79.1345 66.7598 79.4636C67.4675 79.7927 68.4962 79.0811 69.0576 77.8741Z" fill="#603813"/>
<path d="M75.7918 69.9809C76.5768 68.9058 76.7022 67.6612 76.0719 67.201C75.4415 66.7408 74.2942 67.2392 73.5092 68.3142C72.7242 69.3892 72.5989 70.6338 73.2292 71.0941C73.8595 71.5543 75.0068 71.0559 75.7918 69.9809Z" fill="#603813"/>
<path d="M75.5879 69.7354C76.0347 68.8915 75.9938 67.9941 75.4966 67.7308C74.9994 67.4676 74.2342 67.9383 73.7874 68.7821C73.3407 69.626 73.3816 70.5234 73.8788 70.7867C74.376 71.0499 75.1412 70.5792 75.5879 69.7354Z" fill="#FFFDE7"/>
<path d="M68.5645 77.4097C69.0113 76.5659 68.9704 75.6684 68.4732 75.4052C67.976 75.1419 67.2107 75.6126 66.764 76.4565C66.3172 77.3003 66.3581 78.1978 66.8553 78.461C67.3526 78.7242 68.1178 78.2535 68.5645 77.4097Z" fill="#FFFDE7"/>
<path d="M79.9643 49.991C76.3632 51.9135 71.5785 52.7241 68.4365 50.1202C66.2486 48.3125 65.4237 45.1203 66.1769 42.38C66.9301 39.6398 69.1109 37.4088 71.722 36.2826C73.2715 35.6154 74.9285 35.3285 76.5928 35.1492C78.0777 34.9914 79.5554 35.1205 81.0475 34.9627C83.1995 34.7403 85.3013 34.1234 87.2382 33.155C88.8307 32.3587 90.1936 31.1392 91.7861 30.3286C91.6283 30.4075 91.5925 32.8824 91.5494 33.198C91.4059 34.1951 91.2051 35.1779 90.9468 36.1463C90.416 38.1333 89.6485 40.0486 88.6657 41.8492C87.7403 43.5421 86.6284 45.3211 85.1722 46.6195C83.6299 48.0255 81.7863 49.0155 79.9643 49.991Z" fill="url(#paint1_linear_155_1717)"/>
<path opacity="0.2" d="M89.1248 34.5821C89.0531 34.9265 88.967 35.2708 88.8737 35.6151C88.3931 37.43 87.6901 39.1947 86.7862 40.8374C86.0474 42.1932 85.0287 43.8861 83.7519 45.0339C82.3674 46.2749 80.6314 47.2002 78.9528 48.0969C77.1093 49.0797 75.1437 49.6249 73.4149 49.6249C71.9515 49.6249 70.7392 49.2375 69.8067 48.4699C68.3361 47.2505 67.6977 44.9908 68.25 42.9679C68.7952 40.988 70.4523 39.1875 72.5685 38.2765C73.9673 37.6739 75.5024 37.4515 76.8223 37.308C77.4608 37.2363 78.1351 37.2363 78.8452 37.2291C79.62 37.222 80.4234 37.2148 81.2699 37.1287C83.6945 36.8776 86.0259 36.1962 88.1994 35.1058C88.5222 34.9265 88.8235 34.7543 89.1248 34.5821ZM91.7861 30.3354C90.1936 31.146 88.8307 32.3584 87.2382 33.1618C85.3085 34.1302 83.1995 34.7471 81.0475 34.9695C79.5554 35.1273 78.0777 34.9982 76.5928 35.156C74.9285 35.3353 73.2643 35.6223 71.722 36.2894C69.1109 37.4085 66.9301 39.6466 66.1769 42.3868C65.4237 45.1271 66.2486 48.3121 68.4365 50.127C69.8497 51.2963 71.5929 51.7769 73.4149 51.7769C75.6459 51.7769 77.9844 51.0596 79.9643 49.9979C81.7935 49.0223 83.6299 48.0324 85.1794 46.6407C86.6284 45.3423 87.7403 43.5705 88.6729 41.8704C89.6628 40.0698 90.4304 38.1473 90.954 36.1675C91.2123 35.199 91.4131 34.2091 91.5566 33.2192C91.5996 32.8892 91.6283 30.4215 91.7861 30.3354Z" fill="#424242"/>
<path d="M60.9266 36.7556C61.4646 40.1774 63.3656 43.8287 66.7371 44.6321C69.0829 45.1916 71.6653 44.1156 73.1287 42.2003C74.5992 40.285 74.9938 37.6667 74.4199 35.3281C74.0756 33.9365 73.4228 32.6668 72.6911 31.4473C72.0383 30.3641 71.1918 29.4244 70.5391 28.334C69.5922 26.763 68.9322 25.0199 68.5951 23.2193C68.3225 21.7344 68.4444 20.1849 68.179 18.6929C68.2077 18.8435 66.5506 20.1276 66.3569 20.3212C65.7544 20.9238 65.1877 21.5694 64.664 22.2366C63.588 23.6067 62.6841 25.1131 61.9668 26.7056C61.2925 28.2049 60.6612 29.8619 60.5249 31.5118C60.3815 33.2622 60.654 35.0197 60.9266 36.7556Z" fill="url(#paint2_linear_155_1717)"/>
<path opacity="0.2" d="M66.4577 23.4417C66.4648 23.4991 66.4792 23.5493 66.4864 23.6067C66.8666 25.6726 67.6126 27.6382 68.703 29.4459C69.0832 30.0771 69.492 30.6295 69.8938 31.1675C70.2524 31.6481 70.5824 32.1001 70.855 32.552C71.4217 33.4989 72.0386 34.6251 72.3399 35.8374C72.7847 37.6451 72.4403 39.582 71.436 40.8875C70.6254 41.942 69.284 42.6235 68.0215 42.6235C67.7561 42.6235 67.4978 42.5948 67.2468 42.5374C64.7791 41.9492 63.452 38.879 63.0646 36.4185C62.8136 34.8403 62.5553 33.2119 62.6844 31.684C62.7992 30.278 63.4161 28.7572 63.947 27.588C64.5926 26.1533 65.4103 24.8047 66.3716 23.5636C66.3931 23.5206 66.4218 23.4847 66.4577 23.4417ZM68.1865 18.6929C68.2152 18.8435 66.5581 20.1276 66.3644 20.3212C65.7618 20.9238 65.1951 21.5694 64.6715 22.2366C63.5955 23.6067 62.6916 25.1131 61.9743 26.7056C61.3 28.2049 60.6687 29.8619 60.5324 31.5118C60.3889 33.2765 60.6543 35.0268 60.9341 36.7628C61.4721 40.1845 63.3731 43.8358 66.7446 44.6393C67.1607 44.7397 67.5911 44.7827 68.0143 44.7827C69.9727 44.7827 71.931 43.7784 73.1362 42.2075C74.6067 40.2921 75.0013 37.6738 74.4274 35.3353C74.0831 33.9436 73.4303 32.6739 72.6986 31.4544C72.0458 30.3713 71.1993 29.4315 70.5465 28.3412C69.5996 26.7702 68.9397 25.027 68.6025 23.2265C68.3299 21.7272 68.4519 20.1778 68.1865 18.6929Z" fill="#424242"/>
<path d="M63.9329 29.9695C66.5799 32.6954 68.5383 36.7699 67.0247 40.2562C65.9702 42.6808 63.3304 44.2446 60.6834 44.2733C58.0364 44.302 55.4754 42.9319 53.7969 40.8803C52.7997 39.668 52.1183 38.2548 51.5229 36.8129C50.9992 35.5289 50.7338 34.1659 50.2101 32.8747C49.4569 31.0096 48.3594 29.2808 46.9964 27.8031C45.8702 26.5836 44.4283 25.6726 43.2949 24.4603C43.4097 24.5822 45.6263 23.9725 45.9276 23.9294C46.853 23.8003 47.7855 23.7214 48.7252 23.707C50.6405 23.664 52.5558 23.8577 54.4209 24.2809C56.1784 24.6755 58.0579 25.2135 59.593 26.1747C61.2214 27.1933 62.5843 28.585 63.9329 29.9695Z" fill="url(#paint3_linear_155_1717)"/>
<path opacity="0.2" d="M49.2124 25.8449C50.8049 25.8449 52.3974 26.0242 53.9469 26.3686C55.3385 26.677 57.1032 27.1433 58.4446 27.9826C59.8936 28.8936 61.1634 30.1992 62.3972 31.4617C64.3412 33.4631 66.2063 36.7414 65.0585 39.3884C64.3699 40.9665 62.5622 42.0928 60.6612 42.1143H60.5966C58.7459 42.1143 56.7804 41.1172 55.4605 39.5103C54.5709 38.4271 53.9827 37.1216 53.5165 35.9953C53.2941 35.4502 53.1147 34.8476 52.9282 34.2163C52.7202 33.5205 52.505 32.8032 52.2037 32.0571C51.3429 29.9338 50.1234 28.0113 48.5739 26.3327C48.4233 26.1749 48.2727 26.0171 48.122 25.8664C48.3372 25.8521 48.5524 25.8449 48.7676 25.8449H49.2124ZM49.2124 23.6929C49.0474 23.6929 48.8824 23.6929 48.7174 23.7C47.7849 23.7216 46.8451 23.7933 45.9198 23.9224C45.6472 23.9583 43.7892 24.4676 43.366 24.4676C43.323 24.4676 43.2943 24.4604 43.2871 24.4533C44.4205 25.6727 45.8624 26.5766 46.9886 27.7961C48.3516 29.2738 49.4491 31.0026 50.2023 32.8677C50.726 34.1661 50.9914 35.5219 51.5151 36.8059C52.1033 38.2478 52.7919 39.661 53.789 40.8733C55.4461 42.8962 57.9712 44.2663 60.5895 44.2663H60.6756C63.3226 44.2376 65.9624 42.6738 67.0169 40.2492C68.5305 36.7629 66.5721 32.6884 63.9251 29.9625C62.5837 28.578 61.2207 27.1863 59.578 26.1605C58.0429 25.1993 56.1635 24.6613 54.406 24.2667C52.7059 23.8866 50.9555 23.6929 49.2124 23.6929Z" fill="#424242"/>
<path d="M77.4109 56.1025C73.4942 54.8184 69.5632 51.8988 69.2619 47.7884C69.0538 44.9262 70.8042 42.0999 73.322 40.7369C75.8399 39.374 78.9962 39.4027 81.6361 40.5217C83.1999 41.1817 84.57 42.1931 85.8684 43.2835C87.0233 44.2519 87.9559 45.4212 89.118 46.404C90.7822 47.8171 92.7047 48.9218 94.7635 49.6535C96.4564 50.2561 98.3 50.3996 100 50.995C99.828 50.9376 98.0059 52.6377 97.7405 52.8314C96.9155 53.4268 96.0547 53.9648 95.1724 54.4598C93.3575 55.464 91.4207 56.2459 89.4193 56.784C87.5327 57.2933 85.4667 57.7237 83.5012 57.573C81.4065 57.4009 79.398 56.7553 77.4109 56.1025Z" fill="url(#paint4_linear_155_1717)"/>
<path opacity="0.2" d="M77.5976 41.8488C78.6808 41.8488 79.7926 42.0784 80.7969 42.5016C82.2173 43.1042 83.4583 44.0654 84.4769 44.9262C84.9719 45.3423 85.4525 45.8301 85.9546 46.3466C86.4998 46.9061 87.0665 47.4871 87.7193 48.0395C89.5988 49.6248 91.7221 50.8515 94.0319 51.6764C94.3834 51.8056 94.7421 51.906 95.0864 52.0064C94.7708 52.2001 94.448 52.3938 94.118 52.5731C92.4538 53.4913 90.6819 54.2087 88.8455 54.7036C87.5615 55.048 85.8829 55.4497 84.3119 55.4497C84.0895 55.4497 83.8672 55.4425 83.6591 55.4282C81.7869 55.2847 79.9002 54.6678 78.071 54.0652C75.1371 53.104 71.6364 50.8443 71.3997 47.6378C71.2562 45.7081 72.4685 43.6493 74.3408 42.6379C75.2877 42.1214 76.4139 41.8488 77.5976 41.8488ZM77.5976 39.6968C76.1127 39.6968 74.6278 40.0268 73.3222 40.7369C70.7971 42.0999 69.0468 44.9262 69.262 47.7884C69.5633 51.8988 73.4944 54.8184 77.4111 56.1025C79.3981 56.7552 81.4067 57.4009 83.5013 57.5658C83.7739 57.5874 84.0465 57.5945 84.3191 57.5945C86.0264 57.5945 87.791 57.2144 89.4122 56.7768C91.4136 56.2388 93.3505 55.4569 95.1654 54.4526C96.0549 53.9648 96.9157 53.4196 97.7335 52.8242C97.9917 52.6377 99.7564 50.9878 99.9787 50.9878H99.9859C98.2858 50.3924 96.4422 50.2489 94.7493 49.6464C92.6905 48.9147 90.7752 47.81 89.1038 46.3968C87.9489 45.4212 87.0091 44.2447 85.8542 43.2763C84.563 42.186 83.1929 41.1745 81.6219 40.5146C80.3665 39.9837 78.982 39.6968 77.5976 39.6968Z" fill="#424242"/>
<path d="M74.0751 17.2654C74.0751 17.2654 77.5829 16.254 78.8167 18.1908C80.0506 20.1277 78.6732 30.357 76.6862 35.4286C74.6992 40.5003 71.1053 43.4988 69.3047 44.8402C67.5042 46.1816 65.5889 42.1932 65.5889 42.1932C65.5889 42.1932 70.5529 37.5878 71.9804 33.8935C73.4079 30.1992 73.4151 22.5881 73.2932 20.1133C73.1712 17.6385 74.0751 17.2654 74.0751 17.2654Z" fill="url(#paint5_linear_155_1717)"/>
<path opacity="0.2" d="M76.0478 19.152C76.6001 19.152 76.8942 19.2596 76.9803 19.3242C77.1668 19.9268 77.2744 22.1003 76.7795 25.7373C76.3275 29.0944 75.5241 32.509 74.6848 34.6395C73.4653 37.7528 71.3922 40.4715 68.5085 42.7384C68.4511 42.6738 68.3865 42.6021 68.322 42.516C70.0149 40.78 72.8484 37.5878 73.9818 34.661C75.8613 29.7974 75.438 20.0989 75.438 19.9985C75.4237 19.6398 75.4308 19.3744 75.4524 19.1807C75.646 19.1664 75.8469 19.152 76.0478 19.152ZM76.0478 17C74.9861 17 74.0751 17.2654 74.0751 17.2654C74.0751 17.2654 73.1712 17.6384 73.2932 20.1133C73.4151 22.5881 73.4079 30.192 71.9804 33.8935C70.5529 37.5878 65.5889 42.1932 65.5889 42.1932C65.5889 42.1932 66.9949 45.1128 68.53 45.1128C68.7882 45.1128 69.0465 45.0267 69.3047 44.8402C71.1053 43.4987 74.6992 40.5002 76.6862 35.4286C78.6732 30.357 80.0506 20.1276 78.8167 18.1908C78.2141 17.2439 77.0664 17 76.0478 17Z" fill="#424242"/>
<path d="M54.5279 50.6866C59.1548 51.1672 64.5564 49.9549 66.7514 45.8589C68.2866 43.0038 67.7772 39.2808 65.7974 36.7199C63.8175 34.1518 60.5536 32.7386 57.3183 32.6741C55.3959 32.6382 53.5236 33.0471 51.6872 33.5779C50.0516 34.0514 48.5452 34.8261 46.9025 35.2995C44.5353 35.9882 42.0461 36.2464 39.5927 36.0599C37.5698 35.9021 35.6043 35.2063 33.5742 35.0413C33.7822 35.0557 34.8726 37.6524 35.0591 37.9681C35.633 38.958 36.2714 39.9121 36.9673 40.8231C38.3804 42.6882 40.016 44.3883 41.838 45.8589C43.5525 47.2505 45.4893 48.6422 47.5768 49.3882C49.8077 50.1916 52.1822 50.4427 54.5279 50.6866Z" fill="url(#paint6_linear_155_1717)"/>
<path opacity="0.2" d="M57.0885 34.8189H57.2821C60.0009 34.8691 62.612 36.0958 64.0969 38.0254C65.632 40.0125 65.9405 42.8101 64.8573 44.833C63.5804 47.2074 60.4313 48.6278 56.4357 48.6278C55.8761 48.6278 55.3094 48.5991 54.7499 48.5417C52.5764 48.3193 50.3239 48.0826 48.301 47.3652C46.4144 46.6909 44.578 45.3208 43.1935 44.1946C41.5077 42.8316 39.9941 41.2606 38.6886 39.5318C38.3012 39.0225 37.9353 38.4917 37.5838 37.9537C38.1864 38.0613 38.7962 38.1545 39.4346 38.2047C40.0085 38.2478 40.5895 38.2693 41.1634 38.2693C43.3154 38.2693 45.4459 37.968 47.5119 37.3655C48.4301 37.1 49.2694 36.7629 50.0872 36.4401C50.8476 36.1388 51.5649 35.8519 52.2894 35.6438C53.6165 35.2565 55.3597 34.8189 57.0885 34.8189ZM57.0885 32.6668C55.2521 32.6668 53.4515 33.0686 51.694 33.5707C50.0585 34.0441 48.5521 34.8189 46.9093 35.2923C45.0442 35.8375 43.1074 36.1101 41.1634 36.1101C40.6397 36.1101 40.1161 36.0886 39.5996 36.0527C37.5767 35.8949 35.6111 35.1991 33.5811 35.0341C33.7891 35.0484 34.8794 37.6452 35.066 37.9609C35.6398 38.9508 36.2783 39.9049 36.9741 40.8159C38.3873 42.681 40.0228 44.3811 41.8449 45.8517C43.5593 47.2433 45.4962 48.6349 47.5836 49.381C49.8218 50.1772 52.189 50.4283 54.5347 50.6722C55.1588 50.7368 55.7972 50.7726 56.4428 50.7726C60.5604 50.7726 64.8573 49.3882 66.7583 45.8445C68.2934 42.9894 67.7841 39.2664 65.8042 36.7055C63.8243 34.1374 60.5604 32.7242 57.3252 32.6597C57.2463 32.6668 57.1674 32.6668 57.0885 32.6668Z" fill="#424242"/>
<path d="M65.4377 57.9316C63.214 53.8427 62.2456 48.398 65.1795 44.7898C67.2239 42.2791 70.8465 41.3035 73.9813 42.1428C77.109 42.9749 79.677 45.4426 80.9826 48.4052C81.7573 50.1627 82.1017 52.0565 82.3169 53.9503C82.5106 55.6361 82.3743 57.329 82.5679 59.0291C82.8477 61.4753 83.5651 63.8784 84.6913 66.0663C85.6167 67.874 87.0155 69.4234 87.9552 71.224C87.862 71.0446 85.0428 71.0303 84.6769 70.9801C83.5435 70.8294 82.4173 70.6071 81.3054 70.3273C79.0386 69.7462 76.8435 68.8854 74.7776 67.7807C72.8336 66.7406 70.8035 65.4852 69.3114 63.8497C67.7117 62.0922 66.564 60.0047 65.4377 57.9316Z" fill="url(#paint7_linear_155_1717)"/>
<path opacity="0.2" d="M71.7145 44.0007C72.3027 44.0007 72.8766 44.0724 73.4218 44.223C75.7747 44.8471 77.9124 46.784 79.0099 49.2732C79.7273 50.9087 80.0142 52.7666 80.1792 54.2013C80.2653 54.9474 80.2796 55.7221 80.294 56.5399C80.3083 57.415 80.3227 58.3261 80.4303 59.273C80.7387 61.9989 81.5278 64.6172 82.776 67.049C83.0701 67.6157 83.3929 68.1465 83.7229 68.6558C83.0916 68.5411 82.4603 68.4048 81.8434 68.2469C79.7416 67.7089 77.7115 66.9127 75.7962 65.8869C74.2252 65.0404 72.2525 63.8855 70.9039 62.4006C69.4549 60.8081 68.3717 58.821 67.3244 56.9057C65.6171 53.7709 64.4693 49.0795 66.8437 46.1527C67.9413 44.7969 69.7562 44.0007 71.7145 44.0007ZM71.7145 41.8486C69.2325 41.8486 66.7433 42.8673 65.1795 44.7897C62.2456 48.398 63.214 53.8498 65.4377 57.9315C66.564 60.0046 67.7117 62.0921 69.3114 63.8496C70.8035 65.4923 72.8407 66.7405 74.7776 67.7807C76.8435 68.8854 79.0386 69.7462 81.3054 70.3272C82.4173 70.6142 83.5435 70.8294 84.6769 70.98C85.0428 71.0302 87.862 71.0374 87.9552 71.2239C87.0155 69.4162 85.6167 67.8739 84.6913 66.0662C83.5651 63.8711 82.8477 61.4752 82.5679 59.0291C82.3743 57.3289 82.5106 55.6432 82.3169 53.9502C82.0945 52.0565 81.7502 50.1627 80.9826 48.4052C79.677 45.4425 77.109 42.9749 73.9813 42.1427C73.2425 41.9419 72.4749 41.8486 71.7145 41.8486Z" fill="#424242"/>
<path d="M33.2772 47.7616C33.8849 47.0252 34.0258 46.1379 33.5919 45.7798C33.158 45.4218 32.3136 45.7285 31.7059 46.4649C31.0981 47.2013 30.9572 48.0886 31.3911 48.4467C31.8251 48.8048 32.6695 48.4981 33.2772 47.7616Z" fill="#FFFDE7"/>
<path d="M28.9881 64.7583C29.1163 63.8842 28.804 63.1146 28.2905 63.0393C27.777 62.964 27.2568 63.6115 27.1286 64.4856C27.0004 65.3598 27.3128 66.1294 27.8262 66.2047C28.3397 66.28 28.8599 65.6325 28.9881 64.7583Z" fill="#FFFDE7"/>
<path d="M44.6925 54.0728C45.255 54.0728 45.7111 53.2988 45.7111 52.344C45.7111 51.3892 45.255 50.6152 44.6925 50.6152C44.1299 50.6152 43.6738 51.3892 43.6738 52.344C43.6738 53.2988 44.1299 54.0728 44.6925 54.0728Z" fill="#FFFDE7"/>
<path d="M39.8312 60.7871C39.9954 59.9069 39.7087 59.1151 39.1907 59.0185C38.6728 58.9218 38.1197 59.557 37.9555 60.4371C37.7913 61.3173 38.0781 62.1091 38.5961 62.2057C39.114 62.3024 39.667 61.6672 39.8312 60.7871Z" fill="#FFFDE7"/>
<path d="M37.7083 74.7164C38.0578 73.8279 37.9166 72.9407 37.3931 72.7348C36.8696 72.5289 36.1619 73.0822 35.8124 73.9708C35.463 74.8593 35.6041 75.7465 36.1276 75.9524C36.6512 76.1583 37.3589 75.6049 37.7083 74.7164Z" fill="#FFFDE7"/>
<path d="M49.4817 68.1187C49.8312 67.2302 49.6901 66.343 49.1665 66.1371C48.643 65.9312 47.9353 66.4846 47.5859 67.3731C47.2364 68.2616 47.3775 69.1488 47.9011 69.3548C48.4246 69.5607 49.1323 69.0073 49.4817 68.1187Z" fill="#FFFDE7"/>
<path d="M48.4485 82.6231C48.798 81.7346 48.6569 80.8474 48.1333 80.6415C47.6098 80.4356 46.9021 80.989 46.5527 81.8775C46.2032 82.766 46.3443 83.6532 46.8679 83.8591C47.3914 84.065 48.0991 83.5117 48.4485 82.6231Z" fill="#FFFDE7"/>
<path d="M43.1538 93.78C43.8948 93.1779 44.2079 92.3359 43.8531 91.8993C43.4984 91.4626 42.6101 91.5968 41.8691 92.1989C41.1281 92.801 40.8149 93.643 41.1697 94.0796C41.5245 94.5162 42.4128 94.3821 43.1538 93.78Z" fill="#FFFDE7"/>
<path d="M56.8647 90.7229C57.6057 90.1208 57.9188 89.2787 57.5641 88.8421C57.2093 88.4055 56.321 88.5397 55.58 89.1418C54.839 89.7438 54.5259 90.5859 54.8806 91.0225C55.2354 91.4591 56.1237 91.325 56.8647 90.7229Z" fill="#FFFDE7"/>
<path d="M58.8 81.5796C59.6268 81.1022 60.0691 80.3202 59.7878 79.833C59.5065 79.3458 58.6082 79.3379 57.7813 79.8153C56.9545 80.2927 56.5122 81.0746 56.7935 81.5618C57.0748 82.049 57.9731 82.057 58.8 81.5796Z" fill="#FFFDE7"/>
<path d="M58.7235 70.2098C59.3987 69.5347 59.6235 68.6649 59.2257 68.2671C58.8279 67.8693 57.9581 68.0941 57.283 68.7693C56.6079 69.4444 56.383 70.3142 56.7808 70.712C57.1786 71.1098 58.0484 70.8849 58.7235 70.2098Z" fill="#FFFDE7"/>
<path d="M62.4864 59.4156C62.9331 58.5717 62.8922 57.6742 62.395 57.411C61.8978 57.1478 61.1326 57.6185 60.6859 58.4623C60.2391 59.3062 60.28 60.2036 60.7772 60.4669C61.2744 60.7301 62.0396 60.2594 62.4864 59.4156Z" fill="#FFFDE7"/>
<path d="M33.7872 92.0859C34.3336 91.9518 34.592 91.0913 34.3644 90.164C34.1367 89.2367 33.5093 88.5937 32.9629 88.7279C32.4166 88.862 32.1582 89.7224 32.3858 90.6497C32.6134 91.577 33.2408 92.22 33.7872 92.0859Z" fill="#FFFDE7"/>
<path d="M28.1515 79.0039C28.6461 78.8221 28.7979 77.9965 28.4904 77.1597C28.183 76.3229 27.5328 75.7919 27.0382 75.9737C26.5435 76.1554 26.3918 76.9811 26.6993 77.8178C27.0067 78.6546 27.6569 79.1856 28.1515 79.0039Z" fill="#FFFDE7"/>
<defs>
<radialGradient id="paint0_radial_155_1717" cx="0" cy="0" r="1" gradientUnits="userSpaceOnUse" gradientTransform="translate(41.4811 49.569) rotate(58.5285) scale(44.198 65.1013)">
<stop stop-color="#FF9E96"/>
<stop offset="0.3108" stop-color="#FF574A"/>
<stop offset="0.4276" stop-color="#FA4E43"/>
<stop offset="0.6133" stop-color="#EB3732"/>
<stop offset="0.7689" stop-color="#DB1F1F"/>
<stop offset="0.996" stop-color="#ED2121"/>
</radialGradient>
<linearGradient id="paint1_linear_155_1717" x1="91.449" y1="34.0265" x2="67.844" y2="47.7945" gradientUnits="userSpaceOnUse">
<stop offset="0.00729" stop-color="#AED581"/>
<stop offset="0.3315" stop-color="#8EBD60"/>
<stop offset="0.6783" stop-color="#73A743"/>
<stop offset="0.8765" stop-color="#689F38"/>
</linearGradient>
<linearGradient id="paint2_linear_155_1717" x1="66.6841" y1="18.714" x2="68.1589" y2="45.513" gradientUnits="userSpaceOnUse">
<stop offset="0.00729" stop-color="#AED581"/>
<stop offset="0.3315" stop-color="#8EBD60"/>
<stop offset="0.6783" stop-color="#73A743"/>
<stop offset="0.8765" stop-color="#689F38"/>
</linearGradient>
<linearGradient id="paint3_linear_155_1717" x1="44.5524" y1="24.3103" x2="67.4178" y2="41.8896" gradientUnits="userSpaceOnUse">
<stop offset="0.00729" stop-color="#AED581"/>
<stop offset="0.3315" stop-color="#8EBD60"/>
<stop offset="0.6783" stop-color="#73A743"/>
<stop offset="0.8765" stop-color="#689F38"/>
</linearGradient>
<linearGradient id="paint4_linear_155_1717" x1="70.1901" y1="43.7897" x2="97.0164" y2="57.0263" gradientUnits="userSpaceOnUse">
<stop offset="0.1235" stop-color="#689F38"/>
<stop offset="0.3217" stop-color="#73A743"/>
<stop offset="0.6685" stop-color="#8EBD60"/>
<stop offset="0.9927" stop-color="#AED581"/>
</linearGradient>
<linearGradient id="paint5_linear_155_1717" x1="65.5953" y1="31.0593" x2="79.293" y2="31.0593" gradientUnits="userSpaceOnUse">
<stop offset="0.1235" stop-color="#689F38"/>
<stop offset="0.3217" stop-color="#73A743"/>
<stop offset="0.6685" stop-color="#8EBD60"/>
<stop offset="0.9927" stop-color="#AED581"/>
</linearGradient>
<linearGradient id="paint6_linear_155_1717" x1="35.0763" y1="36.3375" x2="65.5628" y2="44.3281" gradientUnits="userSpaceOnUse">
<stop offset="0.00729" stop-color="#AED581"/>
<stop offset="0.3315" stop-color="#8EBD60"/>
<stop offset="0.6783" stop-color="#73A743"/>
<stop offset="0.8765" stop-color="#689F38"/>
</linearGradient>
<linearGradient id="paint7_linear_155_1717" x1="63.6953" y1="46.7714" x2="90.9908" y2="67.1757" gradientUnits="userSpaceOnUse">
<stop offset="0.1235" stop-color="#689F38"/>
<stop offset="0.3217" stop-color="#73A743"/>
<stop offset="0.6685" stop-color="#8EBD60"/>
<stop offset="0.9927" stop-color="#AED581"/>
</linearGradient>
</defs>
</svg>
