<svg width="120" height="120" viewBox="0 0 120 120" fill="none" xmlns="http://www.w3.org/2000/svg">
<path d="M69.0117 60.937L75.9053 59.9502C75.9053 59.9502 76.9994 74.2094 77.8289 75.8899C78.6585 77.5704 87.6902 87.9107 87.6902 87.9107L85.788 92.0297L73.5312 80.4236C72.2154 79.1793 71.3644 77.5274 71.107 75.7325L69.0117 60.937Z" fill="url(#paint0_linear_155_1883)"/>
<path d="M49.66 60.937L42.7664 59.9502C42.7664 59.9502 41.6722 74.2094 40.8427 75.8899C40.0132 77.5775 30.9814 87.9107 30.9814 87.9107L32.8836 92.0297L45.1333 80.4236C46.4491 79.1793 47.3001 77.5274 47.5575 75.7325L49.66 60.937Z" fill="url(#paint1_linear_155_1883)"/>
<path d="M77.077 64.1982L76.4835 57.4477C76.4048 56.5252 74.7529 49.0166 59.6643 49.0166C44.5756 49.0166 42.6162 56.3679 42.5232 57.4405L41.9297 64.1911L48.4657 64.7703V84.686H70.7627V64.756L77.077 64.1982Z" fill="url(#paint2_linear_155_1883)"/>
<path d="M76.1903 94.347C71.4277 95.1694 67.3016 96.4208 62.6606 97.801C60.5725 98.4231 58.3771 99.0667 55.9672 99.7103C51.2761 100.962 45.7698 102.213 38.6617 103.257C34.4497 103.879 30.0304 103.257 27.7921 101.877C26.1259 100.847 24.66 98.8093 25.2392 97.0787C25.8756 95.1622 27.7778 93.0312 30.4595 91.7512C31.5679 91.222 32.7692 90.7214 34.0064 90.2638C37.0885 89.1125 40.3636 88.1757 42.8164 87.5321C45.1548 86.9242 46.7567 86.5882 46.7567 86.5882C49.6886 85.9446 52.3917 85.9303 54.537 86.8527C58.2698 88.4474 77.499 94.1253 76.1903 94.347Z" fill="url(#paint3_linear_155_1883)"/>
<path d="M38.1976 88.9625L34.715 92.3449L31.6901 94.4187C31.6186 94.4759 31.5257 94.5045 31.4327 94.4974L30.6675 94.4259C30.2313 94.6619 29.7522 94.7906 29.2659 94.7906C29.0442 94.7906 28.8083 94.762 28.5866 94.7191C28.0789 94.6046 27.6212 94.3615 27.2422 94.0111C28.0717 93.1959 29.0943 92.4665 30.2671 91.8944C32.6198 90.7502 35.4015 89.7276 37.9973 88.9053L38.1976 88.9625Z" fill="url(#paint4_linear_155_1883)"/>
<path d="M91.1435 101.877C88.9052 103.257 84.5001 103.822 80.2739 103.257C72.2147 102.184 62.289 98.9091 55.1737 95.4409C51.1334 93.4743 47.6294 91.1216 45.6057 89.956C44.1826 89.1336 43.0527 88.676 41.265 88.869C40.5642 88.9477 40.3353 88.9978 39.8419 88.9763C38.8408 88.9334 39.7275 87.3387 39.7275 87.3387C40.2138 86.2089 41.8371 84.9145 43.4317 85.4866C45.0264 86.0587 46.9429 87.21 46.9429 87.21C50.5828 88.3399 50.7473 86.0801 52.8783 86.831C53.9438 87.2029 54.1869 88.4757 54.2155 89.1908C54.2513 89.9632 55.424 90.6783 56.1963 90.7855L61.1949 91.3791L61.8814 91.4577L63.6692 91.6723L69.104 87.8107L69.8548 87.2744L71.8214 85.8799C71.8214 85.8799 72.3577 86.0587 73.2587 86.3733C73.5376 86.4663 73.8522 86.5807 74.2027 86.7023C75.6758 87.2172 77.6924 87.9323 79.852 88.7332C80.0951 88.8261 80.3454 88.9191 80.5957 89.0121C83.3917 90.0633 86.3523 91.236 88.6263 92.2872C91.3222 93.5315 93.0599 95.162 93.7035 97.0784C94.2756 98.809 92.8097 100.847 91.1435 101.877Z" fill="url(#paint5_linear_155_1883)"/>
<path d="M70.849 85.0148L70.7417 82.562C70.7417 82.562 67.8027 83.9064 59.8006 83.9064C51.7986 83.9064 48.452 82.562 48.452 82.562V85.0148L43.1816 88.1613L59.5718 95.6341L76.8702 88.0969L70.849 85.0148Z" fill="#7C7C7C"/>
<path d="M62.661 97.8011C60.5729 98.4233 58.3776 99.0668 55.9677 99.7104C55.0023 99.2814 54.0726 98.8452 53.1716 98.409C49.6533 96.6856 46.4282 94.719 44.0826 93.2817L43.9039 93.1815C43.0028 92.6238 42.2234 92.1446 41.5726 91.7656C40.264 91.0076 39.742 90.8789 39.0555 90.8789C38.8767 90.8789 38.6979 90.8932 38.5048 90.9218L37.9971 90.9719C37.6324 91.0148 37.2105 91.072 36.6813 91.072C36.5455 91.072 36.4167 91.0648 36.2666 91.0577C35.4156 91.0219 34.6361 90.7502 34.0068 90.2639C37.0889 89.1126 40.3641 88.1758 42.8169 87.5322C43.1173 87.6752 43.4176 87.8469 43.7322 88.0256C44.3901 88.4118 45.2054 88.9052 46.1207 89.4702C48.4448 90.8932 51.6198 92.8454 55.0666 94.5259C57.3335 95.6343 59.8292 96.7142 62.4751 97.7296L62.661 97.8011Z" fill="url(#paint6_linear_155_1883)"/>
<path d="M36.8672 95.2835C36.9244 94.5541 37.3749 93.9105 37.9112 93.46C38.4476 92.988 39.0769 92.6662 39.7419 92.4231C40.0637 92.3087 40.457 92.2157 40.7788 92.1799L41.7728 92.0441C42.4378 91.9654 43.1029 91.8796 43.7679 91.8152C45.098 91.6722 46.4353 91.5935 47.7725 91.5506C49.1098 91.5077 50.447 91.5077 51.7986 91.6007C51.9988 91.615 52.149 91.7866 52.1347 91.9869C52.1203 92.1799 51.963 92.3301 51.7699 92.323H51.7556C50.447 92.3015 49.1169 92.3444 47.8011 92.3945C46.4782 92.4517 45.1624 92.5518 43.8466 92.6519C43.1887 92.7091 42.5308 92.7735 41.8729 92.845L40.8861 92.9665C40.5428 93.0023 40.2854 93.0452 39.9707 93.131C39.3772 93.3027 38.7908 93.5744 38.2759 93.9176C37.7611 94.268 37.3249 94.7257 37.1318 95.3192V95.3264C37.1103 95.3979 37.0317 95.4337 36.9602 95.4122C36.9029 95.3979 36.8672 95.3407 36.8672 95.2835Z" fill="#BA8F63"/>
<path d="M91.1435 101.877C88.9052 103.257 84.5001 103.822 80.2739 103.257C74.36 102.47 67.4449 100.497 61.3665 98.1296C59.164 97.2715 57.0688 96.3633 55.1737 95.4409C51.1334 93.4743 47.6294 91.1216 45.6057 89.956C44.1826 89.1336 43.0527 88.676 41.265 88.869C40.5642 88.9477 40.3353 88.9978 39.8419 88.9763C38.8408 88.9334 39.7275 87.3387 39.7275 87.3387C40.2138 86.2089 41.8371 84.9145 43.4317 85.4866C45.0264 86.0587 46.9429 87.21 46.9429 87.21C50.5828 88.3399 50.7473 86.0801 52.8783 86.831C53.9438 87.2029 54.1869 88.4757 54.2155 89.1908C54.2513 89.9632 55.424 90.6783 56.1963 90.7855C56.1963 90.7855 58.2344 91.1502 60.4512 91.4434H60.4584L60.8231 91.4863C60.9804 91.5078 61.1377 91.5292 61.295 91.5435C61.8242 91.6079 62.3462 91.658 62.8397 91.7009L62.9755 91.7152H63.0113C63.0184 91.7223 63.0256 91.7223 63.0327 91.7152H63.0399C63.5762 91.7581 64.0768 91.7795 64.5058 91.7795C65.1852 91.7795 65.8431 91.7581 66.4867 91.7152C68.7035 91.5793 70.7487 91.2432 72.7295 90.9572C73.2873 90.8713 73.8379 90.7927 74.3886 90.7212H74.3957C76.3623 90.4709 78.293 90.335 80.3096 90.5638C84.114 91.0001 88.7836 92.2944 93.3174 96.2132C93.4675 96.4921 93.6034 96.7852 93.7035 97.0784C94.2756 98.809 92.8097 100.847 91.1435 101.877Z" fill="url(#paint7_linear_155_1883)"/>
<path d="M81.8332 92.044C80.5675 91.5863 76.899 91.0929 74.7823 90.8426C72.6656 90.5923 76.4842 89.8057 79.1945 90.1203C80.8821 90.3206 79.2517 87.3672 79.2517 87.3672C79.2517 87.3672 75.0683 89.6484 73.6452 90.4707C73.5809 90.5065 73.4379 90.5852 73.2519 90.6781C73.2233 90.6924 73.1947 90.7067 73.1661 90.721C73.0303 90.7925 72.8801 90.8712 72.7299 90.957C72.3223 91.1644 71.8932 91.3861 71.6787 91.5076C72.1578 91.5219 72.6298 91.5434 73.1089 91.5648C77.8286 91.8008 82.4124 92.4301 84.5577 94.2536C84.6221 94.3037 84.7294 94.2822 84.7079 94.2107C84.4934 93.5528 83.6209 92.6947 81.8332 92.044Z" fill="#BA8F63"/>
<path d="M79.4013 89.4915C78.9151 89.513 78.6862 89.4629 77.9783 89.3771C76.1977 89.1912 75.0678 89.6488 73.6448 90.4712C73.5804 90.507 73.4374 90.5856 73.2515 90.6786C73.2229 90.6929 73.1942 90.7072 73.1656 90.7215C73.0298 90.793 72.8796 90.8717 72.7294 90.9575C72.3218 91.1649 71.8928 91.3865 71.6782 91.5081C71.6353 91.5296 71.5924 91.551 71.571 91.5653C71.571 91.5653 68.9394 91.5582 67.8381 91.6583C67.6164 91.6797 67.4091 91.694 67.2231 91.7083C66.272 91.7798 65.6857 91.7798 64.5057 91.7798C64.0767 91.7798 63.5761 91.7584 63.0398 91.7155C63.0326 91.7155 63.0326 91.7155 63.0326 91.7155H62.9754L62.8395 91.7012C62.3461 91.6583 61.8241 91.6082 61.2949 91.5439L61.3378 91.5367H61.345L62.8181 91.3293L63.0541 91.2936C63.5475 91.2292 64.1982 90.9146 64.6202 90.4927C64.6273 90.4855 64.6345 90.4784 64.6345 90.4712C64.6917 90.4211 64.7346 90.3711 64.7775 90.3139C64.9205 90.1279 65.0135 89.9206 65.0278 89.6989C65.0278 89.6631 65.0349 89.6274 65.0421 89.5916C65.0921 88.8622 65.3567 87.6894 66.3722 87.339C68.5032 86.5953 68.6605 88.8479 72.3004 87.7252C72.3004 87.7252 74.2168 86.5739 75.8115 86.0018C77.4062 85.4297 79.0366 86.7169 79.5158 87.8468C79.5158 87.8468 79.6373 88.0613 79.7374 88.3259C79.9091 88.7979 80.0449 89.4629 79.4013 89.4915Z" fill="url(#paint8_linear_155_1883)"/>
<path d="M96.9715 86.1087C96.9715 85.9943 96.9143 85.8799 96.8141 85.8155C96.714 85.7511 96.5996 85.7297 96.4852 85.7726C96.4423 85.7869 95.5198 86.1158 95.0979 87.0097C95.0764 87.0526 95.0621 87.1027 95.0621 87.1527L94.9978 88.8904C94.912 89.012 94.7833 89.1836 94.6402 89.3839L94.3971 87.2099L94.4543 84.278C94.4543 84.1779 94.4186 84.0778 94.347 84.0063C94.2755 83.9348 94.1683 83.899 94.0753 83.9062C94.0538 83.9062 93.7893 83.9276 93.4675 84.0349C93.4389 84.0349 93.4174 84.0349 93.3888 84.0349C93.3673 84.0349 93.3459 84.042 93.3173 84.042C93.2672 84.042 93.2243 84.0492 93.1743 84.0563C93.1242 84.0635 93.067 84.0706 93.0169 84.0849C92.974 84.0921 92.9383 84.1064 92.8954 84.1136C92.8453 84.1279 92.8024 84.1422 92.7524 84.1636C92.7166 84.1779 92.6808 84.1922 92.6451 84.2137C92.6022 84.2351 92.5664 84.2566 92.5235 84.2852C92.4878 84.3066 92.4592 84.3281 92.4234 84.3495C92.3877 84.3781 92.3519 84.4067 92.3233 84.4353C92.2947 84.464 92.2589 84.4926 92.2303 84.5212C92.2017 84.5498 92.1731 84.5784 92.1445 84.607C92.1159 84.6427 92.0802 84.6785 92.0516 84.7142C92.0301 84.7428 92.0087 84.7714 91.9872 84.7929C91.9514 84.8358 91.9157 84.8859 91.8871 84.9288C91.8728 84.9431 91.8656 84.9645 91.8513 84.9788C91.4151 85.6153 91.0862 86.3804 90.4283 86.6307C90.3139 86.6736 90.1923 86.7094 90.0636 86.738C88.8693 86.9883 87.3104 86.5235 86.4094 87.5604L86.4165 87.5747C86.3879 87.6033 86.3522 87.6319 86.3236 87.6676C86.0804 87.9608 85.1151 87.4102 85.1151 87.4102L83.3058 88.6759L83.0985 88.4828L82.4692 87.8893L81.6396 88.0895L85.1508 91.4434L88.1971 93.4957C88.2687 93.5529 88.3616 93.5815 88.4546 93.5672L89.2126 93.4886C89.6488 93.7245 90.1351 93.8461 90.6213 93.8461C90.8502 93.8461 91.079 93.8175 91.3007 93.7675C91.8942 93.6316 92.4234 93.3098 92.8167 92.845L92.9097 92.7377L93.0599 92.7949C93.0956 92.8092 93.1314 92.8164 93.1671 92.8235C93.8751 92.8736 94.7046 92.4946 95.198 91.8939L96.9214 89.7271C96.9715 89.6628 97.0001 89.5769 97.0001 89.4983L96.9715 86.1087Z" fill="url(#paint9_linear_155_1883)"/>
<path d="M94.4545 84.0349V84.1636L94.4402 84.6356C94.054 84.6213 93.6035 84.6928 93.3032 84.893C92.9814 85.0861 92.8527 85.4008 92.8527 85.8584L92.7668 88.6473L92.7168 90.0489C92.7454 90.2992 92.5952 90.5996 92.4379 90.7497L92.0017 91.2932L90.2568 93.4814L91.8515 91.1859L92.2591 90.6067C92.4093 90.4136 92.4665 90.2706 92.4451 90.0418L92.4021 88.6402L92.3092 85.837C92.2949 85.6153 92.3092 85.3006 92.4093 85.0361C92.5023 84.7786 92.8956 83.9705 94.2614 83.8633C94.3615 83.8704 94.4402 83.9276 94.4545 84.0349Z" fill="#BA8F63"/>
<path d="M96.9854 85.823V85.873L96.9782 86.345C96.7208 86.3378 96.4133 86.4022 96.1702 86.5309C95.927 86.6596 95.7411 86.8599 95.641 87.1173C95.5981 87.246 95.5695 87.3962 95.5552 87.5464L95.5051 88.0684C95.4551 88.4188 95.4122 88.7477 95.2906 89.1267L95.2834 89.1553L95.262 89.1839L94.8401 89.6845L93.2168 92.2231L94.5683 89.5057L94.5755 89.4914L94.9259 88.9837C94.9831 88.6977 95.0046 88.3544 95.0189 88.0255V87.5249C95.026 87.3318 95.0475 87.1316 95.0975 86.9385C95.2119 86.5381 95.498 86.1805 95.8412 85.966C96.1201 85.8087 96.399 85.6942 96.7065 85.6442C96.728 85.637 96.7566 85.6299 96.7852 85.6299H96.7923C96.8924 85.637 96.9711 85.7157 96.9854 85.823Z" fill="#BA8F63"/>
<path d="M86.1084 89.5274C86.1084 89.5274 88.7757 86.903 92.3584 87.1819C92.3584 87.1819 90.8424 87.1104 91.107 89.742C91.107 89.742 90.0486 88.6764 88.5684 91.451C88.5612 91.4582 87.7102 89.1913 86.1084 89.5274Z" fill="url(#paint10_linear_155_1883)"/>
<path d="M92.4733 87.6748C92.2587 87.6319 91.9727 87.6605 91.7939 87.7678C91.608 87.8751 91.4936 88.0825 91.4507 88.3542C91.4078 88.6331 91.3935 88.9763 91.3649 89.2838L91.3291 89.7558C91.3076 89.9131 91.3219 90.0633 91.2719 90.2707C91.2147 90.4709 91.0788 90.6211 90.9858 90.7283L90.6855 91.1002L90.0777 91.8367L88.8691 93.317L89.9346 91.7295L90.471 90.9357L90.7356 90.5353C90.8285 90.3922 90.9072 90.2921 90.9215 90.1777C90.9429 90.0776 90.9215 89.906 90.9215 89.7415L90.9143 89.2624C90.9143 88.9334 90.8929 88.6331 90.9072 88.2827C90.9215 87.9251 91.0788 87.4961 91.4292 87.2386C91.7868 86.9883 92.1658 86.924 92.5805 86.9526L92.4733 87.6748Z" fill="#BA8F63"/>
<path d="M90.936 90.0989C90.7716 90.0202 90.5141 89.9702 90.321 90.0131C90.1137 90.0417 89.9277 90.1704 89.7776 90.3492L88.6906 91.6936L88.4332 92.0154L88.3044 91.6292C88.047 90.8426 87.4964 90.0631 86.7026 89.7127C85.9017 89.348 84.9435 89.4911 84.1211 89.8415C84.9149 89.4339 85.8731 89.1907 86.7813 89.5125C87.2246 89.6698 87.6251 89.9487 87.9469 90.292C88.2687 90.6424 88.5261 91.0357 88.7121 91.4934L88.3259 91.429L89.3056 89.9988C89.4987 89.727 89.799 89.4696 90.1637 89.3838C90.5284 89.2908 90.8717 89.3123 91.2364 89.4482L90.936 90.0989Z" fill="#BA8F63"/>
<path d="M22.0286 85.844C22.0286 85.7296 22.0858 85.6152 22.1859 85.5508C22.2789 85.4865 22.4005 85.465 22.5149 85.5079C22.5578 85.5222 23.4803 85.8512 23.9022 86.7451C23.9236 86.788 23.9379 86.838 23.9379 86.8881L24.0023 88.6258C24.0881 88.7474 24.2168 88.919 24.3598 89.1192L24.603 86.9453L24.5458 84.0134C24.5458 83.9133 24.5815 83.8131 24.6602 83.7416C24.7317 83.6701 24.839 83.6344 24.9319 83.6415C24.9534 83.6415 25.218 83.663 25.5398 83.7702H25.6184C25.6399 83.7702 25.6613 83.7774 25.6899 83.7774C25.74 83.7774 25.7829 83.7845 25.833 83.7917C25.8902 83.7988 25.9402 83.806 25.9903 83.8203C26.0332 83.8275 26.0689 83.8418 26.1118 83.8489C26.1619 83.8632 26.2048 83.8775 26.2549 83.899C26.2906 83.9133 26.3264 83.9276 26.3621 83.949C26.405 83.9705 26.4408 83.9919 26.4837 84.0205C26.5195 84.042 26.5481 84.0634 26.5838 84.0849L26.6911 84.1707C26.7268 84.1993 26.7554 84.2279 26.784 84.2565L26.8699 84.3423C26.9056 84.3781 26.9342 84.4138 26.9628 84.4496C26.9843 84.4782 27.0057 84.5068 27.0272 84.5283C27.0629 84.5712 27.0987 84.6212 27.1273 84.6641C27.1416 84.6784 27.1487 84.6999 27.163 84.7142C27.5993 85.3506 27.9282 86.1158 28.5861 86.3661C28.7005 86.409 28.8221 86.4447 28.9508 86.4733C30.145 86.7236 31.704 86.2588 32.605 87.2957L32.5978 87.31C32.6264 87.3386 32.6622 87.3672 32.6908 87.403C32.9339 87.6962 33.8993 87.1455 33.8993 87.1455L35.7014 88.4113L35.9016 88.2182L36.5309 87.6247L37.3604 87.8249L33.8493 91.1787L30.8029 93.2311C30.7314 93.2883 30.6385 93.3169 30.5455 93.3026L29.7875 93.2239C29.3513 93.4599 28.865 93.5815 28.3787 93.5815C28.1499 93.5815 27.9211 93.5529 27.6994 93.5028C27.1058 93.3669 26.5767 93.0451 26.1834 92.5803L26.0904 92.4731L25.9402 92.5303C25.9045 92.5446 25.8687 92.5517 25.833 92.5589C25.1322 92.6089 24.2955 92.2299 23.8021 91.6292L22.0787 89.4625C22.0286 89.3981 22 89.3123 22 89.2336L22.0286 85.844Z" fill="url(#paint11_linear_155_1883)"/>
<path d="M22.0215 85.5583V85.6084L22.0286 86.0803C22.2861 86.0732 22.5936 86.1375 22.8367 86.2663C23.0798 86.395 23.2658 86.5952 23.3659 86.8526C23.4088 86.9814 23.4374 87.1315 23.4517 87.2817L23.5017 87.8037C23.5518 88.1541 23.5947 88.4831 23.7163 88.8621L23.7234 88.8907L23.7449 88.9193L24.1668 89.4199L25.7901 91.9585L24.4385 89.2411L24.4314 89.2268L24.081 88.7191C24.0238 88.433 24.0023 88.0898 23.988 87.7608V87.2603C23.9809 87.0672 23.9594 86.8669 23.9094 86.6739C23.7949 86.2734 23.5089 85.9159 23.1585 85.7013C22.8796 85.544 22.6007 85.4296 22.2932 85.3795C22.2718 85.3724 22.2432 85.3652 22.2146 85.3652H22.2074C22.1073 85.3724 22.0286 85.451 22.0215 85.5583Z" fill="#BA8F63"/>
<path d="M32.8916 89.2628C32.8916 89.2628 30.2243 86.6383 26.6416 86.9172C26.6416 86.9172 28.1576 86.8457 27.893 89.4773C27.893 89.4773 28.9514 88.4118 30.4317 91.1864C30.4317 91.1936 31.2898 88.9267 32.8916 89.2628Z" fill="url(#paint12_linear_155_1883)"/>
<path d="M26.5262 87.4034C26.7407 87.3605 27.0268 87.3891 27.2056 87.4963C27.3915 87.6036 27.5059 87.811 27.5488 88.0827C27.5917 88.3616 27.606 88.7048 27.6346 89.0123L27.6704 89.4843C27.6918 89.6416 27.6775 89.7918 27.7276 89.9992C27.7848 90.1994 27.9207 90.3496 28.0136 90.4568L28.314 90.8287L28.9218 91.5653L30.1303 93.0455L29.0648 91.458L28.5285 90.6642L28.2639 90.2638C28.1709 90.1208 28.0923 90.0206 28.078 89.9062C28.0565 89.8061 28.078 89.6345 28.078 89.47L28.0851 88.9909C28.0851 88.6619 28.1066 88.3616 28.0923 88.0112C28.078 87.6536 27.9207 87.2246 27.5703 86.9671C27.2127 86.7169 26.8337 86.6525 26.4189 86.6811L26.5262 87.4034Z" fill="#BA8F63"/>
<path d="M28.0565 89.8274C28.221 89.7488 28.4784 89.6987 28.6715 89.7416C28.8789 89.7702 29.0648 89.8989 29.215 90.0777L30.3019 91.4221L30.5594 91.7439L30.6881 91.3577C30.9455 90.5711 31.4962 89.7917 32.2899 89.4413C33.0908 89.0766 34.0491 89.2196 34.8715 89.57C34.0777 89.1624 33.1195 88.9192 32.2113 89.241C31.7679 89.3984 31.3674 89.6772 31.0457 90.0205C30.7239 90.3709 30.4664 90.7642 30.2733 91.2219L30.6595 91.1575L29.6798 89.7273C29.4867 89.4556 29.1864 89.1981 28.8217 89.1123C28.457 89.0194 28.1137 89.0408 27.749 89.1767L28.0565 89.8274Z" fill="#BA8F63"/>
<path d="M24.5459 83.7991V83.9278L24.5602 84.3997C24.9464 84.3854 25.3969 84.457 25.6972 84.6572C26.019 84.8503 26.1477 85.1649 26.1477 85.6226L26.2335 88.4115L26.2836 89.8131C26.255 90.0634 26.4052 90.3637 26.5625 90.5139L26.9987 91.0574L28.7436 93.2456L27.1489 90.9501L26.7413 90.3709C26.5911 90.1778 26.5339 90.0348 26.5553 89.8059L26.5982 88.4043L26.6912 85.6011C26.7055 85.3794 26.6912 85.0648 26.5911 84.8002C26.4981 84.5428 26.1048 83.7347 24.739 83.6274C24.6389 83.6346 24.5602 83.699 24.5459 83.7991Z" fill="#BA8F63"/>
<path d="M71.5565 43.1311C71.1274 42.3445 71.6781 41.5508 72.6149 40.5568C74.1023 38.9907 75.7256 35.3508 74.2167 31.6609C74.2238 31.6394 73.9235 31.0173 73.9306 30.9958L73.3085 30.9672C73.1083 30.9386 66.3076 30.9243 59.4999 30.9243C52.6921 30.9243 45.8914 30.9386 45.6912 30.9672C45.6912 30.9672 44.7759 31.6394 44.783 31.6609C43.2813 35.358 44.8974 38.9907 46.3849 40.5568C47.3216 41.5436 47.8723 42.3445 47.4432 43.1311C47.0284 43.8963 45.777 44.0036 45.777 44.0036C45.777 44.0036 46.0631 44.783 46.7567 45.2049C47.4003 45.5911 48.1798 45.6841 48.7304 45.6984C48.7304 45.6984 50.8543 48.6374 56.4106 48.6374H59.4999H62.5891C68.1383 48.6374 70.2693 45.6984 70.2693 45.6984C70.8128 45.6841 71.5994 45.5911 72.2358 45.2049C72.9295 44.783 73.2155 44.0036 73.2155 44.0036C73.2155 44.0036 71.9713 43.8963 71.5565 43.1311Z" fill="#AB872F"/>
<path d="M59.4932 48.6375V45.3766L69.3616 44.5972L70.2555 45.6984C70.2555 45.6984 68.1316 48.6375 62.5753 48.6375H59.4932Z" fill="url(#paint13_radial_155_1883)"/>
<path d="M70.2409 44.2755C68.7607 42.03 72.043 41.1934 72.043 41.1934C71.4709 41.9013 71.2135 42.5235 71.5496 43.1313C71.9643 43.8965 73.2086 44.0037 73.2086 44.0037C73.2086 44.0037 71.521 45.5126 70.2409 44.2755Z" fill="url(#paint14_radial_155_1883)"/>
<path d="M74.2239 31.6612C75.6898 35.2368 74.1452 38.9195 72.7007 40.4713C72.5005 40.6858 71.6638 41.5082 71.4707 42.1733C71.4707 42.1733 68.1741 37.5751 67.1873 34.8792C66.987 34.3357 66.8082 33.7708 66.7868 33.1916C66.7653 32.7553 66.8368 32.2405 67.0871 31.8686C67.3946 31.4181 74.0522 31.2822 74.0522 31.2822C74.0451 31.2894 74.2239 31.6612 74.2239 31.6612Z" fill="url(#paint15_radial_155_1883)"/>
<path d="M44.7832 31.6611C43.3172 35.2366 44.8619 38.9194 46.3064 40.4711C46.5066 40.6857 47.3433 41.508 47.5364 42.1731C47.5364 42.1731 50.833 37.575 51.8198 34.879C52.0201 34.3355 52.1988 33.7706 52.2203 33.1914C52.2417 32.7552 52.1702 32.2403 51.9199 31.8684C51.6125 31.4179 51.2549 31.5323 50.7329 31.5323C49.7389 31.5323 45.3839 31.2749 45.0478 31.2749C45.055 31.2892 44.7832 31.6611 44.7832 31.6611Z" fill="url(#paint16_radial_155_1883)"/>
<path d="M59.5146 48.6375V45.3766L49.6461 44.5972L48.7451 45.6984C48.7451 45.6984 50.869 48.6375 56.4253 48.6375H59.5146Z" fill="url(#paint17_radial_155_1883)"/>
<path d="M48.7668 44.2755C50.2471 42.03 46.9648 41.1934 46.9648 41.1934C47.5368 41.9013 47.7943 42.5235 47.4582 43.1313C47.0434 43.8965 45.792 44.0037 45.792 44.0037C45.792 44.0037 47.4939 45.5126 48.7668 44.2755Z" fill="url(#paint18_radial_155_1883)"/>
<path d="M59.5002 46.4492H56.082V50.0676C56.082 51.7052 57.4693 53.0282 59.1856 53.0282H59.8077C61.524 53.0282 62.9113 51.7052 62.9113 50.0676V46.4492H59.5002Z" fill="#C48E6A"/>
<path d="M68.8966 33.0264H66.3651H52.6352H50.1037C48.0799 33.0264 46.4209 34.7927 46.4209 36.9523C46.4209 39.1119 48.0799 40.8782 50.1037 40.8782H52.6352H66.3651H68.8966C70.9203 40.8782 72.5794 39.1119 72.5794 36.9523C72.5794 34.7927 70.9203 33.0264 68.8966 33.0264Z" fill="#C48E6A"/>
<path d="M59.5001 19.4971C53.5147 19.4971 47.9727 25.8972 47.9727 35.1078C47.9727 44.2683 53.6792 48.7949 59.5001 48.7949C65.3211 48.7949 71.0276 44.2683 71.0276 35.1078C71.0276 25.8901 65.4855 19.4971 59.5001 19.4971Z" fill="#E0BB95"/>
<path d="M56.3465 32.5121C56.0247 32.0831 55.2738 31.4609 53.815 31.4609C52.3633 31.4609 51.6125 32.0831 51.2835 32.5121C51.1405 32.7052 51.1763 32.9197 51.2764 33.0556C51.3694 33.1772 51.6411 33.2916 51.9414 33.1915C52.2418 33.0914 52.8282 32.7839 53.815 32.7767C54.8019 32.7839 55.3882 33.0842 55.6886 33.1915C55.9889 33.2916 56.2607 33.1772 56.3536 33.0556C56.4537 32.9197 56.4895 32.7052 56.3465 32.5121Z" fill="#AB872F"/>
<path d="M67.7098 32.5121C67.388 32.0831 66.6371 31.4609 65.1783 31.4609C63.7195 31.4609 62.9758 32.0831 62.6468 32.5121C62.5038 32.7052 62.5396 32.9197 62.6397 33.0556C62.7326 33.1772 63.0044 33.2916 63.3047 33.1915C63.6051 33.0914 64.1914 32.7839 65.1783 32.7767C66.1651 32.7839 66.7515 33.0842 67.0519 33.1915C67.3522 33.2916 67.6239 33.1772 67.7169 33.0556C67.817 32.9197 67.8528 32.7052 67.7098 32.5121Z" fill="#AB872F"/>
<path d="M60.8306 39.0906C60.7948 39.0763 60.7591 39.0692 60.7233 39.062H58.292C58.2562 39.0692 58.2205 39.0763 58.1847 39.0906C57.963 39.1764 57.8415 39.4053 57.9487 39.6484C58.056 39.8915 58.5351 40.5709 59.5148 40.5709C60.4874 40.5709 60.9736 39.8844 61.0809 39.6484C61.1667 39.4053 61.0451 39.1764 60.8306 39.0906Z" fill="#C48E6A"/>
<path d="M62.3604 41.8655C61.2806 42.5091 57.7337 42.5091 56.6467 41.8655C56.0246 41.4936 55.3881 42.0586 55.6456 42.6235C55.8959 43.1813 57.8338 44.4685 59.5071 44.4685C61.1805 44.4685 63.0898 43.1813 63.3472 42.6235C63.6047 42.0657 62.9825 41.5008 62.3604 41.8655Z" fill="#6D4C41"/>
<path d="M53.8935 36.4236C53.1856 36.4236 52.5491 36.2519 52.1129 35.9802C51.927 35.8658 51.8126 35.9302 51.8483 36.1518C51.977 37.0028 52.8423 37.6679 53.8935 37.6679C54.9447 37.6679 55.81 37.01 55.9387 36.1518C55.9745 35.9302 55.8601 35.8586 55.6741 35.9802C55.2308 36.2519 54.6015 36.4236 53.8935 36.4236Z" fill="#5D4037"/>
<path d="M65.1064 36.4236C64.3985 36.4236 63.762 36.2519 63.3258 35.9802C63.1399 35.8658 63.0255 35.9302 63.0612 36.1518C63.1899 37.0028 64.0552 37.6679 65.1064 37.6679C66.1576 37.6679 67.0229 37.01 67.1516 36.1518C67.1874 35.9302 67.0729 35.8586 66.887 35.9802C66.4437 36.2519 65.8144 36.4236 65.1064 36.4236Z" fill="#5D4037"/>
<path d="M73.4014 24.2238C72.5576 22.9509 70.6697 21.2347 68.975 21.1274C68.7032 19.497 66.9584 18.1168 65.2707 17.5805C60.7012 16.1288 57.7264 17.7521 56.1245 18.6245C55.7884 18.8033 53.6503 19.9975 52.1486 19.1394C51.2118 18.6031 51.2261 17.1586 51.2261 17.1586C51.2261 17.1586 48.2799 18.2813 49.2881 21.4063C48.2799 21.4492 46.9498 21.8711 46.249 23.2942C45.4123 24.9818 45.7126 26.3977 45.9486 27.0771C45.0762 27.8136 43.9821 29.3868 44.7329 31.432C45.2979 32.9695 47.5576 33.6775 47.5576 33.6775C47.4003 36.4449 47.9151 38.1469 48.1869 38.8334C48.2369 38.9549 48.4086 38.9406 48.4372 38.8191C48.7804 37.4461 49.946 32.6692 49.8316 31.8396C49.8316 31.8396 53.7504 31.0602 57.4904 28.3142C58.2484 27.7564 59.0779 27.2773 59.9503 26.9269C64.6414 25.0605 65.6283 28.2427 65.6283 28.2427C65.6283 28.2427 68.882 27.6205 69.8617 32.1328C70.2264 33.8276 70.4838 36.5379 70.6912 38.4329C70.7055 38.5688 70.8914 38.5974 70.9415 38.4687C71.2704 37.7178 71.9283 36.2232 72.0856 34.7001C72.1429 34.1637 73.5874 33.4558 74.2024 31.1531C75.0319 28.0925 74.0164 25.1463 73.4014 24.2238Z" fill="#AB872F"/>
<path d="M72.0716 34.7217C72.1288 34.1854 73.5733 33.4775 74.1883 31.1748C74.2527 30.9317 74.3099 30.6814 74.3599 30.4311C74.8605 27.6351 73.9595 25.0678 73.3945 24.224C72.6151 23.0441 70.9417 21.4995 69.3542 21.1777C69.2183 21.1562 69.0825 21.1419 68.9537 21.1348C68.9537 21.1348 69.0682 21.8785 68.7678 22.472C68.3817 23.2372 67.5879 23.4231 67.5879 23.4231C71.7355 27.5564 71.4423 31.0175 72.0716 34.7217Z" fill="url(#paint19_radial_155_1883)"/>
<path d="M57.1265 18.1021C56.7475 18.2881 56.4114 18.4668 56.1254 18.6242C55.7893 18.8029 53.6511 19.9972 52.1494 19.139C51.2269 18.617 51.2269 17.2154 51.2269 17.1582C50.805 17.7017 49.5178 21.5704 53.2721 21.8278C54.8954 21.9351 55.8894 20.5263 56.4829 19.3321C56.7046 18.9031 57.0407 18.2738 57.1265 18.1021Z" fill="url(#paint20_radial_155_1883)"/>
<path d="M64.7992 17.4374C67.3307 18.1239 68.5607 19.4111 68.9683 21.1274C69.0899 21.6279 69.2329 26.3333 60.2512 20.9915C56.9117 19.0035 57.8198 17.7592 58.2131 17.6162C59.7506 17.0656 61.9674 16.6723 64.7992 17.4374Z" fill="url(#paint21_radial_155_1883)"/>
<path d="M51.2187 17.1654C51.2115 17.1654 51.2044 17.1725 51.1972 17.1725C50.8754 17.3084 48.3511 18.474 49.295 21.4059L51.9838 21.8421C49.6025 19.4322 51.233 17.1582 51.233 17.1582L51.2187 17.1654Z" fill="url(#paint22_radial_155_1883)"/>
<path d="M50.9548 21.6782L49.2958 21.4136C49.2314 21.4136 49.0098 21.435 48.8882 21.4493C47.9514 21.578 46.8501 22.0643 46.2566 23.3014C45.613 24.6315 45.6345 25.7829 45.8061 26.5409C45.8562 26.7983 45.9634 27.0843 45.9634 27.0843C45.9634 27.0843 46.7858 26.3049 48.7452 26.2548L50.9548 21.6782Z" fill="url(#paint23_radial_155_1883)"/>
<path d="M45.8772 27.1481C45.0549 27.8775 43.9536 29.4936 44.7688 31.5031C45.3838 33.0191 47.5649 33.677 47.5649 33.677C47.5649 33.6841 48.0011 33.8129 48.2228 33.8129L48.7376 26.2471C47.6936 26.2471 46.6853 26.5617 46.0345 27.0122C46.0417 27.0265 45.8701 27.1338 45.8772 27.1481Z" fill="url(#paint24_radial_155_1883)"/>
<defs>
<linearGradient id="paint0_linear_155_1883" x1="78.3478" y1="59.9545" x2="78.3478" y2="92.0355" gradientUnits="userSpaceOnUse">
<stop stop-color="#CCA47A"/>
<stop offset="0.5" stop-color="#E0BB95"/>
</linearGradient>
<linearGradient id="paint1_linear_155_1883" x1="40.3268" y1="59.9545" x2="40.3268" y2="92.0355" gradientUnits="userSpaceOnUse">
<stop stop-color="#CCA47A"/>
<stop offset="0.5" stop-color="#E0BB95"/>
</linearGradient>
<linearGradient id="paint2_linear_155_1883" x1="59.5001" y1="48.8558" x2="59.5001" y2="83.5041" gradientUnits="userSpaceOnUse">
<stop stop-color="#F78C1F"/>
<stop offset="1" stop-color="#ED6D23"/>
</linearGradient>
<linearGradient id="paint3_linear_155_1883" x1="50.6822" y1="101.313" x2="50.6822" y2="83.9436" gradientUnits="userSpaceOnUse">
<stop stop-color="#CCA47A"/>
<stop offset="0.3773" stop-color="#E0BB95"/>
</linearGradient>
<linearGradient id="paint4_linear_155_1883" x1="32.6493" y1="91.4085" x2="36.2421" y2="95.8425" gradientUnits="userSpaceOnUse">
<stop stop-color="#CCA47A"/>
<stop offset="0.5" stop-color="#E0BB95" stop-opacity="0"/>
</linearGradient>
<linearGradient id="paint5_linear_155_1883" x1="39.3652" y1="94.4103" x2="93.8296" y2="94.4103" gradientUnits="userSpaceOnUse">
<stop offset="0.7779" stop-color="#E0BB95"/>
<stop offset="1" stop-color="#CCA47A"/>
</linearGradient>
<linearGradient id="paint6_linear_155_1883" x1="48.4205" y1="93.87" x2="46.2383" y2="97.9641" gradientUnits="userSpaceOnUse">
<stop stop-color="#CCA47A"/>
<stop offset="0.5" stop-color="#E0BB95" stop-opacity="0"/>
</linearGradient>
<linearGradient id="paint7_linear_155_1883" x1="92.6995" y1="99.5764" x2="42.3037" y2="88.8496" gradientUnits="userSpaceOnUse">
<stop stop-color="#CCA47A"/>
<stop offset="0.3379" stop-color="#E0BB95"/>
</linearGradient>
<linearGradient id="paint8_linear_155_1883" x1="70.8135" y1="91.7043" x2="69.501" y2="83.086" gradientUnits="userSpaceOnUse">
<stop offset="0.078" stop-color="#CCA47A"/>
<stop offset="0.6927" stop-color="#E0BB95"/>
</linearGradient>
<linearGradient id="paint9_linear_155_1883" x1="94.7827" y1="91.1809" x2="87.4288" y2="86.1208" gradientUnits="userSpaceOnUse">
<stop stop-color="#CCA47A"/>
<stop offset="0.5" stop-color="#E0BB95"/>
</linearGradient>
<linearGradient id="paint10_linear_155_1883" x1="90.2097" y1="89.9312" x2="89.046" y2="88.059" gradientUnits="userSpaceOnUse">
<stop stop-color="#CCA47A"/>
<stop offset="1" stop-color="#E0BB95" stop-opacity="0"/>
</linearGradient>
<linearGradient id="paint11_linear_155_1883" x1="23.7332" y1="90.0368" x2="34.258" y2="85.9213" gradientUnits="userSpaceOnUse">
<stop stop-color="#CCA47A"/>
<stop offset="0.5" stop-color="#E0BB95"/>
</linearGradient>
<linearGradient id="paint12_linear_155_1883" x1="28.6761" y1="89.4443" x2="30.27" y2="87.4709" gradientUnits="userSpaceOnUse">
<stop stop-color="#CCA47A"/>
<stop offset="1" stop-color="#E0BB95" stop-opacity="0"/>
</linearGradient>
<radialGradient id="paint13_radial_155_1883" cx="0" cy="0" r="1" gradientUnits="userSpaceOnUse" gradientTransform="translate(64.5374 43.9262) scale(8.08918 3.9734)">
<stop offset="0.7275" stop-color="#BFA055" stop-opacity="0"/>
<stop offset="1" stop-color="#BFA055"/>
</radialGradient>
<radialGradient id="paint14_radial_155_1883" cx="0" cy="0" r="1" gradientUnits="userSpaceOnUse" gradientTransform="translate(72.5072 42.722) rotate(154.924) scale(2.3904 1.77334)">
<stop offset="0.6628" stop-color="#BFA055"/>
<stop offset="1" stop-color="#BFA055" stop-opacity="0"/>
</radialGradient>
<radialGradient id="paint15_radial_155_1883" cx="0" cy="0" r="1" gradientUnits="userSpaceOnUse" gradientTransform="translate(66.3105 35.9623) rotate(-94.2783) scale(10.5001 8.75114)">
<stop offset="0.7247" stop-color="#BFA055" stop-opacity="0"/>
<stop offset="1" stop-color="#BFA055"/>
</radialGradient>
<radialGradient id="paint16_radial_155_1883" cx="0" cy="0" r="1" gradientUnits="userSpaceOnUse" gradientTransform="translate(52.6979 35.9617) rotate(-85.7217) scale(10.5001 8.75114)">
<stop offset="0.7247" stop-color="#BFA055" stop-opacity="0"/>
<stop offset="1" stop-color="#BFA055"/>
</radialGradient>
<radialGradient id="paint17_radial_155_1883" cx="0" cy="0" r="1" gradientUnits="userSpaceOnUse" gradientTransform="translate(54.4708 43.9262) rotate(180) scale(8.08918 3.9734)">
<stop offset="0.7275" stop-color="#BFA055" stop-opacity="0"/>
<stop offset="1" stop-color="#BFA055"/>
</radialGradient>
<radialGradient id="paint18_radial_155_1883" cx="0" cy="0" r="1" gradientUnits="userSpaceOnUse" gradientTransform="translate(46.5027 42.7226) rotate(25.0761) scale(2.3904 1.77334)">
<stop offset="0.6628" stop-color="#BFA055"/>
<stop offset="1" stop-color="#BFA055" stop-opacity="0"/>
</radialGradient>
<radialGradient id="paint19_radial_155_1883" cx="0" cy="0" r="1" gradientUnits="userSpaceOnUse" gradientTransform="translate(65.7863 30.421) rotate(72.0851) scale(12.3078 9.13205)">
<stop offset="0.6985" stop-color="#BFA055" stop-opacity="0"/>
<stop offset="1" stop-color="#BFA055"/>
</radialGradient>
<radialGradient id="paint20_radial_155_1883" cx="0" cy="0" r="1" gradientUnits="userSpaceOnUse" gradientTransform="translate(53.7889 17.0022) rotate(28.2026) scale(3.22711 3.82642)">
<stop offset="0.58" stop-color="#BFA055"/>
<stop offset="1" stop-color="#BFA055" stop-opacity="0"/>
</radialGradient>
<radialGradient id="paint21_radial_155_1883" cx="0" cy="0" r="1" gradientUnits="userSpaceOnUse" gradientTransform="translate(61.0018 22.8609) rotate(-157.19) scale(10.0928 5.67218)">
<stop offset="0.6985" stop-color="#BFA055" stop-opacity="0"/>
<stop offset="1" stop-color="#BFA055"/>
</radialGradient>
<radialGradient id="paint22_radial_155_1883" cx="0" cy="0" r="1" gradientUnits="userSpaceOnUse" gradientTransform="translate(52.4916 19.9456) scale(2.9621 3.62354)">
<stop offset="0.7016" stop-color="#BFA055" stop-opacity="0"/>
<stop offset="1" stop-color="#BFA055"/>
</radialGradient>
<radialGradient id="paint23_radial_155_1883" cx="0" cy="0" r="1" gradientUnits="userSpaceOnUse" gradientTransform="translate(52.0834 25.1754) rotate(-164.942) scale(5.55556 5.19899)">
<stop offset="0.6605" stop-color="#BFA055" stop-opacity="0"/>
<stop offset="1" stop-color="#BFA055"/>
</radialGradient>
<radialGradient id="paint24_radial_155_1883" cx="0" cy="0" r="1" gradientUnits="userSpaceOnUse" gradientTransform="translate(50.7683 30.5377) rotate(7.83355) scale(5.83264 8.19583)">
<stop offset="0.5981" stop-color="#BFA055" stop-opacity="0"/>
<stop offset="1" stop-color="#BFA055"/>
</radialGradient>
</defs>
</svg>
