<svg width="120" height="120" viewBox="0 0 120 120" fill="none" xmlns="http://www.w3.org/2000/svg">
<path d="M37.5931 55.8133C36.2846 55.8133 35.2227 54.7514 35.2227 53.4429V27.368C35.2227 26.0595 36.2846 24.9976 37.5931 24.9976C38.9016 24.9976 39.9635 26.0595 39.9635 27.368V53.4429C39.9635 54.7514 38.9016 55.8133 37.5931 55.8133Z" fill="#CCD6DD"/>
<path d="M23.3711 96.1108C23.3711 90.8105 32.8529 81.8882 39.9642 81.8882V93.7404C37.5938 93.7404 30.4824 96.1108 28.112 98.4813C25.7415 100.852 23.3711 98.4813 23.3711 96.1108ZM56.5573 96.1108C56.5573 90.8105 47.0755 81.8882 39.9642 81.8882V93.7404C42.3346 93.7404 49.446 96.1108 51.8164 98.4813C54.1869 100.852 56.5573 98.4813 56.5573 96.1108Z" fill="#3B88C3"/>
<path d="M54.1862 51.0728C58.9271 51.0728 63.668 53.4432 63.668 55.8136C63.668 62.925 56.1608 83.1733 44.3086 85.5437C32.4563 87.9142 54.1862 51.0728 54.1862 51.0728ZM25.7409 65.2954C23.3704 67.6659 21 72.4067 21 77.1476C21 81.8885 27.5187 72.3072 30.4818 74.7772C34.5542 78.1717 25.7409 65.2954 25.7409 65.2954Z" fill="#3B88C3"/>
<path d="M31.8641 46.9234C35.4197 48.1086 37.9869 47.2197 40.5565 45.1455C43.126 43.0714 43.5195 51.1712 39.9639 53.838C36.4082 56.5047 30.1858 62.7271 30.2854 57.1969C30.3825 51.6643 31.8641 46.9234 31.8641 46.9234Z" fill="black"/>
<path d="M40.0187 43.9634C38.6581 45.4568 35.6192 49.4913 34.1376 54.4289C32.0635 55.6141 32.1631 51.5654 32.4594 50.2806C32.9927 47.9694 33.6588 47.9647 33.2795 46.6752C32.7818 45.3691 31.4093 45.8123 30.627 46.2983C26.5665 48.6308 23.3711 52.9687 23.3711 60.5541C23.3711 73.6437 35.2233 91.3699 39.9642 91.3699C44.7051 91.3699 56.5573 73.6437 56.5573 60.5541C56.5573 47.4953 47.1253 43.98 40.0187 43.9634Z" fill="#55ACEE"/>
<path d="M45.8896 58.1841C47.8534 58.1841 49.4453 56.5922 49.4453 54.6284C49.4453 52.6647 47.8534 51.0728 45.8896 51.0728C43.9259 51.0728 42.334 52.6647 42.334 54.6284C42.334 56.5922 43.9259 58.1841 45.8896 58.1841Z" fill="black"/>
<path d="M39.8547 71.9953C36.2895 71.9953 33.1487 70.72 30.3729 69.2717C29.2114 68.6648 28.7634 67.2331 29.3702 66.0716C29.9746 64.9148 31.4064 64.4597 32.5679 65.0665C37.0504 67.4085 41.0778 68.3496 46.1624 65.3273C47.2884 64.6612 48.7414 65.0333 49.4099 66.1569C50.0784 67.2853 49.7062 68.7383 48.5803 69.4068C45.4181 71.2842 42.5167 71.9953 39.8547 71.9953Z" fill="#226699"/>
<path d="M89.3498 101.444C88.1788 100.858 86.8798 99.1729 87.6218 97.4212C90.7839 89.9638 97.7625 57.3607 91.424 38.7266C90.2364 35.2374 86.4034 30.0532 81.7525 27.1992C66.7311 17.9853 44.2853 23.0319 41.1492 24.6012C39.9759 25.1891 36.304 26.3648 35.7162 25.1938C35.1307 24.0228 37.1124 22.8162 38.2834 22.2307C42.4459 20.1519 64.984 13.0382 84.9029 24.1058C88.4585 26.0803 93.4128 29.7379 96.0511 36.6762C103.772 56.9838 98.5329 92.1825 94.1855 100.256C92.8059 102.826 89.6912 101.612 89.3498 101.444Z" fill="#662113"/>
<path d="M85.0023 86.6291C90.2389 86.6291 94.484 82.3839 94.484 77.1473C94.484 71.9107 90.2389 67.6655 85.0023 67.6655C79.7656 67.6655 75.5205 71.9107 75.5205 77.1473C75.5205 82.3839 79.7656 86.6291 85.0023 86.6291Z" fill="#99AAB5"/>
<path d="M85.0016 81.8885C87.6199 81.8885 89.7425 79.7659 89.7425 77.1476C89.7425 74.5293 87.6199 72.4067 85.0016 72.4067C82.3833 72.4067 80.2607 74.5293 80.2607 77.1476C80.2607 79.7659 82.3833 81.8885 85.0016 81.8885Z" fill="#66757F"/>
</svg>
