<svg width="120" height="120" viewBox="0 0 120 120" fill="none" xmlns="http://www.w3.org/2000/svg">
<path d="M69.5051 68.1416L89.8095 73.7665H74.3068L53.042 68.1416H69.5051Z" fill="#C94747"/>
<path d="M22.8594 46.1909H53.0417V98.324H22.8594V46.1909Z" fill="#F9F3D9"/>
<path d="M53.042 46.1909H69.5051V68.1417H53.042V46.1909Z" fill="#DBB471"/>
<path d="M44.8101 26.9844L17.5088 46.1913H53.0416L44.8101 26.9844Z" fill="#ED4C5C"/>
<path d="M55.7861 29.728H59.9019V40.7034H55.7861V29.728Z" fill="#D0D0D0"/>
<path d="M59.9014 29.728H62.6452V42.0753H59.9014V29.728Z" fill="#94989B"/>
<path d="M44.8105 26.9844L74.9929 46.1913H53.0421L44.8105 26.9844Z" fill="#C94747"/>
<path d="M54.4141 26.9844H61.2737V29.7282H54.4141V26.9844Z" fill="#D0D0D0"/>
<path d="M61.2734 26.9844H64.0173V29.7282H61.2734V26.9844Z" fill="#94989B"/>
<path d="M33.5605 54.1479H42.3409V62.9283H33.5605V54.1479Z" fill="#D6EEF0"/>
<path d="M32.4629 53.0508V64.0262H43.4383V53.0508H32.4629ZM42.3407 54.1483V57.9897H38.4994V54.1483H42.3407ZM37.4018 54.1483V57.9897H33.5604V54.1483H37.4018ZM33.5604 62.9286V59.0872H37.4018V62.9286H33.5604ZM38.4994 62.9286V59.0872H42.3407V62.9286H38.4994Z" fill="#89664C"/>
<path d="M57.9805 53.5991H64.5657V63.477H57.9805V53.5991Z" fill="#D6EEF0"/>
<path d="M57.4326 53.0508V64.0262H65.1154V53.0508H57.4326ZM58.5302 54.1483H60.7253V57.9897H58.5302V54.1483ZM58.5302 62.9286V59.0872H60.7253V62.9286H58.5302ZM64.0179 62.9286H61.8228V59.0872H64.0179V62.9286ZM64.0179 57.9897H61.8228V54.1483H64.0179V57.9897ZM34.7959 83.3703H43.3018V98.3243H34.7959V83.3703ZM42.3415 81.1752H44.5366V83.3703H42.3415V81.1752Z" fill="#89664C"/>
<path d="M32.6006 83.3701H34.7957V98.3241H32.6006V83.3701Z" fill="#594640"/>
<path d="M31.6396 81.1753H42.3407V83.3704H31.6396V81.1753Z" fill="#DBB471"/>
<path d="M41.5185 90.6409C41.9731 90.6409 42.3416 90.2724 42.3416 89.8178C42.3416 89.3632 41.9731 88.9946 41.5185 88.9946C41.0639 88.9946 40.6953 89.3632 40.6953 89.8178C40.6953 90.2724 41.0639 90.6409 41.5185 90.6409Z" fill="#F9F3D9"/>
<path d="M16.1377 98.3242H87.4777V103.812H16.1377V98.3242Z" fill="#83BF4F"/>
<path d="M70.7393 73.7666H83.4981V98.324H70.7393V73.7666Z" fill="#DBB471"/>
<path d="M53.042 73.7666H70.7398V98.324H53.042V73.7666Z" fill="#F9F3D9"/>
<path d="M53.0419 68.1416H22.8596L16 73.7665H74.3068L53.0419 68.1416Z" fill="#ED4C5C"/>
<path d="M54.8252 81.5864H63.6055V90.3667H54.8252V81.5864Z" fill="#D6EEF0"/>
<path d="M53.7275 80.4893V91.4646H64.7029V80.4893H53.7275ZM63.6054 81.5868V85.4282H59.764V81.5868H63.6054ZM58.6665 81.5868V85.4282H54.8251V81.5868H58.6665ZM54.8251 90.3671V86.5257H58.6665V90.3671H54.8251ZM59.764 90.3671V86.5257H63.6054V90.3671H59.764Z" fill="#89664C"/>
<path d="M73.7588 81.0376H80.344V90.9154H73.7588V81.0376Z" fill="#D6EEF0"/>
<path d="M73.21 80.4893V91.4646H80.8927V80.4893H73.21ZM74.3075 81.5868H76.5026V85.4282H74.3075V81.5868ZM74.3075 90.3671V86.5257H76.5026V90.3671H74.3075ZM79.7952 90.3671H77.6001V86.5257H79.7952V90.3671ZM79.7952 85.4282H77.6001V81.5868H79.7952V85.4282Z" fill="#89664C"/>
<path d="M87.2031 98.3242H103.666V103.812H87.2031V98.3242Z" fill="#699635"/>
<path d="M87.6143 62.6543H93.102V98.3243H87.6143V62.6543Z" fill="#D3976E"/>
<path d="M93.1017 62.6543H91.0438V63.3403C91.0438 66.4957 89.9463 66.4957 89.9463 69.6511C89.9463 72.8065 91.0438 72.8065 91.0438 75.8248C91.0438 78.9802 89.9463 78.9802 89.9463 82.1356C89.9463 85.291 91.0438 85.291 91.0438 88.3093C91.0438 91.4647 89.9463 91.4647 89.9463 94.4829C89.9463 96.4036 90.2207 97.2268 90.4951 98.1871H92.9645C93.1017 98.3243 93.1017 62.6543 93.1017 62.6543Z" fill="#89664C"/>
<path d="M88.9866 19.9872C86.38 23.6913 83.2245 16.9689 79.1088 22.731C74.993 28.4931 77.1881 33.5692 78.4228 37.2734C80.8923 44.819 75.8161 47.1512 79.246 53.4621C82.5386 59.7729 77.7368 62.7912 84.0477 66.221C90.3585 69.6508 87.2031 62.2424 93.6512 66.6326C100.099 71.0227 100.922 63.6143 100.236 60.8705C98.8645 55.7944 102.569 54.5596 103.666 50.3067C105.45 42.7611 99.4132 38.6453 101.334 31.5113C102.98 24.5145 96.8066 8.60019 88.9866 19.9872Z" fill="#83BF4F"/>
<path d="M101.059 31.6487C102.568 26.2982 99.4129 16.0088 94.474 16.0088C94.474 16.0088 97.7666 20.3989 93.1021 25.8866C88.4375 31.3743 97.0806 34.1182 93.1021 39.1943C89.1235 44.2704 96.8063 49.2093 93.788 53.1879C90.0838 58.1268 84.1846 57.4409 87.6144 66.9072V67.0444C88.9863 66.2212 89.1235 63.8889 93.3764 66.77C99.8245 71.1601 100.648 63.7517 99.9617 61.0079C98.5898 55.9318 102.294 54.697 103.391 50.4441C105.312 42.8985 99.2757 38.7827 101.059 31.6487Z" fill="#699635"/>
<path d="M95.2974 31.3743C94.337 31.3743 95.8461 30.5511 95.8461 29.4536C95.8461 28.3561 94.337 27.5329 95.2974 27.5329C96.2577 27.5329 97.2181 28.3561 97.2181 29.4536C97.2181 30.5511 96.3949 31.3743 95.2974 31.3743ZM97.7668 47.9746C96.2577 47.9746 98.59 46.7398 98.59 45.2307C98.59 43.7216 96.2577 42.4869 97.7668 42.4869C99.2759 42.4869 100.511 43.7216 100.511 45.2307C100.511 46.7398 99.2759 47.9746 97.7668 47.9746ZM95.2974 61.9682C94.1998 61.9682 95.2974 61.0078 95.2974 59.9103C95.2974 58.8128 94.1998 57.8524 95.2974 57.8524C96.3949 57.8524 97.3552 58.8128 97.3552 59.9103C97.3552 61.0078 96.3949 61.9682 95.2974 61.9682ZM83.636 32.609C84.7335 32.609 83.3616 33.5694 83.3616 34.6669C83.3616 35.7645 84.8707 36.7248 83.636 36.7248C82.4013 36.7248 81.5781 35.7645 81.5781 34.6669C81.5781 33.5694 82.5385 32.609 83.636 32.609ZM88.1634 24.7891C89.6725 24.7891 87.4774 26.0238 87.4774 27.5329C87.4774 29.042 89.8097 30.2768 88.1634 30.2768C86.6542 30.2768 85.4195 29.042 85.4195 27.5329C85.4195 26.0238 86.517 24.7891 88.1634 24.7891Z" fill="#83BF4F"/>
<path d="M86.9283 45.6423C89.2605 45.6423 85.9679 47.4258 85.9679 49.758C85.9679 52.0903 89.1233 53.8738 86.9283 53.8738C84.596 53.8738 82.8125 52.0903 82.8125 49.758C82.8125 47.4258 84.596 45.6423 86.9283 45.6423ZM88.163 38.0967C89.2605 38.0967 88.163 39.057 88.163 40.1546C88.163 41.2521 89.2605 42.2125 88.163 42.2125C87.0655 42.2125 86.1051 41.2521 86.1051 40.1546C86.1051 39.057 87.0655 38.0967 88.163 38.0967Z" fill="#699635"/>
<path d="M95.709 94.2085H96.2578V98.3243H95.709V94.2085Z" fill="#83BF4F"/>
<path d="M94.4746 89.9551V93.1105C94.4746 93.6593 94.8862 94.208 95.5721 94.208H96.6697V92.013C96.5325 90.5038 94.4746 89.9551 94.4746 89.9551Z" fill="#C94747"/>
<path d="M97.6296 89.9551V93.1105C97.6296 93.6593 97.2181 94.208 96.5321 94.208H95.4346V92.013C95.4346 90.5038 97.6296 89.9551 97.6296 89.9551Z" fill="#ED4C5C"/>
<path d="M101.745 91.0527H102.294V98.3239H101.745V91.0527Z" fill="#83BF4F"/>
<path d="M100.511 86.6626V89.818C100.511 90.3668 100.922 90.9156 101.608 90.9156H102.706V88.7205C102.569 87.3486 100.511 86.6626 100.511 86.6626Z" fill="#C94747"/>
<path d="M103.666 86.6626V89.818C103.666 90.3668 103.254 90.9156 102.568 90.9156H101.471V88.7205C101.471 87.3486 103.666 86.6626 103.666 86.6626Z" fill="#ED4C5C"/>
<path d="M96.5322 84.8789V88.0343C96.5322 88.5831 96.9438 89.1319 97.6298 89.1319H98.7273V86.9368C98.7273 85.5649 96.5322 84.8789 96.5322 84.8789Z" fill="#F2B200"/>
<path d="M99.824 84.8789V88.0343C99.824 88.5831 99.4124 89.1319 98.7264 89.1319H97.6289V86.9368C97.6289 85.5649 99.824 84.8789 99.824 84.8789Z" fill="#FFCE31"/>
<path d="M97.9043 89.2695H98.4531V98.3242H97.9043V89.2695Z" fill="#83BF4F"/>
<path d="M92.1416 86.5254V89.6808C92.1416 90.2296 92.6904 90.7784 93.2391 90.7784H94.1995V88.7205C94.1995 87.0742 92.1416 86.5254 92.1416 86.5254Z" fill="#F2B200"/>
<path d="M95.2976 86.5254V89.6808C95.2976 90.2296 94.886 90.7784 94.2001 90.7784H93.1025V88.7205C93.1025 87.0742 95.2976 86.5254 95.2976 86.5254Z" fill="#FFCE31"/>
<path d="M93.3768 90.7783H93.9256V98.3239H93.3768V90.7783ZM83.2246 94.2081H83.7734V98.3239H83.2246V94.2081Z" fill="#83BF4F"/>
<path d="M81.8525 89.9551V93.1105C81.8525 93.6593 82.2641 94.208 82.9501 94.208H84.0476V92.013C84.0476 90.5038 81.8525 89.9551 81.8525 89.9551Z" fill="#C94747"/>
<path d="M85.1453 89.9551V93.1105C85.1453 93.6593 84.7337 94.208 84.0477 94.208H82.9502V92.013C82.9502 90.5038 85.1453 89.9551 85.1453 89.9551Z" fill="#ED4C5C"/>
<path d="M89.2607 91.0527H89.8095V98.3239H89.2607V91.0527Z" fill="#83BF4F"/>
<path d="M87.8887 86.6626V89.818C87.8887 90.3668 88.3002 90.9156 88.9862 90.9156H90.0837V88.7205C90.0837 87.3486 87.8887 86.6626 87.8887 86.6626Z" fill="#C94747"/>
<path d="M91.1814 86.6626V89.818C91.1814 90.3668 90.7698 90.9156 90.0839 90.9156H88.9863V88.7205C88.9863 87.3486 91.1814 86.6626 91.1814 86.6626Z" fill="#ED4C5C"/>
<path d="M84.0479 84.8789V88.0343C84.0479 88.5831 84.4594 89.1319 85.1454 89.1319H86.2429V86.9368C86.2429 85.5649 84.0479 84.8789 84.0479 84.8789Z" fill="#F2B200"/>
<path d="M87.2029 84.8789V88.0343C87.2029 88.5831 86.7913 89.1319 86.1054 89.1319H85.0078V86.9368C85.145 85.5649 87.2029 84.8789 87.2029 84.8789Z" fill="#FFCE31"/>
<path d="M85.4189 89.2695H85.9677V98.3242H85.4189V89.2695Z" fill="#83BF4F"/>
<path d="M79.5195 86.5254V89.6808C79.5195 90.2296 79.9311 90.7784 80.6171 90.7784H81.7146V88.7205C81.7146 87.0742 79.5195 86.5254 79.5195 86.5254Z" fill="#C94747"/>
<path d="M82.8132 86.5254V89.6808C82.8132 90.2296 82.4017 90.7784 81.7157 90.7784H80.6182V88.7205C80.6182 87.0742 82.8132 86.5254 82.8132 86.5254Z" fill="#ED4C5C"/>
<path d="M80.8916 90.7783H81.4404V98.3239H80.8916V90.7783Z" fill="#83BF4F"/>
</svg>
