<svg width="120" height="120" viewBox="0 0 120 120" fill="none" xmlns="http://www.w3.org/2000/svg">
<path d="M59.8608 99.9998C82.029 99.9998 99.9998 82.029 99.9998 59.8608C99.9998 37.6926 82.029 19.7217 59.8608 19.7217C37.6926 19.7217 19.7217 37.6926 19.7217 59.8608C19.7217 82.029 37.6926 99.9998 59.8608 99.9998Z" fill="url(#paint0_linear_155_1649)"/>
<path d="M59.8608 99.9998C82.029 99.9998 99.9998 82.029 99.9998 59.8608C99.9998 37.6926 82.029 19.7217 59.8608 19.7217C37.6926 19.7217 19.7217 37.6926 19.7217 59.8608C19.7217 82.029 37.6926 99.9998 59.8608 99.9998Z" fill="url(#paint1_radial_155_1649)"/>
<path d="M99.9063 62.4829L88.1589 51.0366C87.1287 50.0331 86.6604 48.5881 86.9012 47.1699L89.3898 32.6797C85.2689 28.2041 80.1445 24.6786 74.3778 22.4375L61.8946 29.0002C60.6235 29.6692 59.1049 29.6692 57.8271 29.0002L45.3506 22.4375C39.5839 24.6786 34.4595 28.2041 30.3386 32.6797L32.8272 47.1699C33.068 48.5881 32.5997 50.0331 31.5695 51.0366L19.8154 62.4829C20.17 68.0221 21.6551 73.2469 24.03 77.9499L41.1159 80.4318C42.5408 80.6392 43.7718 81.5289 44.4073 82.8201L52.5489 99.3172C54.9238 99.7521 57.3655 99.9929 59.8609 99.9929C62.3562 99.9929 64.8047 99.7521 67.1729 99.3172L75.3144 82.8268C75.9499 81.5356 77.1809 80.6459 78.6058 80.4385L95.6917 77.9565C98.0666 73.2536 99.545 68.0221 99.9063 62.4829Z" fill="url(#paint2_radial_155_1649)"/>
<path d="M50.2146 68.1025C49.6928 67.8148 49.0372 68.0089 48.7562 68.5307L42.0195 80.7196C42.0195 80.7196 42.6015 80.9203 43.0698 81.2347C43.5381 81.5491 43.7723 81.9839 43.7723 81.9839L50.6427 69.5609C50.9304 69.0391 50.7364 68.3902 50.2146 68.1025Z" fill="#424242"/>
<path d="M69.4335 67.8555C68.9117 68.1365 68.7177 68.7921 69.0053 69.3139L75.9226 81.9778C75.9226 81.9778 76.217 81.5095 76.7187 81.1817C77.2205 80.8539 77.6955 80.7402 77.6955 80.7402L70.8919 68.2837C70.6042 67.7685 69.9553 67.5745 69.4335 67.8555Z" fill="#424242"/>
<path d="M75.1538 50.0738C75.1873 50.6425 75.6623 51.084 76.2242 51.084H76.2911L87.5836 50.3615C87.5836 50.3615 87.2223 49.7126 87.0551 49.2108C86.8945 48.7091 86.8477 48.2676 86.8477 48.2676L76.1506 48.9366C75.5686 48.97 75.1137 49.4784 75.1538 50.0738Z" fill="#4E4545"/>
<path d="M60.001 38.908C60.5964 38.908 61.0781 38.4263 61.0781 37.8309V29.3281C61.0781 29.3281 60.4426 29.482 59.9542 29.5021C59.4659 29.5221 58.9307 29.4017 58.9307 29.4017V37.8309C58.9307 38.4263 59.4056 38.908 60.001 38.908Z" fill="#4E4545"/>
<path d="M43.4578 51.144H43.5314C44.0933 51.144 44.5683 50.7092 44.6018 50.1405C44.6419 49.5451 44.1937 49.0367 43.5983 48.9966L32.8209 48.2139C32.8209 48.2139 32.8076 48.9631 32.6269 49.3779C32.4798 49.7124 32.0449 50.2944 32.0449 50.2944L43.4578 51.144Z" fill="#4E4545"/>
<path d="M48.8164 68.3169L43.1769 50.9501C42.9093 50.1206 43.2036 49.2107 43.906 48.7023L58.6772 37.9718C59.3797 37.4567 60.3363 37.4567 61.0387 37.9718L75.8099 48.7023C76.5124 49.2174 76.8067 50.1206 76.5391 50.9501L70.8996 68.3169C70.632 69.1465 69.856 69.7084 68.9863 69.7084H50.7297C49.86 69.7084 49.0907 69.1465 48.8164 68.3169Z" fill="url(#paint3_linear_155_1649)"/>
<defs>
<linearGradient id="paint0_linear_155_1649" x1="19.7217" y1="59.8608" x2="99.9998" y2="59.8608" gradientUnits="userSpaceOnUse">
<stop offset="0.6333" stop-color="#424242"/>
<stop offset="1" stop-color="#655C5A"/>
</linearGradient>
<radialGradient id="paint1_radial_155_1649" cx="0" cy="0" r="1" gradientUnits="userSpaceOnUse" gradientTransform="translate(60.1 61.3572) scale(41.4513 41.2896)">
<stop offset="0.7992" stop-color="#655C5A" stop-opacity="0"/>
<stop offset="0.9674" stop-color="#655C5A"/>
</radialGradient>
<radialGradient id="paint2_radial_155_1649" cx="0" cy="0" r="1" gradientUnits="userSpaceOnUse" gradientTransform="translate(60.7739 55.087) scale(38.5284 38.5284)">
<stop offset="0.6026" stop-color="#FCFCFC"/>
<stop offset="1" stop-color="#E3E1DB"/>
</radialGradient>
<linearGradient id="paint3_linear_155_1649" x1="59.8613" y1="64.7387" x2="59.8613" y2="40.8674" gradientUnits="userSpaceOnUse">
<stop offset="0.2127" stop-color="#424242"/>
<stop offset="0.8635" stop-color="#655C5A"/>
</linearGradient>
</defs>
</svg>
