<svg width="120" height="120" viewBox="0 0 120 120" fill="none" xmlns="http://www.w3.org/2000/svg">
<path d="M44.6799 38.672L44.2435 38.2355C43.5816 37.5736 43.5816 36.4971 44.2435 35.8352L49.9025 30.1761C50.5645 29.5142 51.641 29.5142 52.3029 30.1761L52.7393 30.6126C53.4013 31.2745 53.4013 32.351 52.7393 33.0129L47.0803 38.672C46.4257 39.3339 45.3419 39.3339 44.6799 38.672Z" fill="#757575"/>
<path d="M57.8606 40.0904L57.4242 39.654C56.7623 38.9921 56.7623 37.9155 57.4242 37.2536L63.0832 31.5946C63.7451 30.9327 64.8217 30.9327 65.4836 31.5946L65.92 32.031C66.5819 32.6929 66.5819 33.7695 65.92 34.4314L60.261 40.0904C59.6063 40.7523 58.5225 40.7523 57.8606 40.0904Z" fill="#757575"/>
<path d="M80.8744 75.0119L81.3108 75.4483C81.9727 76.1102 83.0492 76.1102 83.7112 75.4483L89.3702 69.7893C90.0321 69.1274 90.0321 68.0508 89.3702 67.3889L88.9338 66.9525C88.2718 66.2906 87.1953 66.2906 86.5334 66.9525L80.8744 72.6115C80.2125 73.2734 80.2125 74.35 80.8744 75.0119Z" fill="#757575"/>
<path d="M79.4564 61.8317L79.8928 62.2681C80.5547 62.9301 81.6313 62.9301 82.2932 62.2681L87.9522 56.6091C88.6141 55.9472 88.6141 54.8707 87.9522 54.2087L87.5158 53.7723C86.8539 53.1104 85.7774 53.1104 85.1154 53.7723L79.4564 59.4314C78.7945 60.0933 78.7945 61.1698 79.4564 61.8317Z" fill="#757575"/>
<path d="M73.3535 37.5081C73.3535 37.5081 31.5581 32.751 26.5392 32.751C22.3785 32.751 20 36.2497 20 36.2497C20 36.2497 43.8945 41.9669 51.5611 43.7926C59.2277 45.6184 63.2356 47.6114 63.2356 47.6114L73.3535 37.5081Z" fill="#039BE5"/>
<path opacity="0.2" d="M26.5392 34.4676C30.5834 34.4676 61.0898 37.8354 71.5714 39.0065L64.6031 46.0839C62.5519 45.2692 57.8166 43.5162 51.9612 42.1197C46.0112 40.7013 30.2925 36.9407 23.5496 35.3259C24.3497 34.8458 25.3608 34.4676 26.5392 34.4676ZM26.5392 32.751C22.3785 32.751 20 36.2497 20 36.2497C20 36.2497 43.8945 41.9669 51.5611 43.7926C59.2277 45.6184 65.0177 48.1133 65.0177 48.1133L75.2811 37.6972C75.2883 37.6899 31.5581 32.751 26.5392 32.751Z" fill="#424242"/>
<path d="M81.8787 46.0254C81.8787 46.0254 86.6358 87.8208 86.6358 92.8397C86.6358 97.0003 83.1371 99.3789 83.1371 99.3789C83.1371 99.3789 77.4199 75.4844 75.5941 67.8178C73.7684 60.1512 71.7754 56.1433 71.7754 56.1433L81.8787 46.0254Z" fill="#039BE5"/>
<path d="M48.9285 93.0219L47.1609 95.1677C46.5281 95.9314 45.3788 95.8368 44.8697 94.9713L38.4105 83.9878C38.0686 83.4059 38.1487 82.6494 38.5996 82.1548L44.4914 75.8047C45.3061 74.9246 46.7318 75.3974 46.9209 76.6121L49.2558 91.7999C49.3212 92.2436 49.2049 92.6873 48.9285 93.0219Z" fill="#039BE5"/>
<path opacity="0.2" d="M45.3055 77.4556L47.5459 91.996L46.1275 93.7199L39.9593 83.2238L45.3055 77.4556ZM45.5019 75.3535C45.1455 75.3535 44.7745 75.499 44.4909 75.8045L38.5991 82.1545C38.1408 82.6492 38.0608 83.4056 38.41 83.9875L44.8691 94.971C45.1455 95.4365 45.611 95.6839 46.0838 95.6839C46.4766 95.6839 46.8767 95.5166 47.1604 95.1674L48.9279 93.0216C49.2043 92.687 49.328 92.2361 49.2552 91.7996L46.9203 76.6119C46.7967 75.8263 46.1566 75.3535 45.5019 75.3535Z" fill="#424242"/>
<path d="M26.8519 70.757L24.7061 72.5245C23.9424 73.1574 24.037 74.3066 24.9025 74.8158L35.886 81.2749C36.4679 81.6168 37.2244 81.5368 37.719 81.0858L44.0691 75.194C44.9492 74.3794 44.4764 72.9537 43.2617 72.7646L28.0739 70.4297C27.6302 70.3569 27.1865 70.4806 26.8519 70.757Z" fill="#039BE5"/>
<path opacity="0.2" d="M27.8775 72.1384L42.4179 74.3787L36.6498 79.7323L26.1609 73.5568L27.8775 72.1384ZM27.8339 70.4072C27.4775 70.4072 27.1283 70.5309 26.8519 70.7564L24.7061 72.5239C23.9424 73.1567 24.037 74.306 24.9025 74.8152L35.886 81.2743C36.126 81.4198 36.4025 81.4853 36.6716 81.4853C37.0498 81.4853 37.4281 81.3471 37.719 81.0779L44.0691 75.1861C44.9492 74.3715 44.4764 72.9458 43.2617 72.7567L28.0739 70.4218C27.9939 70.4145 27.9139 70.4072 27.8339 70.4072Z" fill="#424242"/>
<path opacity="0.2" d="M80.2204 46.5205C81.4278 57.3148 84.912 88.7959 84.912 92.8402C84.912 94.0185 84.5338 95.0296 84.0537 95.8297C82.4389 89.0869 78.6783 73.3609 77.2599 67.4182C75.8343 61.4464 73.7685 56.2819 72.8375 54.1071L80.2204 46.5205ZM81.5224 42.709L70.8008 53.7361C70.8008 53.7361 73.7612 60.1516 75.5942 67.8182C77.42 75.4848 83.1372 99.3793 83.1372 99.3793C83.1372 99.3793 86.6359 96.9935 86.6359 92.8402C86.6359 87.8212 81.5224 42.709 81.5224 42.709Z" fill="#424242"/>
<path d="M97.9243 21.5928C95.3421 19.0106 89.7412 19.4907 85.5951 23.6368C81.3981 27.8338 43.1888 67.8835 43.1888 67.8835C43.1888 67.8835 36.6641 74.7572 38.2644 81.2527C44.7599 82.8603 51.6337 76.3284 51.6337 76.3284C51.6337 76.3284 91.7415 38.0608 95.8803 33.922C100.026 29.7759 100.506 24.1823 97.9243 21.5928Z" fill="url(#paint0_linear_155_1865)"/>
<path d="M95.3053 31.2601C96.6001 29.8199 97.1674 27.2595 94.7161 24.8082C92.2649 22.357 89.6972 22.9243 88.2643 24.2191C88.0533 24.4082 87.515 24.8082 87.6532 25.1428C87.7769 25.4556 88.3879 25.4993 88.657 25.5284C90.0463 25.6811 91.2902 26.3285 92.2358 27.2886C93.1886 28.2342 93.8433 29.4853 93.996 30.8673C94.0251 31.1365 94.0688 31.7475 94.3815 31.8711C94.7161 32.0093 95.1162 31.4711 95.3053 31.2601Z" fill="#4FC3F7"/>
<path opacity="0.2" d="M93.5969 21.4548C94.9716 21.4548 96.1427 21.8694 96.8992 22.6186C98.8413 24.5607 98.4849 29.2596 94.8552 32.8892C90.7746 36.9698 51.0377 74.8955 50.6377 75.2738C50.5868 75.3247 45.5242 80.0527 40.4034 80.0527C40.1052 80.0527 39.807 80.0381 39.516 80.0018C38.8977 74.6191 44.1858 68.9456 44.244 68.8874C44.6295 68.4873 82.4898 28.8013 86.6286 24.6698C88.6361 22.6549 91.2402 21.4548 93.5969 21.4548ZM93.5969 20C91.0438 20 88.0615 21.1711 85.6029 23.6369C81.4059 27.8339 43.1966 67.8836 43.1966 67.8836C43.1966 67.8836 36.6719 74.7573 38.2722 81.2529C38.985 81.4274 39.6979 81.5074 40.4107 81.5074C46.1934 81.5074 51.6415 76.3285 51.6415 76.3285C51.6415 76.3285 91.7493 38.0609 95.8881 33.9221C100.034 29.776 100.522 24.1824 97.9321 21.593C96.8774 20.5455 95.3353 20 93.5969 20Z" fill="#424242"/>
<path d="M44.3691 78.038C48.7776 73.6294 51.739 69.443 50.9834 68.6874C50.2278 67.9318 46.0414 70.8932 41.6328 75.3017C37.2242 79.7103 34.2629 83.8967 35.0185 84.6523C35.7741 85.4079 39.9605 82.4466 44.3691 78.038Z" fill="#616161"/>
<defs>
<linearGradient id="paint0_linear_155_1865" x1="53.9627" y1="67.2274" x2="95.4221" y2="23.7663" gradientUnits="userSpaceOnUse">
<stop offset="0.0062124" stop-color="#BDBDBD"/>
<stop offset="0.0936" stop-color="#C4C4C4"/>
<stop offset="0.4215" stop-color="#DBDBDB"/>
<stop offset="0.7308" stop-color="#E9E9E9"/>
<stop offset="1" stop-color="#EEEEEE"/>
</linearGradient>
</defs>
</svg>
