<svg width="120" height="120" viewBox="0 0 120 120" fill="none" xmlns="http://www.w3.org/2000/svg">
<path d="M89.2759 69.8193L98.6204 79.5479L57.5301 100.157C57.5301 100.157 52.1537 102.845 49.5936 98.621C39.353 81.98 89.2759 69.8193 89.2759 69.8193Z" fill="#256382"/>
<path d="M56.3788 87.9957C56.3788 87.9957 48.5704 90.9399 49.9785 96.4442C51.5146 102.205 57.7869 98.7483 57.7869 98.7483L96.8292 79.5472C96.8292 79.5472 94.6531 73.4029 98.6213 69.3066L56.3788 87.9957Z" fill="#D9E3E8"/>
<path d="M63.034 30.3926L100.412 68.9228L56.2496 87.2279L27.96 40.3772L63.034 30.3926Z" fill="#42ADE2"/>
<path d="M96.7003 73.531L70.5868 84.7956L96.1883 72.3789L96.7003 73.531ZM96.3163 76.8592L68.5387 89.0199L95.8043 75.7071L96.3163 76.8592ZM96.5723 78.7793L61.1143 95.0362L96.0603 77.6272L96.5723 78.7793Z" fill="#94989B"/>
<path d="M49.4662 98.4925C45.1139 88.8919 56.2506 87.2278 56.2506 87.2278L27.9609 40.3771C27.9609 40.3771 21.5605 40.2491 21.5605 47.2895C21.5605 50.2337 22.8406 52.4098 22.8406 52.4098L49.4662 98.4925Z" fill="#428BC1"/>
<path d="M30.1365 60.2188L20.792 69.9473L61.8824 90.5565C61.8824 90.5565 67.2587 93.2447 69.8188 89.0204C80.0594 72.3795 30.1365 60.2188 30.1365 60.2188Z" fill="#547725"/>
<path d="M62.9064 78.3951C62.9064 78.3951 70.7149 81.3393 69.3068 86.8436C67.7707 92.604 61.6264 89.1478 61.6264 89.1478L22.5841 69.9466C22.5841 69.9466 24.7602 63.8023 20.792 59.7061L62.9064 78.3951Z" fill="#D9E3E8"/>
<path d="M56.3782 20.792L19 59.3222L63.1626 77.6273L91.4522 30.7766L56.3782 20.792Z" fill="#83BF4F"/>
<path d="M23.096 62.7788L48.6975 75.1955L22.584 63.9309L23.096 62.7788ZM23.608 66.107L50.7456 79.4198L22.968 67.2591L23.608 66.107ZM23.352 68.0271L58.1701 85.4361L22.712 69.1792L23.352 68.0271Z" fill="#94989B"/>
<path d="M69.9475 88.8919C74.2997 79.2913 63.1631 77.6272 63.1631 77.6272L91.4527 30.7765C91.4527 30.7765 97.8531 30.6485 97.8531 37.6889C97.8531 40.6331 96.573 42.8092 96.573 42.8092L69.9475 88.8919Z" fill="#699635"/>
<path d="M91.58 52.2817L99.3885 60.4742L64.6985 77.7552C64.6985 77.7552 60.0902 79.9313 57.9141 76.4751C49.4656 62.5223 91.58 52.2817 91.58 52.2817Z" fill="#962C2C"/>
<path d="M63.8025 67.6434C63.8025 67.6434 57.1461 70.0755 58.4262 74.8118C59.7063 79.676 64.9546 76.7319 64.9546 76.7319L97.8525 60.4749C97.8525 60.4749 96.0604 55.3546 99.3886 51.8984L63.8025 67.6434Z" fill="#D9E3E8"/>
<path d="M69.435 19L100.925 51.5139L63.6747 67.0028L39.7373 27.4485L69.435 19Z" fill="#ED4C5C"/>
<path d="M70.3307 26.4243L76.475 33.2087L53.8177 41.7852L48.4414 33.0807L70.3307 26.4243Z" fill="white"/>
<path d="M97.8531 55.4821L75.8359 64.8267L97.3411 54.3301L97.8531 55.4821ZM97.5971 58.2983L74.0438 68.4109L97.0851 57.1462L97.5971 58.2983ZM97.8531 59.8344L67.8994 73.5312L97.2131 58.6823L97.8531 59.8344Z" fill="#94989B"/>
<path d="M58.0418 76.4753C54.4576 68.4108 63.8021 67.0028 63.8021 67.0028L39.7367 27.4485C39.7367 27.4485 34.2324 27.3205 34.2324 33.2088C34.2324 35.6409 35.2565 37.5611 35.2565 37.5611L58.0418 76.4753Z" fill="#C94747"/>
</svg>
