<svg width="120" height="120" viewBox="0 0 120 120" fill="none" xmlns="http://www.w3.org/2000/svg">
<path d="M59.5 101.742C38.575 101.742 16 88.6166 16 59.8166C16 31.0166 38.575 17.8916 59.5 17.8916C71.125 17.8916 81.85 21.7166 89.8 28.6916C98.425 36.3416 103 47.1416 103 59.8166C103 72.4916 98.425 83.2166 89.8 90.8666C81.85 97.8416 71.05 101.742 59.5 101.742Z" fill="url(#paint0_radial_155_1675)"/>
<path d="M95.4177 34.894C99.4152 41.344 101.5 49.024 101.5 57.5665C101.5 70.2415 96.9252 80.9665 88.3002 88.6165C80.3502 95.5915 69.5502 99.4915 58.0002 99.4915C44.4552 99.4915 30.2502 93.979 21.8652 82.2865C29.9352 95.5315 45.1152 101.742 59.5002 101.742C71.0502 101.742 81.8502 97.8415 89.8002 90.8665C98.4252 83.2165 103 72.4915 103 59.8165C103 50.2615 100.398 41.7715 95.4177 34.894Z" fill="#EB8F00"/>
<path d="M60.0998 75.1166C57.4148 75.1166 54.7523 74.6666 52.2248 73.7666C49.1123 72.6941 45.7298 74.3516 44.6573 77.4566C44.0498 79.2116 44.2973 81.1466 45.3248 82.6916C48.5498 87.6416 53.6498 90.3416 60.0998 90.3416C66.5498 90.3416 71.6498 87.6416 74.8748 82.6916C76.6973 79.9541 75.9473 76.2566 73.2098 74.4341C71.6648 73.4066 69.7298 73.1591 67.9748 73.7666C65.4473 74.6666 62.7848 75.1166 60.0998 75.1166Z" fill="#422B0D"/>
<path opacity="0.8" d="M37.4502 79.5415C44.6989 79.5415 50.5752 74.001 50.5752 67.1665C50.5752 60.332 44.6989 54.7915 37.4502 54.7915C30.2015 54.7915 24.3252 60.332 24.3252 67.1665C24.3252 74.001 30.2015 79.5415 37.4502 79.5415Z" fill="url(#paint1_radial_155_1675)"/>
<path opacity="0.8" d="M82.75 79.5415C89.9987 79.5415 95.875 74.001 95.875 67.1665C95.875 60.332 89.9987 54.7915 82.75 54.7915C75.5013 54.7915 69.625 60.332 69.625 67.1665C69.625 74.001 75.5013 79.5415 82.75 79.5415Z" fill="url(#paint2_radial_155_1675)"/>
<path d="M92.4919 38.4194C86.3344 36.6869 81.8119 41.7194 81.8119 41.7194C81.8119 41.7194 81.2869 36.0119 76.0219 34.2194C69.7069 32.0519 63.0394 35.5019 62.6419 44.4494C62.1919 54.6419 75.6769 68.0219 75.6769 68.0219C75.6769 68.0219 92.4169 63.5219 97.8994 53.9819C102.362 46.2194 97.1494 39.7244 92.4919 38.4194Z" fill="#F44336"/>
<path d="M92.4925 38.4192C91.735 38.2167 90.955 38.1267 90.175 38.1417C92.38 39.6192 94.1275 41.6817 95.215 44.0967C96.2725 46.6392 96.55 49.9242 94.54 53.8467C90.1825 62.3742 76.765 67.6542 75.79 68.0217C77.0125 67.6767 92.6575 63.1767 97.93 54.0042C102.363 46.2192 97.15 39.7242 92.4925 38.4192Z" fill="#C62828"/>
<path d="M81.8057 42.642C81.7607 41.862 81.6407 41.082 81.4607 40.317C81.0257 38.112 79.6607 36.1995 77.7107 35.067C76.3757 34.287 74.8982 33.792 73.3682 33.6045C73.3682 33.6045 75.6182 34.287 77.2232 37.3995C78.0407 39.0345 78.5282 40.8195 78.6482 42.642C78.6407 43.3095 78.7607 43.962 79.0007 44.5845C79.2707 45.207 79.9307 45.5745 80.6057 45.4695C81.6332 45.207 81.8582 43.9245 81.8057 42.642Z" fill="#C62828"/>
<path d="M67.2248 39.064C68.6273 37.324 70.9298 35.6665 73.1348 37.1965C74.3048 38.014 74.3198 40.3315 72.8873 41.374C70.4723 43.144 70.3598 44.3065 70.0898 45.2815C69.7598 46.444 69.5498 47.8315 68.4923 48.4165C67.4348 49.0015 66.5048 48.4165 65.9498 46.744C65.0048 44.134 65.4848 41.224 67.2248 39.064Z" fill="#FF847A"/>
<path d="M42.3406 34.0692C36.2581 36.0417 35.2831 42.7392 35.2831 42.7392C35.2831 42.7392 31.6831 38.2392 26.2831 39.6942C19.8406 41.3892 16.2031 47.9592 20.8006 55.6167C26.1256 64.3917 44.7556 68.0292 44.7556 68.0292C44.7556 68.0292 56.1931 55.0092 55.4731 44.0292C54.8806 35.0892 46.9381 32.5767 42.3406 34.0692Z" fill="#F44336"/>
<path d="M42.3399 34.0692C41.5974 34.3092 40.8849 34.6542 40.2324 35.0892C42.8874 35.0967 45.4824 35.8467 47.7324 37.2567C50.0274 38.7567 52.0749 41.3667 52.5849 45.7542C53.6874 55.2717 45.4374 67.0992 44.7999 67.9617C45.6324 67.0017 56.1549 54.5817 55.4649 44.0217C54.8799 35.0892 46.9374 32.5767 42.3399 34.0692Z" fill="#C62828"/>
<path d="M35.7998 43.5264C35.3348 42.8889 34.8098 42.3039 34.2248 41.7789C32.6498 40.1739 30.4673 39.3189 28.2248 39.4389C26.6873 39.5289 25.1798 39.9264 23.7998 40.6239C23.7998 40.6239 26.0498 39.9414 29.1098 41.6514C30.7073 42.5739 32.0948 43.8114 33.2048 45.2814C33.5648 45.8439 34.0298 46.3239 34.5773 46.7064C35.1473 47.0739 35.8973 47.0064 36.3998 46.5489C37.0673 45.7389 36.5498 44.5539 35.7998 43.5264Z" fill="#C62828"/>
<path d="M21.7006 48.6417C21.7306 48.0117 21.8431 47.3892 22.0306 46.7892C22.3381 45.5292 23.2306 44.4867 24.4231 43.9842C25.5706 43.6242 27.1606 43.8792 27.7756 45.0267C28.3231 46.0467 27.9256 47.2767 27.6256 48.4017C27.3556 49.6917 27.2056 51.0117 27.1756 52.3317C27.1831 53.4117 26.3206 54.2892 25.2406 54.3042C24.2206 54.3042 23.4256 53.4192 22.8556 52.5717C22.0606 51.4167 21.6556 50.0442 21.7006 48.6417Z" fill="#FF847A"/>
<defs>
<radialGradient id="paint0_radial_155_1675" cx="0" cy="0" r="1" gradientUnits="userSpaceOnUse" gradientTransform="translate(59.5 59.8166) scale(42.7198 42.7198)">
<stop offset="0.5" stop-color="#FDE030"/>
<stop offset="0.92" stop-color="#F7C02B"/>
<stop offset="1" stop-color="#F4A223"/>
</radialGradient>
<radialGradient id="paint1_radial_155_1675" cx="0" cy="0" r="1" gradientUnits="userSpaceOnUse" gradientTransform="translate(37.4502 61.4744) scale(14.3039 12.8443)">
<stop stop-color="#ED7770"/>
<stop offset="0.9" stop-color="#ED7770" stop-opacity="0"/>
</radialGradient>
<radialGradient id="paint2_radial_155_1675" cx="0" cy="0" r="1" gradientUnits="userSpaceOnUse" gradientTransform="translate(104.14 1908.33) scale(14.595 14.595)">
<stop stop-color="#ED7770"/>
<stop offset="0.9" stop-color="#ED7770" stop-opacity="0"/>
</radialGradient>
</defs>
</svg>
