<svg width="120" height="120" viewBox="0 0 120 120" fill="none" xmlns="http://www.w3.org/2000/svg">
<path d="M90.092 27.9209H28.7829C23.9503 27.9209 20 31.8712 20 36.7038V72.1185C20 76.7799 23.8121 80.5919 28.4735 80.5919C29.7771 80.5919 30.791 81.7441 30.6132 83.0346C29.9153 88.1305 27.1962 90.6258 26.9262 91.5673C26.5115 93.0289 33.385 94.0757 39.4159 88.2753C41.9441 85.8459 43.1555 83.4296 43.702 81.9746C44.018 81.1384 44.8212 80.5919 45.7166 80.5919H90.3027C95.1089 80.5919 99 76.6943 99 71.8946V36.8355C99.0066 31.9305 94.997 27.9209 90.092 27.9209Z" fill="url(#paint0_linear_155_1969)"/>
<path d="M38.8101 59.3853C41.719 59.3853 44.0772 57.0271 44.0772 54.1182C44.0772 51.2092 41.719 48.8511 38.8101 48.8511C35.9011 48.8511 33.543 51.2092 33.543 54.1182C33.543 57.0271 35.9011 59.3853 38.8101 59.3853Z" fill="#2196F3"/>
<path d="M59.8784 59.3853C62.7874 59.3853 65.1455 57.0271 65.1455 54.1182C65.1455 51.2092 62.7874 48.8511 59.8784 48.8511C56.9695 48.8511 54.6113 51.2092 54.6113 54.1182C54.6113 57.0271 56.9695 59.3853 59.8784 59.3853Z" fill="#2196F3"/>
<path d="M80.1968 59.3853C83.1057 59.3853 85.4639 57.0271 85.4639 54.1182C85.4639 51.2092 83.1057 48.8511 80.1968 48.8511C77.2879 48.8511 74.9297 51.2092 74.9297 54.1182C74.9297 57.0271 77.2879 59.3853 80.1968 59.3853Z" fill="#2196F3"/>
<g opacity="0.2">
<path d="M38.8101 50.1679C40.9893 50.1679 42.7604 51.9389 42.7604 54.1182C42.7604 56.2974 40.9893 58.0685 38.8101 58.0685C36.6308 58.0685 34.8597 56.2974 34.8597 54.1182C34.8597 51.9389 36.6308 50.1679 38.8101 50.1679ZM38.8101 48.8511C35.9 48.8511 33.543 51.2081 33.543 54.1182C33.543 57.0283 35.9 59.3853 38.8101 59.3853C41.7201 59.3853 44.0772 57.0283 44.0772 54.1182C44.0772 51.2081 41.7201 48.8511 38.8101 48.8511Z" fill="#424242"/>
<path d="M59.8784 50.1679C62.0577 50.1679 63.8288 51.9389 63.8288 54.1182C63.8288 56.2974 62.0577 58.0685 59.8784 58.0685C57.6992 58.0685 55.9281 56.2974 55.9281 54.1182C55.9281 51.9389 57.6992 50.1679 59.8784 50.1679ZM59.8784 48.8511C56.9684 48.8511 54.6113 51.2081 54.6113 54.1182C54.6113 57.0283 56.9684 59.3853 59.8784 59.3853C62.7885 59.3853 65.1455 57.0283 65.1455 54.1182C65.1455 51.2081 62.7885 48.8511 59.8784 48.8511Z" fill="#424242"/>
<path d="M80.1968 50.1679C82.3761 50.1679 84.1471 51.9389 84.1471 54.1182C84.1471 56.2974 82.3761 58.0685 80.1968 58.0685C78.0175 58.0685 76.2465 56.2974 76.2465 54.1182C76.2465 51.9389 78.0175 50.1679 80.1968 50.1679ZM80.1968 48.8511C77.2867 48.8511 74.9297 51.2081 74.9297 54.1182C74.9297 57.0283 77.2867 59.3853 80.1968 59.3853C83.1069 59.3853 85.4639 57.0283 85.4639 54.1182C85.4639 51.2081 83.1069 48.8511 80.1968 48.8511Z" fill="#424242"/>
</g>
<g opacity="0.2">
<path d="M90.092 29.8961C93.9172 29.8961 97.0314 33.0102 97.0314 36.8355V71.8946C97.0314 75.6014 94.016 78.6168 90.3093 78.6168H45.7232C44.018 78.6168 42.4642 79.69 41.8651 81.2832C41.3449 82.6527 40.2652 84.7332 38.053 86.8598C34.478 90.2966 30.9819 90.7114 29.7771 90.7443C30.7712 89.2102 32.1012 86.7874 32.5752 83.3111C32.7398 82.1326 32.3777 80.9409 31.5942 80.0455C30.8107 79.1435 29.6717 78.6234 28.4735 78.6234C24.8852 78.6234 21.9752 75.7067 21.9752 72.1251V36.7038C21.9752 32.951 25.0301 29.8961 28.7829 29.8961H90.092ZM90.092 27.9209H28.7829C23.9503 27.9209 20 31.8712 20 36.7038V72.1185C20 76.7799 23.8121 80.5919 28.4735 80.5919C29.7771 80.5919 30.791 81.7441 30.6132 83.0346C29.9153 88.1305 27.1962 90.6258 26.9262 91.5673C26.7551 92.173 27.848 92.7129 29.6125 92.7129C32.088 92.7129 35.8935 91.6594 39.4159 88.2753C41.9441 85.8459 43.1555 83.4296 43.702 81.9746C44.018 81.1384 44.8212 80.5919 45.7166 80.5919H90.3027C95.1089 80.5919 99 76.6943 99 71.8946V36.8355C99.0066 31.9305 94.997 27.9209 90.092 27.9209Z" fill="#424242"/>
</g>
<defs>
<linearGradient id="paint0_linear_155_1969" x1="59.5033" y1="31.8495" x2="59.5033" y2="85.2994" gradientUnits="userSpaceOnUse">
<stop offset="0.4391" stop-color="#FAFAFA"/>
<stop offset="0.8212" stop-color="#E0E0E0"/>
</linearGradient>
</defs>
</svg>
