<svg width="120" height="120" viewBox="0 0 120 120" fill="none" xmlns="http://www.w3.org/2000/svg">
<path d="M83.4895 76.0654C83.4895 76.0654 79.1752 80.0822 71.8111 79.5615C55.5953 78.3713 48.38 50.8491 42.7268 39.2451C40.8672 35.3771 36.4785 31.6579 34.0982 28.2362C32.4618 25.9303 32.2386 23.0293 32.2386 23.0293C32.2386 23.0293 17.1386 28.6081 15.3534 38.3525C13.8657 46.8323 17.4361 49.8821 19.3701 55.7584C20.7834 59.9984 27.4036 61.7092 31.1229 60.519C33.2056 59.8496 36.3298 60.891 45.4047 74.6521C54.2564 88.1157 56.7855 96.0004 70.3234 96.0004H101.639C104.02 96.0004 106.177 91.9093 103.425 89.9009C96.8787 84.9915 83.4895 76.0654 83.4895 76.0654Z" fill="#D11111"/>
<path d="M15.502 46.2358C16.3946 49.6575 18.1798 52.1866 19.3699 55.757C22.2709 64.3856 21.5271 95.9246 21.5271 95.9246H24.5769C24.5769 95.9246 23.833 62.8236 31.1227 60.5177C32.3128 60.1457 33.8005 60.2945 36.4784 62.9723C35.437 61.7822 34.3212 60.592 33.1311 59.4763C26.5109 53.1536 22.2709 48.6161 15.502 46.2358Z" fill="url(#paint0_linear_155_1860)"/>
<path d="M31.7853 23.2071C31.7853 23.2071 32.9011 22.5302 34.0987 23.6237C35.9732 25.342 43.6199 36.641 45.4051 43.1868C47.1903 49.7326 54.48 69.147 61.3978 71.676C68.2411 74.2051 78.5806 71.9736 83.7131 76.2879C88.8456 80.6022 72.1835 81.2716 65.117 78.5194C58.0505 75.7672 45.8514 58.8075 41.7603 49.0632C31.2721 24.3675 31.7853 23.2071 31.7853 23.2071Z" fill="#681717"/>
<defs>
<linearGradient id="paint0_linear_155_1860" x1="25.9902" y1="46.4791" x2="25.9902" y2="90.8179" gradientUnits="userSpaceOnUse">
<stop offset="0.0365" stop-color="#594E4B"/>
<stop offset="1" stop-color="#3D2921"/>
</linearGradient>
</defs>
</svg>
