<svg width="120" height="120" viewBox="0 0 120 120" fill="none" xmlns="http://www.w3.org/2000/svg">
<path d="M77.2526 16.4092C77.2598 16.4092 77.303 16.8985 77.4181 17.1648C80.7931 25.1595 67.7035 27.5774 63.1989 30.8587C56.4346 35.7808 56.2907 42.9984 56.7297 48.5033C56.9455 51.2522 61.2631 51.281 61.0472 48.5033C60.7522 44.747 61.8964 37.5078 64.8395 35.018C67.7539 32.5498 71.6613 31.5999 74.9643 29.7937C79.7568 27.16 83.801 22.166 81.7285 16.4092H77.2526Z" fill="#504F4F"/>
<path d="M99.6249 53.6626C97.2143 44.3582 83.8369 39.6088 74.7124 44.0847C68.6893 47.0423 66.1851 48.1793 59.4713 48.1793C52.7574 48.1793 50.3467 47.1143 44.3597 44.2359C35.1776 39.8247 21.8146 44.6676 19.5119 54.008C16.8638 64.7301 16.4248 78.5104 16.4248 91.2905C16.4248 102.747 28.4925 106.942 36.6599 97.3855C41.7619 91.4128 50.8505 88.9878 59.1834 88.9878C67.5164 88.9878 77.2598 91.2401 82.5704 97.3855C90.8242 106.942 103 102.747 103 91.2905C102.993 78.2873 102.41 64.399 99.6249 53.6626Z" fill="url(#paint0_linear_155_1691)"/>
<path d="M47.9572 88.909C52.6587 88.909 56.4701 85.0977 56.4701 80.3962C56.4701 75.6946 52.6587 71.8833 47.9572 71.8833C43.2557 71.8833 39.4443 75.6946 39.4443 80.3962C39.4443 85.0977 43.2557 88.909 47.9572 88.909Z" fill="#424242"/>
<path d="M47.9578 86.9302C51.5664 86.9302 54.4918 84.0049 54.4918 80.3963C54.4918 76.7877 51.5664 73.8623 47.9578 73.8623C44.3492 73.8623 41.4238 76.7877 41.4238 80.3963C41.4238 84.0049 44.3492 86.9302 47.9578 86.9302Z" fill="#757575"/>
<path d="M70.9845 88.909C75.6861 88.909 79.4974 85.0977 79.4974 80.3962C79.4974 75.6946 75.6861 71.8833 70.9845 71.8833C66.283 71.8833 62.4717 75.6946 62.4717 80.3962C62.4717 85.0977 66.283 88.909 70.9845 88.909Z" fill="#424242"/>
<path d="M70.9851 86.9302C74.5937 86.9302 77.5191 84.0049 77.5191 80.3963C77.5191 76.7877 74.5937 73.8623 70.9851 73.8623C67.3765 73.8623 64.4512 76.7877 64.4512 80.3963C64.4512 84.0049 67.3765 86.9302 70.9851 86.9302Z" fill="#757575"/>
<path d="M36.2064 74.8768C44.1549 74.8768 50.5984 68.4332 50.5984 60.4848C50.5984 52.5363 44.1549 46.0928 36.2064 46.0928C28.258 46.0928 21.8145 52.5363 21.8145 60.4848C21.8145 68.4332 28.258 74.8768 36.2064 74.8768Z" fill="#757575"/>
<path d="M36.207 71.9984C42.5657 71.9984 47.7206 66.8436 47.7206 60.4848C47.7206 54.126 42.5657 48.9712 36.207 48.9712C29.8482 48.9712 24.6934 54.126 24.6934 60.4848C24.6934 66.8436 29.8482 71.9984 36.207 71.9984Z" fill="#424242"/>
<path opacity="0.2" d="M36.207 50.4104C41.7623 50.4104 46.2814 54.9295 46.2814 60.4848C46.2814 66.0401 41.7623 70.5592 36.207 70.5592C30.6516 70.5592 26.1326 66.0401 26.1326 60.4848C26.1326 54.9295 30.6516 50.4104 36.207 50.4104ZM36.207 48.9712C29.8457 48.9712 24.6934 54.1235 24.6934 60.4848C24.6934 66.846 29.8457 71.9984 36.207 71.9984C42.5682 71.9984 47.7206 66.846 47.7206 60.4848C47.7206 54.1235 42.5682 48.9712 36.207 48.9712Z" fill="#EEEEEE"/>
<path d="M43.2291 57.4262H39.2641V53.4756C39.2641 51.6694 37.8321 50.187 36.0259 50.187C34.2197 50.187 32.7877 51.6694 32.7877 53.4756V57.4262H29.1753C27.3691 57.4262 25.8867 58.8582 25.8867 60.6644C25.8867 62.4706 27.3691 63.9026 29.1753 63.9026H32.7877V67.5294C32.7877 69.3356 34.2197 70.8179 36.0259 70.8179C37.8321 70.8179 39.2641 69.3356 39.2641 67.5294V63.9026H43.2291C45.0353 63.9026 46.5176 62.4706 46.5176 60.6644C46.5176 58.8582 45.0353 57.4262 43.2291 57.4262Z" fill="#9E9E9E"/>
<path opacity="0.2" d="M36.0259 50.9066C37.4507 50.9066 38.5445 52.0868 38.5445 53.4756V57.3254C38.5445 57.7212 38.9618 58.1458 39.3648 58.1458H43.2291C44.6251 58.1458 45.798 59.2396 45.798 60.6644C45.798 62.0892 44.6179 63.183 43.2291 63.183H39.3648C38.9618 63.183 38.5445 63.6147 38.5445 64.0105V67.5294C38.5445 68.9254 37.4507 70.0983 36.0259 70.0983C34.6011 70.0983 33.5073 68.9182 33.5073 67.5294V64.0105C33.5073 63.6147 33.0755 63.183 32.6797 63.183H29.1753C27.7793 63.183 26.6063 62.0892 26.6063 60.6644C26.6063 59.2396 27.7865 58.1458 29.1753 58.1458H32.6797C33.0755 58.1458 33.5073 57.7284 33.5073 57.3254V53.4756C33.5073 52.0868 34.6011 50.9066 36.0259 50.9066ZM36.0259 50.187C34.2197 50.187 32.7877 51.6694 32.7877 53.4756V57.4262H29.1753C27.3691 57.4262 25.8867 58.8582 25.8867 60.6644C25.8867 62.4706 27.3691 63.9026 29.1753 63.9026H32.7877V67.5294C32.7877 69.3356 34.2197 70.8179 36.0259 70.8179C37.8321 70.8179 39.2641 69.3356 39.2641 67.5294V63.9026H43.2291C45.0353 63.9026 46.5176 62.4706 46.5176 60.6644C46.5176 58.8582 45.0353 57.4262 43.2291 57.4262H39.2641V53.4756C39.2641 51.6694 37.8321 50.187 36.0259 50.187Z" fill="#424242"/>
<path d="M83.3615 56.3037C85.7461 56.3037 87.6791 54.3706 87.6791 51.9861C87.6791 49.6015 85.7461 47.6685 83.3615 47.6685C80.977 47.6685 79.0439 49.6015 79.0439 51.9861C79.0439 54.3706 80.977 56.3037 83.3615 56.3037Z" fill="#FFD54F"/>
<path d="M83.3615 74.5605C85.7461 74.5605 87.6791 72.6274 87.6791 70.2429C87.6791 67.8583 85.7461 65.9253 83.3615 65.9253C80.977 65.9253 79.0439 67.8583 79.0439 70.2429C79.0439 72.6274 80.977 74.5605 83.3615 74.5605Z" fill="#4CAF50"/>
<path d="M74.5901 65.4287C76.9746 65.4287 78.9077 63.4956 78.9077 61.1111C78.9077 58.7265 76.9746 56.7935 74.5901 56.7935C72.2055 56.7935 70.2725 58.7265 70.2725 61.1111C70.2725 63.4956 72.2055 65.4287 74.5901 65.4287Z" fill="#2196F3"/>
<path d="M92.134 65.4287C94.5185 65.4287 96.4516 63.4956 96.4516 61.1111C96.4516 58.7265 94.5185 56.7935 92.134 56.7935C89.7495 56.7935 87.8164 58.7265 87.8164 61.1111C87.8164 63.4956 89.7495 65.4287 92.134 65.4287Z" fill="#F44336"/>
<g opacity="0.2">
<path d="M83.3615 49.1077C84.9519 49.1077 86.2399 50.3957 86.2399 51.9861C86.2399 53.5764 84.9519 54.8645 83.3615 54.8645C81.7712 54.8645 80.4831 53.5764 80.4831 51.9861C80.4831 50.3957 81.7784 49.1077 83.3615 49.1077ZM83.3615 47.6685C80.9797 47.6685 79.0439 49.6042 79.0439 51.9861C79.0439 54.3679 80.9797 56.3037 83.3615 56.3037C85.7434 56.3037 87.6791 54.3679 87.6791 51.9861C87.6791 49.6042 85.7434 47.6685 83.3615 47.6685Z" fill="#424242"/>
<path d="M83.3615 67.364C84.9519 67.364 86.2399 68.6521 86.2399 70.2424C86.2399 71.8327 84.9519 73.1208 83.3615 73.1208C81.7712 73.1208 80.4831 71.8327 80.4831 70.2424C80.4831 68.6521 81.7784 67.364 83.3615 67.364ZM83.3615 65.9248C80.9797 65.9248 79.0439 67.8605 79.0439 70.2424C79.0439 72.6243 80.9797 74.56 83.3615 74.56C85.7434 74.56 87.6791 72.6243 87.6791 70.2424C87.6791 67.8605 85.7434 65.9248 83.3615 65.9248Z" fill="#424242"/>
<path d="M74.5901 58.2322C76.1804 58.2322 77.4685 59.5203 77.4685 61.1106C77.4685 62.7009 76.1804 63.989 74.5901 63.989C72.9997 63.989 71.7117 62.7009 71.7117 61.1106C71.7117 59.5203 73.0069 58.2322 74.5901 58.2322ZM74.5901 56.793C72.2082 56.793 70.2725 58.7287 70.2725 61.1106C70.2725 63.4924 72.2082 65.4282 74.5901 65.4282C76.9719 65.4282 78.9077 63.4924 78.9077 61.1106C78.9077 58.7287 76.9791 56.793 74.5901 56.793Z" fill="#424242"/>
<path d="M92.134 58.2322C93.7243 58.2322 95.0124 59.5203 95.0124 61.1106C95.0124 62.7009 93.7243 63.989 92.134 63.989C90.5437 63.989 89.2556 62.7009 89.2556 61.1106C89.2556 59.5203 90.5437 58.2322 92.134 58.2322ZM92.134 56.793C89.7521 56.793 87.8164 58.7287 87.8164 61.1106C87.8164 63.4924 89.7521 65.4282 92.134 65.4282C94.5159 65.4282 96.4516 63.4924 96.4516 61.1106C96.4516 58.7287 94.5159 56.793 92.134 56.793Z" fill="#424242"/>
</g>
<path opacity="0.2" d="M47.9578 75.2942C50.7714 75.2942 53.0526 77.5825 53.0526 80.3889C53.0526 83.2026 50.7642 85.4837 47.9578 85.4837C45.1442 85.4837 42.863 83.1954 42.863 80.3889C42.863 77.5825 45.1514 75.2942 47.9578 75.2942ZM47.9578 73.855C44.3454 73.855 41.4238 76.7838 41.4238 80.3889C41.4238 84.0013 44.3526 86.9229 47.9578 86.9229C51.5702 86.9229 54.4918 83.9941 54.4918 80.3889C54.499 76.7838 51.5702 73.855 47.9578 73.855Z" fill="#424242"/>
<path opacity="0.2" d="M70.9851 75.2942C73.7988 75.2942 76.0799 77.5825 76.0799 80.3889C76.0799 83.2026 73.7916 85.4837 70.9851 85.4837C68.1787 85.4837 65.8904 83.2026 65.8904 80.3961C65.8904 77.5825 68.1787 75.2942 70.9851 75.2942ZM70.9851 73.855C67.3727 73.855 64.4512 76.7838 64.4512 80.3889C64.4512 84.0013 67.3799 86.9229 70.9851 86.9229C74.5903 86.9229 77.5191 83.9941 77.5191 80.3889C77.5263 76.7838 74.5975 73.855 70.9851 73.855Z" fill="#424242"/>
<defs>
<linearGradient id="paint0_linear_155_1691" x1="59.7123" y1="39.6578" x2="59.7123" y2="97.1264" gradientUnits="userSpaceOnUse">
<stop offset="0.2493" stop-color="#757575"/>
<stop offset="0.8025" stop-color="#444444"/>
</linearGradient>
</defs>
</svg>
