<svg width="120" height="120" viewBox="0 0 120 120" fill="none" xmlns="http://www.w3.org/2000/svg">
<path d="M85.3639 70.4227C84.4049 68.6764 85.4569 66.9087 87.2748 64.7402C90.1375 61.3264 92.9716 53.5683 89.5578 45.9033C89.5721 45.8604 88.9065 44.5936 88.9208 44.5507L87.697 44.4863C87.3034 44.429 73.9129 44.4004 60.5153 44.4004C47.1176 44.4004 33.7272 44.429 33.3335 44.4863C33.3335 44.4863 31.4584 45.8604 31.4727 45.9033C28.0589 53.5683 30.9002 61.3264 33.7558 64.7402C35.5736 66.9087 36.6257 68.6764 35.6667 70.4227C34.7291 72.1332 32.1455 72.3837 32.1455 72.3837C32.1455 72.3837 32.6536 74.1443 34.0492 75.0961C35.3446 75.9764 36.9692 76.1911 38.1 76.2198C38.1 76.2198 42.3154 82.9973 54.0097 82.9973H60.5224H67.028C78.7223 82.9973 82.9377 76.2198 82.9377 76.2198C84.0685 76.1911 85.6931 75.9836 86.9885 75.0961C88.3769 74.1443 88.8922 72.3837 88.8922 72.3837C88.8922 72.3837 86.3014 72.1261 85.3639 70.4227Z" fill="#543930"/>
<path d="M60.5078 82.9828V75.4753L80.9693 73.7075L82.9302 76.2124C82.9302 76.2124 78.7149 82.99 67.0205 82.99L60.5078 82.9828Z" fill="url(#paint0_radial_155_1608)"/>
<path d="M82.7503 72.9845C79.5226 67.9747 86.1713 66.1211 86.1713 66.1211L86.1785 66.1282C85.0763 67.6884 84.6039 69.0626 85.3483 70.4224C86.2858 72.1328 88.8694 72.3833 88.8694 72.3833C88.8694 72.3833 85.52 75.7828 82.7503 72.9845Z" fill="url(#paint1_radial_155_1608)"/>
<path d="M89.5715 45.9031C92.8923 53.3248 90.2156 61.1687 87.4459 64.5468C87.0595 65.012 85.4206 66.8298 85.0913 68.2898C85.0913 68.2898 78.0132 58.2845 75.8661 52.559C75.4367 51.4139 75.0503 50.2474 74.9715 49.045C74.9143 48.1432 75.0216 47.084 75.494 46.3254C76.0737 45.395 89.1922 45.123 89.1922 45.123C89.1851 45.1302 89.5715 45.9031 89.5715 45.9031Z" fill="url(#paint2_radial_155_1608)"/>
<path d="M31.4718 45.9031C28.151 53.3248 30.8277 61.1687 33.6045 64.5468C33.991 65.012 35.6299 66.8298 35.9591 68.2898C35.9591 68.2898 43.0373 58.2845 45.1843 52.559C45.6137 51.4139 46.0002 50.2474 46.0789 49.045C46.1362 48.1432 46.0288 47.084 45.5565 46.3254C44.9768 45.395 44.2611 45.6455 43.2305 45.6455C41.2695 45.6455 32.7028 45.123 32.0372 45.123C32.0372 45.1302 31.4718 45.9031 31.4718 45.9031Z" fill="url(#paint3_radial_155_1608)"/>
<path d="M60.5367 82.9828V75.4753L40.0752 73.7075L38.1143 76.2124C38.1143 76.2124 42.3296 82.99 54.0239 82.99L60.5367 82.9828Z" fill="url(#paint4_radial_155_1608)"/>
<path d="M38.292 72.9845C41.5197 67.9747 34.871 66.1211 34.871 66.1211L34.8638 66.1282C35.966 67.6884 36.4383 69.0626 35.694 70.4224C34.7565 72.1328 32.1729 72.3833 32.1729 72.3833C32.1729 72.3833 35.5294 75.7828 38.292 72.9845Z" fill="url(#paint5_radial_155_1608)"/>
<path d="M60.6157 83.1328C60.5799 83.1328 60.5512 83.1328 60.5155 83.1328C42.1581 83.1543 23.2998 88.2142 23.2998 101.018V103.172H24.3733H25.4469H95.5841H96.6576H97.7311V101.018C97.7311 88.9442 79.0517 83.1328 60.6157 83.1328Z" fill="url(#paint6_linear_155_1608)"/>
<path d="M69.3313 90.4832C69.3313 90.4832 74.2552 90.9055 79.2364 92.437C88.5403 95.2998 91.3387 90.3902 91.3387 90.3902C91.3387 90.3902 81.1616 83.72 68.2793 83.627C68.2793 83.627 67.4276 89.9608 69.3313 90.4832Z" fill="#283593"/>
<path d="M29.4463 90.29C29.4463 90.29 32.309 95.2998 41.6129 92.437C46.5941 90.9055 51.518 90.4832 51.518 90.4832C53.4218 89.9608 52.5701 83.627 52.5701 83.627C39.6878 83.7128 29.4463 90.29 29.4463 90.29Z" fill="#283593"/>
<path d="M47.4523 100.102H39.637C38.7782 100.102 38.084 99.408 38.084 98.5491C38.084 97.6903 38.7782 96.9961 39.637 96.9961H47.4523C48.3111 96.9961 49.0053 97.6903 49.0053 98.5491C49.0053 99.408 48.3111 100.102 47.4523 100.102Z" fill="#E0E0E0"/>
<path d="M96.2126 95.4214L92.6342 95.4786L90.9595 98.5489L94.4162 103.172H97.9875C98.1736 97.8905 96.2126 95.4214 96.2126 95.4214Z" fill="url(#paint7_linear_155_1608)"/>
<path d="M28.3658 95.4786L24.7874 95.4214C24.7874 95.4214 22.8264 97.8977 23.0125 103.172H26.5837L30.0405 98.5489L28.3658 95.4786Z" fill="url(#paint8_linear_155_1608)"/>
<path d="M92.9569 96.0082L96.2204 95.951C96.5138 95.9438 96.75 95.7005 96.75 95.407C96.75 95.1136 96.521 94.8989 96.2061 94.8774L92.3127 94.9419L90.1514 98.9139L93.1787 103.172H94.4956L91.411 98.8423L92.9569 96.0082Z" fill="#BDBDBD"/>
<path d="M94.7525 97.9404L97.1715 97.8402C97.3719 97.833 97.5222 97.6684 97.515 97.468C97.5078 97.2676 97.3361 97.1317 97.1428 97.1245L94.3731 97.239L93.2495 98.8708L96.0765 103.172H96.9353L94.1155 98.8851L94.7525 97.9404Z" fill="#BDBDBD"/>
<path d="M28.6874 94.9492L24.7941 94.8848C24.7869 94.8848 24.7869 94.8848 24.7869 94.8848C24.4935 94.8848 24.2573 95.1209 24.2502 95.4144C24.243 95.7078 24.4792 95.9583 24.7798 95.9583L28.0504 96.0156L29.5892 98.8497L26.4974 103.172H27.8143L30.8416 98.9141L28.6874 94.9492Z" fill="#BDBDBD"/>
<path d="M26.6268 97.239L23.8499 97.1245C23.6495 97.1317 23.4849 97.2676 23.4778 97.468C23.4706 97.6684 23.6209 97.833 23.8213 97.8402L26.2403 97.9404L26.8916 98.8779L24.0718 103.172H24.9306L27.7576 98.8708L26.6268 97.239Z" fill="#BDBDBD"/>
<path d="M60.5065 101.698L67.1767 89.4741H52.9346L60.5065 101.698Z" fill="#212121"/>
<path d="M54.0156 76.0337V86.039C54.0156 89.2667 56.6637 91.8861 59.9272 91.8861H61.1081C64.3716 91.8861 67.0196 89.2667 67.0196 86.039V76.0337H60.5141H54.0156Z" fill="#E59600"/>
<path d="M48.4188 83.9774L42.6934 95.5859L50.4729 93.2527L60.5068 101.698L53.9869 83.3262L48.4188 83.9774Z" fill="#3674CE"/>
<path d="M67.0414 83.3262L60.5215 101.698L71.1136 93.3672L78.3349 95.5859L72.6094 83.9774L67.0414 83.3262Z" fill="#3674CE"/>
<path d="M80.0744 50.5195H74.7998H46.2296H40.955C36.7396 50.5195 33.29 54.1982 33.29 58.6855C33.29 63.1729 36.7396 66.8515 40.955 66.8515H46.2296H74.7927H80.0673C84.2826 66.8515 87.7323 63.1729 87.7323 58.6855C87.7323 54.1982 84.2898 50.5195 80.0744 50.5195Z" fill="#E59600"/>
<path d="M60.5132 22.3496C48.0603 22.3496 36.5234 35.6685 36.5234 54.8417C36.5234 73.9076 48.411 83.3332 60.5132 83.3332C72.6155 83.3332 84.503 73.9005 84.503 54.8346C84.503 35.6685 72.9662 22.3496 60.5132 22.3496Z" fill="#FFCA28"/>
<path d="M66.5404 68.9196C64.2646 70.2722 56.7856 70.2722 54.5098 68.9196C53.2001 68.1395 51.8617 69.3347 52.4056 70.5227C52.9424 71.6893 57.0147 74.4017 60.543 74.4017C64.0713 74.4017 68.0935 71.6893 68.6302 70.5227C69.167 69.3347 67.8501 68.1395 66.5404 68.9196Z" fill="#795548"/>
<path d="M63.2764 63.1373C63.1977 63.1087 63.1261 63.0872 63.0474 63.0801H57.9804C57.9016 63.0872 57.8229 63.1087 57.7513 63.1373C57.2933 63.3234 57.0428 63.7958 57.2575 64.3039C57.4722 64.812 58.4813 66.2291 60.5139 66.2291C62.5464 66.2291 63.5556 64.8049 63.7703 64.3039C63.985 63.7958 63.7345 63.3234 63.2764 63.1373Z" fill="#E59600"/>
<path d="M48.7485 60.1667C50.6972 60.1667 52.2769 58.5325 52.2769 56.5167C52.2769 54.5009 50.6972 52.8667 48.7485 52.8667C46.7999 52.8667 45.2202 54.5009 45.2202 56.5167C45.2202 58.5325 46.7999 60.1667 48.7485 60.1667Z" fill="#404040"/>
<path d="M72.2793 60.1667C74.228 60.1667 75.8076 58.5325 75.8076 56.5167C75.8076 54.5009 74.228 52.8667 72.2793 52.8667C70.3307 52.8667 68.751 54.5009 68.751 56.5167C68.751 58.5325 70.3307 60.1667 72.2793 60.1667Z" fill="#404040"/>
<path d="M53.9302 50.0829C53.2646 49.2026 51.733 47.9287 48.7558 47.9287C45.7785 47.9287 44.2398 49.2098 43.5814 50.0829C43.2879 50.4694 43.3595 50.9203 43.5671 51.1922C43.7531 51.4427 44.3114 51.6789 44.9269 51.4714C45.5424 51.2638 46.7447 50.6412 48.7558 50.6268C50.7669 50.6412 51.9692 51.2638 52.5847 51.4714C53.2002 51.6789 53.7584 51.4499 53.9445 51.1922C54.1449 50.9203 54.2236 50.4694 53.9302 50.0829Z" fill="#6D4C41"/>
<path d="M77.4546 50.0829C76.789 49.2026 75.2575 47.9287 72.2802 47.9287C69.3029 47.9287 67.7642 49.2098 67.1058 50.0829C66.8124 50.4694 66.8839 50.9203 67.0915 51.1922C67.2776 51.4427 67.8358 51.6789 68.4513 51.4714C69.0668 51.2638 70.2691 50.6412 72.2802 50.6268C74.2913 50.6412 75.4936 51.2638 76.1091 51.4714C76.7246 51.6789 77.2828 51.4499 77.4689 51.1922C77.6693 50.9203 77.748 50.4694 77.4546 50.0829Z" fill="#6D4C41"/>
<path d="M87.1021 31.0813C85.3701 28.6194 81.6271 25.3558 78.3994 25.1411C77.7839 22.0637 74.4201 19.4944 71.221 18.4996C62.64 15.8372 57.0648 18.8216 54.0446 20.4462C53.4148 20.7826 49.3282 23.0084 46.5299 21.4124C44.7836 20.4176 39.3015 19.8093 40.9762 25.6851C39.051 25.7638 36.4888 26.5797 35.0217 29.2993C33.2539 32.5771 33.6905 35.3468 34.0913 36.6852C32.3235 38.1523 30.019 41.3013 31.2715 45.438C32.2233 48.5942 36.6391 50.0613 36.6391 50.0613C36.0737 55.8727 36.1882 59.5084 36.682 60.9898C36.7679 61.2475 37.1186 61.226 37.1902 60.9541C37.9989 58.0126 41.4557 47.9787 41.2911 46.2682C41.2911 46.2682 49.0634 44.6794 56.4636 39.1256C57.9522 38.0092 59.5554 37.0645 61.2587 36.3702C70.2978 32.6988 72.3303 38.9897 72.3303 38.9897C72.3303 38.9897 78.6284 37.7444 80.8756 46.8765C81.7345 50.3762 83.3018 56.0731 83.8815 60.131C83.9245 60.4173 84.2895 60.4817 84.3896 60.2169C84.9908 58.5994 85.3272 55.4218 85.5061 52.2084C85.5634 51.0919 88.3689 49.6176 89.3565 44.8798C90.6519 38.6962 88.3689 32.8777 87.1021 31.0813Z" fill="#543930"/>
<path d="M85.4917 52.237C85.549 51.1205 88.3545 49.6462 89.3421 44.9084C89.4423 44.4074 89.5282 43.9064 89.6069 43.3911C90.2868 37.7801 88.2686 32.7274 87.1092 31.0742C85.506 28.7983 82.1853 25.8353 79.1436 25.2413C78.8788 25.2055 78.6211 25.1769 78.3778 25.1626C78.3778 25.1626 78.6426 26.5725 78.1058 27.7033C77.4116 29.1776 75.9087 29.5283 75.9087 29.5283C84.182 37.6298 83.9029 44.5935 85.4917 52.237Z" fill="url(#paint9_radial_155_1608)"/>
<path d="M70.3336 18.2416C75.1072 19.5083 77.5048 21.9059 78.3922 25.1479C78.6571 26.1069 79.2439 35.2105 61.8313 24.8903C55.5261 21.1472 57.258 18.8356 57.9952 18.5708C60.8579 17.5473 65.0089 16.8317 70.3336 18.2416Z" fill="url(#paint10_radial_155_1608)"/>
<path d="M44.1253 26.1859L40.9835 25.6777C40.8618 25.6777 40.4396 25.7135 40.2105 25.7493C38.4213 25.9998 36.2814 26.9159 35.029 29.2919C33.6692 31.8684 33.5976 34.1085 33.8552 35.6043C33.9268 36.1124 34.0986 36.6778 34.0986 36.6778C34.0986 36.6778 35.7661 35.1391 39.5593 35.0389L44.1253 26.1859Z" fill="url(#paint11_radial_155_1608)"/>
<path d="M33.9407 36.8141C32.2731 38.2598 29.9472 41.5019 31.3284 45.5813C32.3805 48.6945 36.6531 50.0615 36.6531 50.0615C36.6531 50.0758 37.512 50.3477 37.9557 50.3477L39.566 35.0464C37.5406 35.0464 35.5725 35.6619 34.2699 36.5565C34.2699 36.578 33.9335 36.7927 33.9407 36.8141Z" fill="url(#paint12_radial_155_1608)"/>
<path d="M60.3642 31.7612C36.3172 31.7612 32.4668 39.8914 32.4668 39.8914C32.4668 39.8914 39.8813 46.9839 60.3642 47.1198C80.8543 46.9839 88.641 39.4405 88.641 39.4405C88.641 39.4405 84.4113 31.7612 60.3642 31.7612Z" fill="url(#paint13_linear_155_1608)"/>
<path d="M28.9956 39.1185C30.2194 43.5485 31.3932 45.4236 31.3932 45.4236C32.6313 43.9923 40.01 37.3292 60.4643 37.3292H60.5502H60.5788C81.0331 37.3292 88.0755 44.0281 89.3208 45.4594C89.3208 45.4594 90.8022 43.4555 92.0261 39.0254C94.8673 28.7768 80.8041 17.29 60.5574 17.29C40.3536 17.29 26.1687 28.8841 28.9956 39.1185Z" fill="url(#paint14_linear_155_1608)"/>
<path d="M86.3073 39.9128C86.157 39.1113 85.7133 38.4027 85.062 37.9018C82.3567 35.8263 74.2623 30.6733 60.557 30.6733C46.4937 30.6733 38.6212 35.8191 36.0089 37.9018C35.3863 38.3956 34.964 39.097 34.8137 39.8699L34.8066 39.9128C34.6277 40.8575 34.871 41.745 35.372 42.4464C39.5444 40.0918 47.2953 37.3292 60.4639 37.3292H60.5498C60.5498 37.3292 60.5498 37.3292 60.5784 37.3292C73.9617 37.3292 81.6053 40.1991 85.6346 42.5824C86.2143 41.8738 86.5006 40.922 86.3073 39.9128Z" fill="#3B78E7"/>
<path d="M65.7238 23.8742C65.5377 23.8742 65.366 23.96 65.2658 24.1103C64.8721 24.7115 64.2924 25.1123 63.269 25.1123C62.2742 25.1123 61.5513 24.1962 61.1148 23.6308C60.9788 23.4519 60.7641 23.3374 60.5279 23.3374C60.2917 23.3374 60.077 23.4519 59.9411 23.6308C59.5116 24.1962 58.8246 25.1123 57.8298 25.1123C56.8064 25.1123 56.2266 24.7044 55.833 24.1103C55.7328 23.96 55.5611 23.8742 55.375 23.8742C55.2032 23.8742 55.0386 23.9529 54.9384 24.0817L54.7166 24.368C54.4517 24.7115 54.4088 25.1696 54.6092 25.5489C54.9098 26.1214 55.0672 26.7512 55.0672 27.3882V29.8788C55.0672 31.6966 58.0302 35.4039 60.5422 35.4039C63.0543 35.4039 66.0172 31.6966 66.0172 29.8788V27.3882C66.0172 26.7512 66.1747 26.1214 66.4753 25.5489C66.6757 25.1696 66.6327 24.7115 66.3679 24.368L66.1461 24.0817C66.0602 23.9529 65.8956 23.8742 65.7238 23.8742Z" fill="#FFCC00"/>
<defs>
<radialGradient id="paint0_radial_155_1608" cx="0" cy="0" r="1" gradientUnits="userSpaceOnUse" gradientTransform="translate(71.0021 72.1733) scale(17.6632 8.67616)">
<stop offset="0.7275" stop-color="#6D4C41" stop-opacity="0"/>
<stop offset="1" stop-color="#6D4C41"/>
</radialGradient>
<radialGradient id="paint1_radial_155_1608" cx="0" cy="0" r="1" gradientUnits="userSpaceOnUse" gradientTransform="translate(87.3983 69.5386) rotate(154.924) scale(5.12248 3.80015)">
<stop offset="0.6628" stop-color="#6D4C41"/>
<stop offset="1" stop-color="#6D4C41" stop-opacity="0"/>
</radialGradient>
<radialGradient id="paint2_radial_155_1608" cx="0" cy="0" r="1" gradientUnits="userSpaceOnUse" gradientTransform="translate(74.0106 55.0774) rotate(-94.2783) scale(22.3272 18.6083)">
<stop offset="0.7247" stop-color="#6D4C41" stop-opacity="0"/>
<stop offset="1" stop-color="#6D4C41"/>
</radialGradient>
<radialGradient id="paint3_radial_155_1608" cx="0" cy="0" r="1" gradientUnits="userSpaceOnUse" gradientTransform="translate(47.0343 55.0769) rotate(-85.7217) scale(22.3272 18.6082)">
<stop offset="0.7247" stop-color="#6D4C41" stop-opacity="0"/>
<stop offset="1" stop-color="#6D4C41"/>
</radialGradient>
<radialGradient id="paint4_radial_155_1608" cx="0" cy="0" r="1" gradientUnits="userSpaceOnUse" gradientTransform="translate(50.0441 72.1733) rotate(180) scale(17.6633 8.6762)">
<stop offset="0.7275" stop-color="#6D4C41" stop-opacity="0"/>
<stop offset="1" stop-color="#6D4C41"/>
</radialGradient>
<radialGradient id="paint5_radial_155_1608" cx="0" cy="0" r="1" gradientUnits="userSpaceOnUse" gradientTransform="translate(33.6471 69.5392) rotate(25.0761) scale(5.12248 3.80015)">
<stop offset="0.6628" stop-color="#6D4C41"/>
<stop offset="1" stop-color="#6D4C41" stop-opacity="0"/>
</radialGradient>
<linearGradient id="paint6_linear_155_1608" x1="60.5155" y1="83.4705" x2="60.5155" y2="104.399" gradientUnits="userSpaceOnUse">
<stop offset="0.0032" stop-color="#3B78E7"/>
<stop offset="0.2231" stop-color="#386EDA"/>
<stop offset="0.6286" stop-color="#3052B8"/>
<stop offset="1" stop-color="#283593"/>
</linearGradient>
<linearGradient id="paint7_linear_155_1608" x1="98.001" y1="99.295" x2="90.9595" y2="99.295" gradientUnits="userSpaceOnUse">
<stop offset="0.004" stop-color="#666666"/>
<stop offset="0.0985" stop-color="#606060"/>
<stop offset="0.6803" stop-color="#3F3F3F"/>
<stop offset="1" stop-color="#333333"/>
</linearGradient>
<linearGradient id="paint8_linear_155_1608" x1="22.9947" y1="99.295" x2="30.0362" y2="99.295" gradientUnits="userSpaceOnUse">
<stop offset="0.004" stop-color="#666666"/>
<stop offset="0.0985" stop-color="#606060"/>
<stop offset="0.6803" stop-color="#3F3F3F"/>
<stop offset="1" stop-color="#333333"/>
</linearGradient>
<radialGradient id="paint9_radial_155_1608" cx="0" cy="0" r="1" gradientUnits="userSpaceOnUse" gradientTransform="translate(72.2805 43.6655) rotate(72.0851) scale(24.6034 18.2551)">
<stop offset="0.6985" stop-color="#6D4C41" stop-opacity="0"/>
<stop offset="1" stop-color="#6D4C41"/>
</radialGradient>
<radialGradient id="paint10_radial_155_1608" cx="0" cy="0" r="1" gradientUnits="userSpaceOnUse" gradientTransform="translate(63.3258 28.4495) rotate(-157.19) scale(19.1813 10.78)">
<stop offset="0.6985" stop-color="#6D4C41" stop-opacity="0"/>
<stop offset="1" stop-color="#6D4C41"/>
</radialGradient>
<radialGradient id="paint11_radial_155_1608" cx="0" cy="0" r="1" gradientUnits="userSpaceOnUse" gradientTransform="translate(46.3617 32.9817) rotate(-164.942) scale(10.8291 10.134)">
<stop offset="0.6605" stop-color="#6D4C41" stop-opacity="0"/>
<stop offset="1" stop-color="#6D4C41"/>
</radialGradient>
<radialGradient id="paint12_radial_155_1608" cx="0" cy="0" r="1" gradientUnits="userSpaceOnUse" gradientTransform="translate(43.6962 43.7148) rotate(7.83355) scale(11.8184 16.6068)">
<stop offset="0.5981" stop-color="#6D4C41" stop-opacity="0"/>
<stop offset="1" stop-color="#6D4C41"/>
</radialGradient>
<linearGradient id="paint13_linear_155_1608" x1="60.555" y1="31.8423" x2="60.555" y2="46.7142" gradientUnits="userSpaceOnUse">
<stop offset="0.004" stop-color="#666666"/>
<stop offset="0.0985" stop-color="#606060"/>
<stop offset="0.6803" stop-color="#3F3F3F"/>
<stop offset="1" stop-color="#333333"/>
</linearGradient>
<linearGradient id="paint14_linear_155_1608" x1="60.5145" y1="17.5419" x2="60.5145" y2="38.9848" gradientUnits="userSpaceOnUse">
<stop offset="0.0032" stop-color="#3B78E7"/>
<stop offset="0.0115" stop-color="#3B77E6"/>
<stop offset="0.2985" stop-color="#335BC2"/>
<stop offset="0.5675" stop-color="#2D46A8"/>
<stop offset="0.8091" stop-color="#293998"/>
<stop offset="1" stop-color="#283593"/>
</linearGradient>
</defs>
</svg>
