<svg width="120" height="120" viewBox="0 0 120 120" fill="none" xmlns="http://www.w3.org/2000/svg">
<path d="M96.4628 24.9123C96.2473 24.6836 96.0448 24.4496 95.8214 24.2261C88.1238 16.526 77.7185 14.4438 72.5868 19.5755L16.8164 75.3459L31.4228 89.9523L96.4628 24.9123Z" fill="#99AAB5"/>
<path d="M40.0535 79.994C32.356 72.2939 21.9506 70.2117 16.8163 75.3461C11.682 80.4804 13.7641 90.8831 21.4643 98.5807C29.1644 106.283 39.5672 108.363 44.7015 103.231C49.8332 98.0969 47.7537 87.6942 40.0535 79.994Z" fill="#66757F"/>
<path d="M96.4659 24.9127C103.622 32.5314 105.454 42.4793 100.47 47.4612L44.702 103.232C49.8363 98.0972 47.7542 87.6971 40.054 79.9943L29.8301 69.7704L85.5978 14L96.4869 24.8891L96.4659 24.9127Z" fill="#CCD6DD"/>
<path d="M100.182 21.1954C107.338 28.8141 109.173 38.762 104.186 43.7438L48.4183 99.5116C53.5526 94.3799 51.4731 83.9772 43.7703 76.277L37.2637 69.7704L93.0314 14L100.203 21.1718L100.182 21.1954Z" fill="#E1E8ED"/>
<path d="M18.99 78.2245C15.3043 81.9076 16.787 89.7156 22.3577 95.9935C27.3948 101.667 35.3631 106.53 41.2493 101.575C43.2526 99.9106 44.3068 97.35 44.2647 94.3846C44.1911 89.1951 40.8523 83.3641 35.555 79.163C34.7032 78.4847 33.4834 78.6399 32.7841 79.4811C32.1085 80.3355 32.2504 81.5764 33.1048 82.252C37.4347 85.6828 40.2661 90.4701 40.3239 94.445C40.3423 95.6912 40.0742 97.4157 38.715 98.562C34.7348 101.909 28.4174 96.8768 25.31 93.3803C20.9039 88.4169 19.9128 82.8803 21.7794 81.0138C22.2631 80.5301 22.8625 80.4065 23.6065 80.6273C25.9121 81.3161 28.8644 84.9966 30.2682 91.682C30.4917 92.7494 31.538 93.4329 32.6053 93.2094C33.6701 92.9834 34.3536 91.9397 34.1275 90.8723C32.5791 83.485 28.98 78.1141 24.7343 76.8469C22.597 76.2081 20.5043 76.7128 18.99 78.2245ZM87.9262 23.7607C87.8736 23.8106 87.8263 23.8606 87.7816 23.9184C87.0954 24.7649 87.2321 26.0058 88.076 26.6893C88.1575 26.7524 96.2257 33.3642 96.6385 41.9793C96.6937 43.065 97.6191 43.9036 98.7022 43.8511C99.7932 43.7959 100.629 42.8731 100.579 41.7873C100.08 31.3767 90.9363 23.9263 90.5472 23.6161C89.7559 22.9799 88.6255 23.0588 87.9262 23.7607ZM82.3475 29.3367C82.2976 29.3866 82.2503 29.4366 82.203 29.4944C81.5194 30.3409 81.6561 31.5818 82.5 32.2679C82.5815 32.331 90.6497 38.9428 91.0625 47.5579C91.1177 48.6463 92.0405 49.4823 93.1262 49.4297C94.2146 49.3745 95.0506 48.4517 95.0033 47.366C94.5012 36.9554 85.3603 29.5049 84.9712 29.1947C84.1799 28.5559 83.0495 28.6348 82.3475 29.3367ZM60.0383 51.6459C59.991 51.6958 59.9411 51.7458 59.8964 51.801C59.2102 52.6475 59.3469 53.8884 60.1908 54.5745C60.2723 54.6376 68.3405 61.2494 68.7533 69.8644C68.8085 70.9502 69.7313 71.7915 70.817 71.7362C71.9054 71.681 72.7414 70.7583 72.6941 69.6725C72.1919 59.2645 63.0511 51.8115 62.662 51.5013C61.8707 50.8651 60.7429 50.9413 60.0383 51.6459ZM47.0277 64.6565C46.9778 64.7065 46.9278 64.759 46.8831 64.8142C46.1996 65.6608 46.3363 66.9016 47.1776 67.5878C47.2617 67.6509 55.3273 74.2627 55.74 82.8777C55.7926 83.9635 56.7206 84.8021 57.8064 84.7469C58.8948 84.6943 59.7308 83.7715 59.6808 82.6832C59.1787 72.2752 50.0405 64.8248 49.6488 64.5119C48.8601 63.8783 47.7296 63.952 47.0277 64.6565Z" fill="#99AAB5"/>
<path d="M78.3118 63.8609C81.7189 60.3171 87.4868 54.9672 88.1861 54.2364C89.7977 52.5486 84.1349 39.8508 79.5054 36.2176C78.4906 35.421 77.2471 36.0651 76.7134 36.6119C72.7832 40.6368 69.66 43.76 67.0468 46.36C66.4395 46.9673 66.0872 48.0715 66.9443 48.8628C69.7494 51.4497 74.7943 57.8643 76.2192 63.7505C76.3874 64.4366 77.6073 64.5996 78.3118 63.8609Z" fill="#5DADEC"/>
</svg>
