<svg width="120" height="120" viewBox="0 0 120 120" fill="none" xmlns="http://www.w3.org/2000/svg">
<path d="M16.1333 31.7842C14.4021 31.7842 13 33.1863 13 34.9175V38.0508C13 39.5234 14.0262 40.7532 15.397 41.0901C15.632 41.1449 15.8826 41.184 16.1333 41.184H19.2744C19.2744 41.4034 26.7081 79.4493 26.7081 79.4493C26.9901 80.8907 28.1573 81.9246 29.5124 81.9246H78.8461L86.836 41.184H90.3374V41.0901L91.3244 38.0508V31.7842H16.1333Z" fill="url(#paint0_linear_155_1992)"/>
<path d="M13 38.0508C13 39.5234 14.0262 40.7532 15.397 41.0901H90.3453L91.3322 38.0508H13Z" fill="#F57C00"/>
<path d="M25.9565 47.7951L31.5259 72.8692C31.6826 73.5899 32.3171 74.099 33.0534 74.099H36.5C37.3617 74.099 38.0667 73.394 38.0667 72.5324V47.4582C38.0667 46.5966 37.3617 45.8916 36.5 45.8916H27.484C26.4814 45.8916 25.7372 46.8159 25.9565 47.7951Z" fill="#F57C00"/>
<path d="M75.243 47.7951L69.6736 72.8692C69.5169 73.5899 68.8824 74.099 68.1461 74.099H64.6995C63.8378 74.099 63.1328 73.394 63.1328 72.5324V47.4582C63.1328 46.5966 63.8378 45.8916 64.6995 45.8916H73.7155C74.7103 45.8916 75.4623 46.8159 75.243 47.7951Z" fill="#F57C00"/>
<path d="M46.08 45.8916H55.1118C56.0439 45.8916 56.7724 46.7063 56.6706 47.6306L53.8898 72.6969C53.8036 73.488 53.1299 74.0912 52.331 74.0912H48.8687C48.0697 74.0912 47.396 73.488 47.3099 72.6969L44.5212 47.6227C44.4194 46.6984 45.1479 45.8916 46.08 45.8916Z" fill="#F57C00"/>
<path opacity="0.2" d="M88.9823 34.1341V37.6826L88.6063 38.8419H86.8438C85.7236 38.8419 84.7523 39.6409 84.5408 40.7376L76.9191 79.5825H29.5124C29.3244 79.5825 29.0816 79.3632 29.0111 79.0029C27.0215 68.8275 21.8437 42.312 21.593 40.8707C21.4364 39.7192 20.4572 38.8419 19.2666 38.8419H16.1333C16.1176 38.8419 16.0628 38.8419 15.9531 38.8106C15.6633 38.7401 15.35 38.4738 15.35 38.0508V34.9175C15.35 34.4866 15.7025 34.1341 16.1333 34.1341H88.9823ZM91.3322 31.7842H16.1333C14.4021 31.7842 13 33.1863 13 34.9175V38.0508C13 39.5234 14.0262 40.7532 15.397 41.0901C15.632 41.1449 15.8826 41.184 16.1333 41.184H19.2744C19.2744 41.4034 26.7081 79.4493 26.7081 79.4493C26.9901 80.8907 28.1573 81.9246 29.5124 81.9246H78.8461L86.8438 41.184H90.3453V41.0901L91.3322 38.0508V31.7842Z" fill="#424242"/>
<path opacity="0.2" d="M36.5 47.4592V72.5334H33.0534L27.484 47.4592H36.5ZM36.5 45.8926H27.484C26.4814 45.8926 25.7372 46.8247 25.9565 47.796L31.5259 72.8702C31.6826 73.5909 32.3171 74.1 33.0534 74.1H36.5C37.3617 74.1 38.0667 73.395 38.0667 72.5334V47.4592C38.0667 46.5897 37.3617 45.8926 36.5 45.8926Z" fill="#424242"/>
<path opacity="0.2" d="M73.7155 47.4592L68.1461 72.5334H64.6995V47.4592H73.7155ZM73.7155 45.8926H64.6995C63.8378 45.8926 63.1328 46.5976 63.1328 47.4592V72.5334C63.1328 73.395 63.8378 74.1 64.6995 74.1H68.1461C68.8824 74.1 69.5169 73.5909 69.6736 72.8702L75.243 47.796C75.4623 46.8169 74.7103 45.8926 73.7155 45.8926Z" fill="#424242"/>
<path opacity="0.2" d="M55.1118 47.4592L52.3231 72.5334H48.8608L46.0722 47.4592H55.1118ZM55.1118 45.8926H46.08C45.1479 45.8926 44.4194 46.7072 44.5212 47.6316L47.3099 72.7057C47.396 73.4969 48.0697 74.1 48.8687 74.1H52.331C53.1299 74.1 53.8036 73.4969 53.8898 72.7057L56.6784 47.6316C56.7724 46.6994 56.0517 45.8926 55.1118 45.8926Z" fill="#424242"/>
<path d="M94.8805 15.8125C93.0319 16.4313 91.5984 17.9118 91.0423 19.7761L72.6655 81.0319C72.4383 81.7996 72.5088 82.6221 72.8613 83.3349L75.7283 89.0688C76.2531 90.1106 75.4933 91.3405 74.3262 91.3405H19.2664C17.4335 91.3405 15.9686 92.9149 16.1488 94.7793C16.3055 96.4086 17.7624 97.607 19.3996 97.607H81.8147C82.5745 97.607 83.3422 97.3799 83.9297 96.8942C85.089 95.9229 85.371 94.3406 84.7365 93.0716L80.3107 84.2279C79.4804 82.5751 79.3159 80.6638 79.8486 78.8935L96.7605 22.5021C96.878 22.0948 97.16 21.7736 97.5282 21.5778L94.9275 15.8047L94.8805 15.8125Z" fill="url(#paint1_linear_155_1992)"/>
<path d="M106.568 14.528C105.824 13.2276 104.218 12.695 102.8 13.1728L94.9355 15.7969L97.5362 21.57C97.6145 21.5309 97.685 21.4839 97.7712 21.4604L104.852 19.0947C106.701 18.4759 107.594 16.3139 106.568 14.528Z" fill="#F57C00"/>
<path opacity="0.2" d="M103.842 14.5671C104.421 14.5671 104.946 14.8491 105.205 15.3035C105.542 15.8909 105.424 16.4079 105.322 16.6743C105.15 17.1129 104.797 17.4576 104.351 17.6064L97.2697 19.9721C97.066 20.0426 96.9172 20.1209 96.7918 20.1914C96.0398 20.5909 95.4994 21.2489 95.2565 22.0479L78.3524 78.4314C77.7023 80.5934 77.9059 82.8963 78.9086 84.9173L83.3344 93.761C83.6634 94.4112 83.491 95.2023 82.9192 95.6802C82.6529 95.9073 82.2534 96.0327 81.8147 96.0327H19.3996C18.5223 96.0327 17.7781 95.4138 17.7076 94.6227C17.6606 94.1684 17.8094 93.7375 18.1071 93.4085C18.4048 93.0795 18.8199 92.8994 19.2664 92.8994H74.3262C75.4228 92.8994 76.4176 92.3432 76.9895 91.4111C77.5613 90.4789 77.6161 89.3431 77.1304 88.3639L74.2635 82.63C74.0833 82.2697 74.052 81.8624 74.1617 81.4785L92.5384 20.2227C92.9536 18.8441 94.011 17.7553 95.374 17.3009L95.421 17.2853L103.286 14.6611C103.474 14.5985 103.654 14.5671 103.842 14.5671ZM103.842 13.0005C103.489 13.0005 103.137 13.0553 102.792 13.1728L94.9275 15.7969L94.8805 15.8126C93.0319 16.4314 91.5984 17.9119 91.0423 19.7762L72.6655 81.032C72.4383 81.7997 72.5088 82.6222 72.8613 83.335L75.7283 89.0689C76.2531 90.1107 75.4933 91.3406 74.3262 91.3406H19.2664C17.4335 91.3406 15.9686 92.915 16.1488 94.7793C16.3055 96.4087 17.7624 97.6071 19.3996 97.6071H81.8147C82.5745 97.6071 83.3422 97.38 83.9297 96.8943C85.089 95.923 85.371 94.3407 84.7365 93.0717L80.3107 84.228C79.4804 82.5752 79.3159 80.6639 79.8486 78.8936L96.7605 22.5022C96.878 22.0949 97.16 21.7737 97.5282 21.5779C97.6065 21.5387 97.677 21.4917 97.7632 21.4682L104.844 19.1026C106.685 18.4837 107.578 16.3218 106.56 14.5358C106.004 13.541 104.946 13.0005 103.842 13.0005Z" fill="#424242"/>
<path d="M31.7998 106.999C35.2607 106.999 38.0664 104.193 38.0664 100.732C38.0664 97.2715 35.2607 94.4658 31.7998 94.4658C28.3388 94.4658 25.5332 97.2715 25.5332 100.732C25.5332 104.193 28.3388 106.999 31.7998 106.999Z" fill="#37474F"/>
<path d="M72.5332 106.999C75.9941 106.999 78.7998 104.193 78.7998 100.732C78.7998 97.2715 75.9941 94.4658 72.5332 94.4658C69.0722 94.4658 66.2666 97.2715 66.2666 100.732C66.2666 104.193 69.0722 106.999 72.5332 106.999Z" fill="#37474F"/>
<path d="M33.3669 103.866H30.2336C29.372 103.866 28.667 103.161 28.667 102.299V94.4658H34.9336V102.299C34.9336 103.161 34.2286 103.866 33.3669 103.866Z" fill="#B0BEC5"/>
<path d="M31.8 100.732C32.6653 100.732 33.3667 100.031 33.3667 99.1658C33.3667 98.3005 32.6653 97.5991 31.8 97.5991C30.9348 97.5991 30.2334 98.3005 30.2334 99.1658C30.2334 100.031 30.9348 100.732 31.8 100.732Z" fill="#FAFAFA" stroke="#757575" stroke-width="1.84904" stroke-miterlimit="10"/>
<path d="M74.0993 103.866H70.9661C70.1044 103.866 69.3994 103.161 69.3994 102.299V94.4658H75.666V102.299C75.666 103.161 74.961 103.866 74.0993 103.866Z" fill="#B0BEC5"/>
<path d="M72.5325 100.732C73.3977 100.732 74.0991 100.031 74.0991 99.1658C74.0991 98.3005 73.3977 97.5991 72.5325 97.5991C71.6672 97.5991 70.9658 98.3005 70.9658 99.1658C70.9658 100.031 71.6672 100.732 72.5325 100.732Z" fill="#FAFAFA" stroke="#757575" stroke-width="1.84904" stroke-miterlimit="10"/>
<defs>
<linearGradient id="paint0_linear_155_1992" x1="52.1653" y1="30.516" x2="52.1653" y2="86.2971" gradientUnits="userSpaceOnUse">
<stop stop-color="#FFA726"/>
<stop offset="1" stop-color="#FB8C00"/>
</linearGradient>
<linearGradient id="paint1_linear_155_1992" x1="56.833" y1="0.930962" x2="56.833" y2="110.955" gradientUnits="userSpaceOnUse">
<stop stop-color="#90A4AE"/>
<stop offset="1" stop-color="#607D8B"/>
</linearGradient>
</defs>
</svg>
