<svg width="120" height="120" viewBox="0 0 120 120" fill="none" xmlns="http://www.w3.org/2000/svg">
<path d="M18.1494 82.1416H36.914V107.684H18.1494V82.1416Z" fill="#F5E48F"/>
<path d="M47.3398 65.4609H66.626V105.401C66.626 105.699 66.5672 105.994 66.4531 106.27C66.3389 106.546 66.1715 106.796 65.9606 107.007C65.7496 107.218 65.4992 107.385 65.2235 107.5C64.9479 107.614 64.6525 107.672 64.3541 107.672H49.6117C49.3134 107.672 49.0179 107.614 48.7423 107.5C48.4667 107.385 48.2162 107.218 48.0053 107.007C47.7943 106.796 47.627 106.546 47.5128 106.27C47.3986 105.994 47.3398 105.699 47.3398 105.401V65.4609Z" fill="#F5E48F"/>
<path d="M76.5312 43.5693H95.2347C95.5295 43.5693 95.8121 43.6864 96.0205 43.8948C96.2289 44.1032 96.346 44.3859 96.346 44.6806V105.412C96.346 106.015 96.1067 106.593 95.6806 107.019C95.2545 107.445 94.6767 107.684 94.0741 107.684H78.8031C78.2006 107.684 77.6227 107.445 77.1967 107.019C76.7706 106.593 76.5312 106.015 76.5312 105.412V43.5693Z" fill="#F5E48F"/>
<g opacity="0.6">
<path d="M36.913 102.621V107.162H18.1484V81.6221H22.6922V102.621H36.913Z" fill="#DEC378"/>
<path d="M66.6283 104.888C66.6283 105.49 66.389 106.068 65.9629 106.494C65.5369 106.92 64.959 107.16 64.3565 107.16H49.6117C49.0092 107.16 48.4313 106.92 48.0053 106.494C47.5792 106.068 47.3398 105.49 47.3398 104.888V64.9482H51.8812V100.349C51.8812 100.951 52.1206 101.529 52.5466 101.955C52.9727 102.381 53.5505 102.621 54.1531 102.621H64.3541C64.9563 102.62 65.534 102.859 65.9604 103.284C66.3869 103.709 66.6271 104.286 66.6283 104.888Z" fill="#DEC378"/>
<path d="M96.3382 104.888C96.3382 105.491 96.0988 106.068 95.6728 106.495C95.2467 106.921 94.6689 107.16 94.0663 107.16H78.7953C78.1928 107.16 77.6149 106.921 77.1889 106.495C76.7628 106.068 76.5234 105.491 76.5234 104.888V43.0498H81.0648V100.351C81.0648 100.65 81.1236 100.945 81.2377 101.221C81.3519 101.496 81.5193 101.747 81.7302 101.958C81.9412 102.169 82.1916 102.336 82.4673 102.45C82.7429 102.565 83.0383 102.623 83.3367 102.623H94.0593C94.3576 102.622 94.6532 102.68 94.9292 102.794C95.2052 102.907 95.4562 103.073 95.6678 103.284C95.8794 103.494 96.0475 103.744 96.1626 104.019C96.2776 104.295 96.3373 104.59 96.3382 104.888Z" fill="#DEC378"/>
</g>
<path d="M33.8146 109.091H21.7693C20.5048 109.09 19.2924 108.587 18.3983 107.693C17.5041 106.799 17.0012 105.587 17 104.322V85.5012C17.0012 84.2367 17.5041 83.0243 18.3983 82.1302C19.2924 81.2361 20.5048 80.7332 21.7693 80.7319H33.8146C35.0791 80.7332 36.2914 81.2361 37.1856 82.1302C38.0797 83.0243 38.5826 84.2367 38.5838 85.5012V104.322C38.5826 105.587 38.0797 106.799 37.1856 107.693C36.2914 108.587 35.0791 109.09 33.8146 109.091ZM21.7693 83.5512C21.2523 83.5518 20.7567 83.7575 20.3911 84.123C20.0255 84.4886 19.8199 84.9842 19.8193 85.5012V104.322C19.8199 104.839 20.0255 105.335 20.3911 105.7C20.7567 106.066 21.2523 106.272 21.7693 106.272H33.8146C34.3316 106.272 34.8272 106.066 35.1928 105.7C35.5583 105.335 35.764 104.839 35.7646 104.322V85.5012C35.764 84.9842 35.5583 84.4886 35.1928 84.123C34.8272 83.7575 34.3316 83.5518 33.8146 83.5512H21.7693Z" fill="#893C21"/>
<path d="M64.6157 109.091H49.8709C48.8949 109.09 47.9593 108.702 47.2691 108.012C46.579 107.322 46.1907 106.386 46.1895 105.41V64.0605H68.2949V105.41C68.2936 106.385 67.9057 107.321 67.216 108.011C66.5264 108.701 65.5913 109.089 64.6157 109.091ZM49.0111 66.8704V105.4C49.0111 105.629 49.1019 105.848 49.2636 106.01C49.4253 106.172 49.6446 106.263 49.8733 106.263H64.6181C64.8467 106.263 65.0661 106.172 65.2278 106.01C65.3895 105.848 65.4803 105.629 65.4803 105.4V66.8704H49.0111Z" fill="#893C21"/>
<path d="M94.3256 109.091H79.0545C78.0785 109.09 77.1428 108.702 76.4527 108.012C75.7626 107.322 75.3743 106.386 75.373 105.41V42.1597H95.4768C96.1454 42.1603 96.7865 42.426 97.2595 42.8986C97.7325 43.3711 97.9988 44.012 98 44.6806V105.412C97.9982 106.387 97.6106 107.321 96.922 108.01C96.2335 108.7 95.3 109.088 94.3256 109.091ZM78.1994 44.9789V105.412C78.1994 105.641 78.2902 105.86 78.4519 106.022C78.6136 106.184 78.8329 106.275 79.0616 106.275H94.3326C94.5613 106.275 94.7806 106.184 94.9423 106.022C95.104 105.86 95.1948 105.641 95.1948 105.412V44.9789H78.1994Z" fill="#893C21"/>
<path d="M92.6483 52.3579C92.7161 49.7689 92.3684 47.6596 91.8716 47.6465C91.3748 47.6335 90.9171 49.7218 90.8493 52.3108C90.7815 54.8997 91.1293 57.0091 91.6261 57.0221C92.1229 57.0351 92.5805 54.9469 92.6483 52.3579Z" fill="white"/>
<path d="M92.3809 61.5352C92.4148 60.2408 92.0396 59.1808 91.5428 59.1678C91.046 59.1548 90.6158 60.1936 90.5819 61.4881C90.548 62.7826 90.9232 63.8426 91.42 63.8556C91.9168 63.8686 92.347 62.8297 92.3809 61.5352Z" fill="white"/>
<path d="M82.8693 48.4104C86.1133 34.783 77.6959 21.1061 64.0685 17.8621C50.4411 14.6181 36.7642 23.0355 33.5202 36.6629C30.2763 50.2902 38.6936 63.9672 52.321 67.2112C65.9484 70.4551 79.6253 62.0377 82.8693 48.4104Z" fill="#F5E48F"/>
<path opacity="0.6" d="M82.2493 48.2682C80.882 53.9719 77.5809 59.0257 72.9077 62.57C68.2344 66.1143 62.4776 67.9302 56.6165 67.7086C50.7554 67.4871 45.1521 65.2419 40.7597 61.3549C36.3673 57.4679 33.4572 52.1793 32.5244 46.3887C34.3681 45.8606 36.3037 45.7342 38.2004 46.0179C40.0972 46.3016 41.911 46.9888 43.5196 48.0332C45.9018 49.6073 47.7297 51.9191 50.1378 53.4509C55.3558 56.7636 62.8903 55.4879 66.9688 50.8431C71.0474 46.1984 71.4327 38.8142 68.1435 33.5845C66.459 30.9132 63.9827 28.8293 61.3608 27.0673C56.4178 23.7699 50.872 21.4817 45.042 20.3339C49.339 17.8959 54.2544 16.7654 59.1848 17.0812C64.1152 17.397 68.8462 19.1453 72.7972 22.1115C76.7481 25.0778 79.7472 29.133 81.4262 33.7794C83.1053 38.4259 83.3913 43.4615 82.2493 48.2682Z" fill="#DEC378"/>
<path opacity="0.5" d="M62.8461 20.3103C69.152 21.8142 74.6431 25.6748 78.1924 31.0997C81.7418 36.5245 83.08 43.1022 81.9325 49.4827C82.0656 49.0363 82.187 48.5836 82.2967 48.1247C83.5975 41.6774 82.344 34.9769 78.8003 29.4359C75.2567 23.8949 69.6998 19.9464 63.3015 18.423C56.9031 16.8996 50.1631 17.9202 44.5027 21.2698C38.8423 24.6193 34.7037 30.036 32.9595 36.3778C32.8498 36.8367 32.7543 37.2956 32.6729 37.7545C34.5231 31.5435 38.6799 26.2759 44.2905 23.0322C49.9011 19.7885 56.5402 18.8146 62.8461 20.3103Z" fill="#E1D2D5"/>
<path d="M65.7546 44.173C65.2479 43.6179 64.6415 43.1628 63.9668 42.8315C63.9668 42.8315 65.0945 42.4932 65.6372 42.0139C66.1388 41.5175 66.5163 40.9098 66.739 40.2402C66.8823 39.7867 67.4227 37.8673 66.1775 36.3919C65.2143 35.2501 63.9574 34.5899 62.1836 34.0425L63.1233 30.1331L60.6988 29.5692L59.7778 33.434L57.9523 32.997L58.8733 29.1322L56.4699 28.5566L55.5489 32.4214L50.8055 31.2913L50.204 33.7958L51.5972 34.127C51.9778 34.2187 52.6427 34.4207 52.8541 34.8107C53.0656 35.2007 53.075 35.3816 52.927 36.0066L50.5517 45.9821C50.5298 46.1151 50.4812 46.2423 50.4089 46.3562C50.3367 46.47 50.2422 46.5681 50.1312 46.6446C49.8822 46.7879 49.6613 46.7856 49.1914 46.6681L47.7489 46.3251L46.5742 49.1021L51.3012 50.2321L50.3849 54.0851L52.7954 54.6584L53.7117 50.8054L55.5489 51.2424L54.6326 55.0954L57.0431 55.6686L57.9829 51.7522C58.6148 51.8649 59.2069 51.9542 59.5569 51.9871C60.2618 52.0599 61.864 52.2502 63.5509 51.583C65.2378 50.9158 65.9496 49.4051 66.3702 47.824C66.7907 46.2429 66.4289 44.9789 65.7546 44.173ZM57.2968 35.7152C57.2968 35.7152 58.0792 35.8304 58.831 36.0207C59.6543 36.2 60.4435 36.5101 61.1686 36.9393C62.0872 37.4796 62.496 38.363 62.3104 39.2464C62.251 39.628 62.0791 39.9832 61.8167 40.2665C61.5543 40.5499 61.2133 40.7485 60.8374 40.8369C59.9714 41.0361 59.0721 41.0417 58.2037 40.8534C57.318 40.6771 56.1973 40.3835 56.1973 40.3835L57.2968 35.7152ZM59.9493 48.5241C59.3244 48.698 58.1567 48.705 57.0666 48.5241C55.9765 48.3432 54.3859 47.9344 54.3859 47.9344L55.617 42.7658C55.617 42.7658 57.1676 43.0524 58.3423 43.4142C59.243 43.6758 60.0901 44.095 60.8444 44.6523C61.1831 44.8977 61.44 45.2394 61.5816 45.6329C61.7233 46.0264 61.7431 46.4535 61.6385 46.8584C61.3589 48.0331 60.5813 48.3573 59.9563 48.5312L59.9493 48.5241Z" fill="#893C21"/>
<path d="M51.1022 68.5431C45.986 67.3253 41.3458 64.6177 37.7684 60.7627C34.191 56.9077 31.8371 52.0784 31.0044 46.8856C30.1717 41.6928 30.8975 36.3697 33.0901 31.5894C35.2828 26.8091 38.8437 22.7864 43.3226 20.0299C47.8015 17.2735 52.9972 15.9071 58.2527 16.1035C63.5081 16.3 68.5873 18.0505 72.8479 21.1336C77.1085 24.2168 80.3592 28.4942 82.1888 33.4248C84.0184 38.3554 84.3448 43.7179 83.1267 48.834C81.4861 55.6899 77.1931 61.6152 71.1895 65.31C65.1859 69.0049 57.9619 70.1676 51.1022 68.5431ZM62.8491 19.2059C58.2046 18.0996 53.3363 18.3956 48.8599 20.0564C44.3836 21.7172 40.5004 24.6682 37.7014 28.5362C34.9024 32.4042 33.3134 37.0154 33.1354 41.7865C32.9573 46.5577 34.1983 51.2745 36.7012 55.3403C39.2041 59.4062 42.8566 62.6384 47.1967 64.6282C51.5368 66.618 56.3696 67.2759 61.0836 66.5189C65.7977 65.7618 70.1814 63.6237 73.6802 60.375C77.179 57.1263 79.6358 52.9129 80.7397 48.2678C82.2159 42.0404 81.1612 35.4818 77.8071 30.0311C74.453 24.5804 69.0735 20.683 62.8491 19.1941V19.2059Z" fill="#893C21"/>
<path d="M44.1367 22.4058L44.5241 21.0504L52.7466 23.4004L52.3593 24.7558L44.1367 22.4058Z" fill="#893C21"/>
<path d="M54.4341 27.0107C53.9926 27.0107 53.5611 26.8798 53.1941 26.6346C52.827 26.3893 52.541 26.0407 52.372 25.6329C52.2031 25.2251 52.1589 24.7763 52.245 24.3434C52.3312 23.9104 52.5437 23.5127 52.8559 23.2006C53.168 22.8885 53.5657 22.6759 53.9986 22.5898C54.4316 22.5036 54.8804 22.5478 55.2882 22.7168C55.696 22.8857 56.0446 23.1718 56.2898 23.5388C56.5351 23.9058 56.666 24.3374 56.666 24.7788C56.6654 25.3705 56.43 25.9379 56.0116 26.3563C55.5932 26.7747 55.0258 27.0101 54.4341 27.0107ZM54.4341 23.7216C54.225 23.7216 54.0206 23.7836 53.8467 23.8997C53.6728 24.0159 53.5373 24.181 53.4573 24.3742C53.3773 24.5674 53.3564 24.78 53.3972 24.9851C53.438 25.1901 53.5386 25.3785 53.6865 25.5264C53.8344 25.6742 54.0227 25.7749 54.2278 25.8157C54.4329 25.8565 54.6455 25.8356 54.8387 25.7555C55.0318 25.6755 55.197 25.54 55.3131 25.3662C55.4293 25.1923 55.4913 24.9879 55.4913 24.7788C55.4913 24.4984 55.3799 24.2295 55.1816 24.0312C54.9834 23.833 54.7145 23.7216 54.4341 23.7216Z" fill="#893C21"/>
<path d="M34.0342 34.6235L34.4215 33.2682L42.6441 35.6182L42.2567 36.9736L34.0342 34.6235Z" fill="#893C21"/>
<path d="M44.3315 39.2275C43.8901 39.2275 43.4586 39.0966 43.0915 38.8514C42.7245 38.6061 42.4384 38.2575 42.2695 37.8497C42.1006 37.4419 42.0564 36.9931 42.1425 36.5602C42.2286 36.1272 42.4412 35.7295 42.7533 35.4174C43.0655 35.1052 43.4632 34.8927 43.8961 34.8066C44.3291 34.7204 44.7778 34.7646 45.1856 34.9336C45.5935 35.1025 45.9421 35.3886 46.1873 35.7556C46.4326 36.1226 46.5635 36.5542 46.5635 36.9956C46.5628 37.5873 46.3275 38.1547 45.9091 38.5731C45.4906 38.9915 44.9233 39.2269 44.3315 39.2275ZM44.3315 35.9384C44.1224 35.9384 43.918 36.0004 43.7442 36.1165C43.5703 36.2327 43.4348 36.3978 43.3548 36.591C43.2748 36.7842 43.2538 36.9968 43.2946 37.2018C43.3354 37.4069 43.4361 37.5953 43.584 37.7432C43.7318 37.891 43.9202 37.9917 44.1253 38.0325C44.3304 38.0733 44.5429 38.0524 44.7361 37.9723C44.9293 37.8923 45.0944 37.7568 45.2106 37.583C45.3268 37.4091 45.3888 37.2047 45.3888 36.9956C45.3888 36.7152 45.2774 36.4463 45.0791 36.248C44.8808 36.0498 44.6119 35.9384 44.3315 35.9384Z" fill="#893C21"/>
<path d="M36.9727 29.334L37.3527 27.9765L40.2893 28.7987L39.9093 30.1561L36.9727 29.334Z" fill="#893C21"/>
<path d="M41.9819 32.414C41.5405 32.414 41.109 32.2831 40.7419 32.0379C40.3749 31.7926 40.0888 31.4441 39.9199 31.0362C39.751 30.6284 39.7068 30.1796 39.7929 29.7467C39.879 29.3137 40.0916 28.9161 40.4037 28.6039C40.7159 28.2918 41.1135 28.0792 41.5465 27.9931C41.9794 27.907 42.4282 27.9512 42.836 28.1201C43.2439 28.289 43.5924 28.5751 43.8377 28.9421C44.0829 29.3092 44.2138 29.7407 44.2138 30.1821C44.2132 30.7739 43.9779 31.3412 43.5594 31.7596C43.141 32.1781 42.5737 32.4134 41.9819 32.414ZM41.9819 29.1249C41.7728 29.1249 41.5684 29.1869 41.3946 29.3031C41.2207 29.4192 41.0852 29.5844 41.0052 29.7775C40.9252 29.9707 40.9042 30.1833 40.945 30.3884C40.9858 30.5935 41.0865 30.7818 41.2343 30.9297C41.3822 31.0775 41.5706 31.1782 41.7757 31.219C41.9807 31.2598 42.1933 31.2389 42.3865 31.1589C42.5797 31.0788 42.7448 30.9433 42.861 30.7695C42.9771 30.5956 43.0391 30.3912 43.0391 30.1821C43.0391 29.9017 42.9278 29.6328 42.7295 29.4345C42.5312 29.2363 42.2623 29.1249 41.9819 29.1249Z" fill="#893C21"/>
</svg>
