<svg width="120" height="120" viewBox="0 0 120 120" fill="none" xmlns="http://www.w3.org/2000/svg">
<path d="M35.6134 99.8573H29.102C27.5048 99.8573 26.2148 98.5673 26.2148 96.9701V84.3466C26.2148 82.7494 27.5048 81.4287 29.102 81.4287H35.5827C37.2106 81.4287 38.5006 82.7494 38.5006 84.3466V96.9701C38.5006 98.5673 37.2106 99.8573 35.6134 99.8573Z" fill="url(#paint0_linear_155_1810)"/>
<path d="M35.6134 99.8573H29.102C27.5048 99.8573 26.2148 98.5673 26.2148 96.9701V84.3466C26.2148 82.7494 27.5048 81.4287 29.102 81.4287H35.5827C37.2106 81.4287 38.5006 82.7494 38.5006 84.3466V96.9701C38.5006 98.5673 37.2106 99.8573 35.6134 99.8573Z" fill="url(#paint1_linear_155_1810)"/>
<path d="M35.6134 99.8573H29.102C27.5048 99.8573 26.2148 98.5673 26.2148 96.9701V84.3466C26.2148 82.7494 27.5048 81.4287 29.102 81.4287H35.5827C37.2106 81.4287 38.5006 82.7494 38.5006 84.3466V96.9701C38.5006 98.5673 37.2106 99.8573 35.6134 99.8573Z" fill="url(#paint2_linear_155_1810)"/>
<path d="M83.3127 20H36.6884C30.8834 20 26.2148 24.515 26.2148 30.105V73.922H93.7863V30.105C93.7863 24.515 89.1177 20 83.3127 20Z" fill="url(#paint3_linear_155_1810)"/>
<path d="M83.3127 20H36.6884C30.8834 20 26.2148 24.515 26.2148 30.105V73.922H93.7863V30.105C93.7863 24.515 89.1177 20 83.3127 20Z" fill="url(#paint4_linear_155_1810)"/>
<path d="M83.3127 20H36.6884C30.8834 20 26.2148 24.515 26.2148 30.105V73.922H93.7863V30.105C93.7863 24.515 89.1177 20 83.3127 20Z" fill="url(#paint5_radial_155_1810)"/>
<path d="M83.3127 20H36.6884C30.8834 20 26.2148 24.515 26.2148 30.105V73.922H93.7863V30.105C93.7863 24.515 89.1177 20 83.3127 20Z" fill="url(#paint6_linear_155_1810)"/>
<path d="M90.8986 99.8564H84.4179C82.79 99.8564 81.5 98.5664 81.5 96.9692V84.3456C81.5 82.7485 82.79 81.4585 84.3871 81.4585H90.8679C92.465 81.4585 93.755 82.7485 93.755 84.3456V96.9692C93.7857 98.5664 92.4957 99.8564 90.8986 99.8564Z" fill="url(#paint7_linear_155_1810)"/>
<path d="M90.8986 99.8564H84.4179C82.79 99.8564 81.5 98.5664 81.5 96.9692V84.3456C81.5 82.7485 82.79 81.4585 84.3871 81.4585H90.8679C92.465 81.4585 93.755 82.7485 93.755 84.3456V96.9692C93.7857 98.5664 92.4957 99.8564 90.8986 99.8564Z" fill="url(#paint8_linear_155_1810)"/>
<path d="M90.8986 99.8564H84.4179C82.79 99.8564 81.5 98.5664 81.5 96.9692V84.3456C81.5 82.7485 82.79 81.4585 84.3871 81.4585H90.8679C92.465 81.4585 93.755 82.7485 93.755 84.3456V96.9692C93.7857 98.5664 92.4957 99.8564 90.8986 99.8564Z" fill="url(#paint9_linear_155_1810)"/>
<path d="M26.2148 69.1426V86.2811C26.2148 88.7076 28.1806 90.6426 30.5763 90.6426H89.4248C91.8206 90.6426 93.7863 88.7076 93.7863 86.2811V69.1426H26.2148Z" fill="url(#paint10_linear_155_1810)"/>
<path d="M26.2148 69.1426V86.2811C26.2148 88.7076 28.1806 90.6426 30.5763 90.6426H89.4248C91.8206 90.6426 93.7863 88.7076 93.7863 86.2811V69.1426H26.2148Z" fill="url(#paint11_linear_155_1810)"/>
<path d="M26.2148 69.1426V86.2811C26.2148 88.7076 28.1806 90.6426 30.5763 90.6426H89.4248C91.8206 90.6426 93.7863 88.7076 93.7863 86.2811V69.1426H26.2148Z" fill="url(#paint12_linear_155_1810)"/>
<path d="M93.7852 56.8572H99.928V50.7144H93.7852V56.8572Z" fill="url(#paint13_linear_155_1810)"/>
<path d="M93.7852 56.8572H99.928V50.7144H93.7852V56.8572Z" fill="url(#paint14_linear_155_1810)"/>
<path d="M93.7852 56.8572H99.928V50.7144H93.7852V56.8572Z" fill="url(#paint15_linear_155_1810)"/>
<path d="M93.7852 56.8572H99.928V50.7144H93.7852V56.8572Z" fill="url(#paint16_linear_155_1810)"/>
<path d="M93.7852 56.8572H99.928V50.7144H93.7852V56.8572Z" fill="url(#paint17_linear_155_1810)"/>
<path d="M26.2141 50.7144H20.0713V56.8572H26.2141V50.7144Z" fill="url(#paint18_linear_155_1810)"/>
<path d="M26.2141 50.7144H20.0713V56.8572H26.2141V50.7144Z" fill="url(#paint19_linear_155_1810)"/>
<path d="M26.2141 50.7144H20.0713V56.8572H26.2141V50.7144Z" fill="url(#paint20_linear_155_1810)"/>
<path d="M26.2141 50.7144H20.0713V56.8572H26.2141V50.7144Z" fill="url(#paint21_linear_155_1810)"/>
<path d="M26.2141 50.7144H20.0713V56.8572H26.2141V50.7144Z" fill="url(#paint22_linear_155_1810)"/>
<path d="M19.3957 59.9284H20.7471C22.0679 59.9284 23.1429 58.8534 23.1429 57.5327V46.967C23.1429 45.6463 22.0679 44.5713 20.7471 44.5713H19.3957C18.075 44.5713 17 45.6463 17 46.967V57.5327C17 58.8534 18.075 59.9284 19.3957 59.9284Z" fill="url(#paint23_linear_155_1810)"/>
<path d="M19.3957 59.9284H20.7471C22.0679 59.9284 23.1429 58.8534 23.1429 57.5327V46.967C23.1429 45.6463 22.0679 44.5713 20.7471 44.5713H19.3957C18.075 44.5713 17 45.6463 17 46.967V57.5327C17 58.8534 18.075 59.9284 19.3957 59.9284Z" fill="url(#paint24_linear_155_1810)"/>
<path d="M99.2531 59.9284H100.605C101.925 59.9284 103 58.8534 103 57.5327V46.967C103 45.6463 101.925 44.5713 100.605 44.5713H99.2531C97.9324 44.5713 96.8574 45.6463 96.8574 46.967V57.5327C96.8574 58.8534 97.9324 59.9284 99.2531 59.9284Z" fill="url(#paint25_linear_155_1810)"/>
<path d="M99.2531 59.9284H100.605C101.925 59.9284 103 58.8534 103 57.5327V46.967C103 45.6463 101.925 44.5713 100.605 44.5713H99.2531C97.9324 44.5713 96.8574 45.6463 96.8574 46.967V57.5327C96.8574 58.8534 97.9324 59.9284 99.2531 59.9284Z" fill="url(#paint26_linear_155_1810)"/>
<path d="M84.6024 66.0716H35.3981C33.7088 66.0716 32.3574 64.6894 32.3574 63.0309V38.4287H87.6431V63.0309C87.6431 64.6894 86.2917 66.0716 84.6024 66.0716Z" stroke="url(#paint27_linear_155_1810)" stroke-width="1.08138"/>
<path d="M84.6024 66.0716H35.3981C33.7088 66.0716 32.3574 64.6894 32.3574 63.0309V38.4287H87.6431V63.0309C87.6431 64.6894 86.2917 66.0716 84.6024 66.0716Z" fill="url(#paint28_linear_155_1810)"/>
<path d="M84.6024 66.0716H35.3981C33.7088 66.0716 32.3574 64.6894 32.3574 63.0309V38.4287H87.6431V63.0309C87.6431 64.6894 86.2917 66.0716 84.6024 66.0716Z" fill="url(#paint29_linear_155_1810)"/>
<path d="M84.6024 66.0716H35.3981C33.7088 66.0716 32.3574 64.6894 32.3574 63.0309V38.4287H87.6431V63.0309C87.6431 64.6894 86.2917 66.0716 84.6024 66.0716Z" fill="url(#paint30_linear_155_1810)"/>
<path d="M84.6024 66.0716H35.3981C33.7088 66.0716 32.3574 64.6894 32.3574 63.0309V38.4287H87.6431V63.0309C87.6431 64.6894 86.2917 66.0716 84.6024 66.0716Z" fill="url(#paint31_linear_155_1810)"/>
<path d="M84.6024 66.0716H35.3981C33.7088 66.0716 32.3574 64.6894 32.3574 63.0309V38.4287H87.6431V63.0309C87.6431 64.6894 86.2917 66.0716 84.6024 66.0716Z" fill="url(#paint32_radial_155_1810)"/>
<path d="M70.7506 81.4289H49.2506C48.3906 81.4289 47.7148 80.7531 47.7148 79.8931C47.7148 79.0331 48.3906 78.3574 49.2506 78.3574H70.7506C71.6106 78.3574 72.2863 79.0331 72.2863 79.8931C72.2863 80.7531 71.6106 81.4289 70.7506 81.4289Z" stroke="url(#paint33_linear_155_1810)" stroke-width="1.08138"/>
<path d="M70.7506 81.4289H49.2506C48.3906 81.4289 47.7148 80.7531 47.7148 79.8931C47.7148 79.0331 48.3906 78.3574 49.2506 78.3574H70.7506C71.6106 78.3574 72.2863 79.0331 72.2863 79.8931C72.2863 80.7531 71.6106 81.4289 70.7506 81.4289Z" fill="#656466"/>
<path d="M76.8927 75.2858H43.107C42.247 75.2858 41.5713 74.6101 41.5713 73.7501C41.5713 72.9208 42.247 72.2144 43.107 72.2144H76.8927C77.7527 72.2144 78.4284 72.8901 78.4284 73.7501C78.4284 74.6101 77.7527 75.2858 76.8927 75.2858Z" stroke="url(#paint34_linear_155_1810)" stroke-width="1.08138"/>
<path d="M76.8927 75.2858H43.107C42.247 75.2858 41.5713 74.6101 41.5713 73.7501C41.5713 72.9208 42.247 72.2144 43.107 72.2144H76.8927C77.7527 72.2144 78.4284 72.8901 78.4284 73.7501C78.4284 74.6101 77.7527 75.2858 76.8927 75.2858Z" fill="#656466"/>
<path d="M35.4284 75.2858C35.4284 73.5965 34.1196 72.2144 32.52 72.2144H26.7031V84.5001H32.52C34.1196 84.5001 35.4284 83.1179 35.4284 81.4286V75.2858Z" stroke="url(#paint35_linear_155_1810)" stroke-width="0.811037"/>
<path d="M35.4284 75.2858C35.4284 73.5965 34.1196 72.2144 32.52 72.2144H26.7031V84.5001H32.52C34.1196 84.5001 35.4284 83.1179 35.4284 81.4286V75.2858Z" stroke="url(#paint36_linear_155_1810)" stroke-width="0.811037"/>
<path d="M35.4291 75.2858C35.4291 73.5965 34.047 72.2144 32.3577 72.2144H26.2148V84.5001H32.3577C34.047 84.5001 35.4291 83.1179 35.4291 81.4286V75.2858Z" fill="url(#paint37_linear_155_1810)"/>
<path d="M84.5713 81.4286C84.5713 83.1179 85.9071 84.5001 87.5398 84.5001H93.4772V72.2144H87.5398C85.9071 72.2144 84.5713 73.5965 84.5713 75.2858V81.4286Z" stroke="url(#paint38_linear_155_1810)" stroke-width="0.811037"/>
<path d="M84.5713 81.4286C84.5713 83.1179 85.9071 84.5001 87.5398 84.5001H93.4772V72.2144H87.5398C85.9071 72.2144 84.5713 73.5965 84.5713 75.2858V81.4286Z" stroke="url(#paint39_linear_155_1810)" stroke-width="0.811037"/>
<path d="M84.5713 81.4286C84.5713 83.1179 85.9534 84.5001 87.6427 84.5001H93.7856V72.2144H87.6427C85.9534 72.2144 84.5713 73.5965 84.5713 75.2858V81.4286Z" fill="url(#paint40_linear_155_1810)"/>
<path d="M84.5713 81.4286C84.5713 83.1179 85.9534 84.5001 87.6427 84.5001H93.7856V72.2144H87.6427C85.9534 72.2144 84.5713 73.5965 84.5713 75.2858V81.4286Z" fill="url(#paint41_linear_155_1810)"/>
<path d="M84.5713 81.4286C84.5713 83.1179 85.9534 84.5001 87.6427 84.5001H93.7856V72.2144H87.6427C85.9534 72.2144 84.5713 73.5965 84.5713 75.2858V81.4286Z" fill="url(#paint42_linear_155_1810)"/>
<path d="M84.5713 81.4286C84.5713 83.1179 85.9534 84.5001 87.6427 84.5001H93.7856V72.2144H87.6427C85.9534 72.2144 84.5713 73.5965 84.5713 75.2858V81.4286Z" fill="url(#paint43_linear_155_1810)"/>
<path d="M87.6431 38.4286H32.3574V32.2551C32.3574 30.5658 33.7088 29.2144 35.3981 29.2144H84.6331C86.2917 29.2144 87.6431 30.5658 87.6431 32.2551V38.4286Z" fill="url(#paint44_linear_155_1810)"/>
<path d="M34.8457 63.4243H84.1587" stroke="url(#paint45_linear_155_1810)" stroke-width="1.35173" stroke-linecap="round"/>
<defs>
<linearGradient id="paint0_linear_155_1810" x1="35.0543" y1="93.0224" x2="35.0543" y2="99.8573" gradientUnits="userSpaceOnUse">
<stop stop-color="#260E3B"/>
<stop offset="1" stop-color="#401361"/>
</linearGradient>
<linearGradient id="paint1_linear_155_1810" x1="26.2148" y1="93.6813" x2="28.4602" y2="93.6813" gradientUnits="userSpaceOnUse">
<stop stop-color="#453E52"/>
<stop offset="1" stop-color="#453E52" stop-opacity="0"/>
</linearGradient>
<linearGradient id="paint2_linear_155_1810" x1="32.7987" y1="100.769" x2="32.7987" y2="98.6576" gradientUnits="userSpaceOnUse">
<stop stop-color="#602C86"/>
<stop offset="1" stop-color="#602C86" stop-opacity="0"/>
</linearGradient>
<linearGradient id="paint3_linear_155_1810" x1="49.3172" y1="70.9433" x2="49.3172" y2="22.7164" gradientUnits="userSpaceOnUse">
<stop stop-color="#B3AABC"/>
<stop offset="1" stop-color="#D8D4DD"/>
</linearGradient>
<linearGradient id="paint4_linear_155_1810" x1="93.7863" y1="59.3932" x2="91.1568" y2="59.3932" gradientUnits="userSpaceOnUse">
<stop stop-color="#B8B6BB"/>
<stop offset="1" stop-color="#BAB7BD" stop-opacity="0"/>
</linearGradient>
<radialGradient id="paint5_radial_155_1810" cx="0" cy="0" r="1" gradientUnits="userSpaceOnUse" gradientTransform="translate(54.0094 73.922) rotate(-90) scale(18.9143 38.9138)">
<stop stop-color="#C7BED2"/>
<stop offset="1" stop-color="#C7BED2" stop-opacity="0"/>
</radialGradient>
<linearGradient id="paint6_linear_155_1810" x1="60.0006" y1="18.8454" x2="60.0006" y2="22.7761" gradientUnits="userSpaceOnUse">
<stop offset="0.3" stop-color="#FAFAFA"/>
<stop offset="1" stop-color="#FAFAFA" stop-opacity="0"/>
</linearGradient>
<linearGradient id="paint7_linear_155_1810" x1="90.3178" y1="93.0329" x2="90.3178" y2="99.8564" gradientUnits="userSpaceOnUse">
<stop stop-color="#260E3B"/>
<stop offset="1" stop-color="#401361"/>
</linearGradient>
<linearGradient id="paint8_linear_155_1810" x1="81.5" y1="93.6905" x2="83.7397" y2="93.6905" gradientUnits="userSpaceOnUse">
<stop stop-color="#453E52"/>
<stop offset="1" stop-color="#453E52" stop-opacity="0"/>
</linearGradient>
<linearGradient id="paint9_linear_155_1810" x1="88.0676" y1="100.767" x2="88.0676" y2="98.6585" gradientUnits="userSpaceOnUse">
<stop stop-color="#602C86"/>
<stop offset="1" stop-color="#602C86" stop-opacity="0"/>
</linearGradient>
<linearGradient id="paint10_linear_155_1810" x1="60.0006" y1="82.5177" x2="60.0006" y2="90.6426" gradientUnits="userSpaceOnUse">
<stop stop-color="#F6C34A"/>
<stop offset="1" stop-color="#D99D43"/>
</linearGradient>
<linearGradient id="paint11_linear_155_1810" x1="104.323" y1="90.6426" x2="89.0501" y2="90.6426" gradientUnits="userSpaceOnUse">
<stop stop-color="#98732C"/>
<stop offset="1" stop-color="#98732C" stop-opacity="0"/>
</linearGradient>
<linearGradient id="paint12_linear_155_1810" x1="26.2148" y1="90.6426" x2="31.4619" y2="90.6426" gradientUnits="userSpaceOnUse">
<stop stop-color="#C6A860"/>
<stop offset="1" stop-color="#C6A860" stop-opacity="0"/>
</linearGradient>
<linearGradient id="paint13_linear_155_1810" x1="93.7852" y1="53.7947" x2="96.8566" y2="53.7947" gradientUnits="userSpaceOnUse">
<stop stop-color="#302A3A"/>
<stop offset="1" stop-color="#32293E"/>
</linearGradient>
<linearGradient id="paint14_linear_155_1810" x1="95.4738" y1="56.8572" x2="95.4738" y2="56.2813" gradientUnits="userSpaceOnUse">
<stop stop-color="#1E0E2D"/>
<stop offset="1" stop-color="#1E0E2D" stop-opacity="0"/>
</linearGradient>
<linearGradient id="paint15_linear_155_1810" x1="93.6503" y1="54.3856" x2="94.2023" y2="54.3856" gradientUnits="userSpaceOnUse">
<stop stop-color="#271E33"/>
<stop offset="1" stop-color="#271E33" stop-opacity="0"/>
</linearGradient>
<linearGradient id="paint16_linear_155_1810" x1="96.8566" y1="54.3856" x2="96.0737" y2="54.3856" gradientUnits="userSpaceOnUse">
<stop stop-color="#271E33"/>
<stop offset="1" stop-color="#271E33" stop-opacity="0"/>
</linearGradient>
<linearGradient id="paint17_linear_155_1810" x1="96.4336" y1="50.8102" x2="96.4336" y2="51.3142" gradientUnits="userSpaceOnUse">
<stop stop-color="#4C4656"/>
<stop offset="1" stop-color="#4C4656" stop-opacity="0"/>
</linearGradient>
<linearGradient id="paint18_linear_155_1810" x1="20.0713" y1="53.7947" x2="23.1427" y2="53.7947" gradientUnits="userSpaceOnUse">
<stop stop-color="#302A3A"/>
<stop offset="1" stop-color="#32293E"/>
</linearGradient>
<linearGradient id="paint19_linear_155_1810" x1="21.7601" y1="56.8572" x2="21.7601" y2="56.2813" gradientUnits="userSpaceOnUse">
<stop stop-color="#1E0E2D"/>
<stop offset="1" stop-color="#1E0E2D" stop-opacity="0"/>
</linearGradient>
<linearGradient id="paint20_linear_155_1810" x1="19.9364" y1="54.3856" x2="20.4883" y2="54.3856" gradientUnits="userSpaceOnUse">
<stop stop-color="#271E33"/>
<stop offset="1" stop-color="#271E33" stop-opacity="0"/>
</linearGradient>
<linearGradient id="paint21_linear_155_1810" x1="23.1427" y1="54.3856" x2="22.36" y2="54.3856" gradientUnits="userSpaceOnUse">
<stop stop-color="#271E33"/>
<stop offset="1" stop-color="#271E33" stop-opacity="0"/>
</linearGradient>
<linearGradient id="paint22_linear_155_1810" x1="22.7199" y1="50.8102" x2="22.7199" y2="51.3142" gradientUnits="userSpaceOnUse">
<stop stop-color="#4C4656"/>
<stop offset="1" stop-color="#4C4656" stop-opacity="0"/>
</linearGradient>
<linearGradient id="paint23_linear_155_1810" x1="21.6162" y1="59.9284" x2="21.6162" y2="45.915" gradientUnits="userSpaceOnUse">
<stop stop-color="#2B2533"/>
<stop offset="1" stop-color="#342943"/>
</linearGradient>
<linearGradient id="paint24_linear_155_1810" x1="20.0714" y1="44.5713" x2="20.0714" y2="46.7308" gradientUnits="userSpaceOnUse">
<stop offset="0.222205" stop-color="#4C4457"/>
<stop offset="1" stop-color="#4C4457" stop-opacity="0"/>
</linearGradient>
<linearGradient id="paint25_linear_155_1810" x1="101.474" y1="59.9284" x2="101.474" y2="45.915" gradientUnits="userSpaceOnUse">
<stop stop-color="#2B2533"/>
<stop offset="1" stop-color="#342943"/>
</linearGradient>
<linearGradient id="paint26_linear_155_1810" x1="99.9289" y1="44.5713" x2="99.9289" y2="46.7308" gradientUnits="userSpaceOnUse">
<stop offset="0.222205" stop-color="#4C4457"/>
<stop offset="1" stop-color="#4C4457" stop-opacity="0"/>
</linearGradient>
<linearGradient id="paint27_linear_155_1810" x1="61.2811" y1="67.7194" x2="61.2811" y2="39.0835" gradientUnits="userSpaceOnUse">
<stop stop-color="#DFDDE3"/>
<stop offset="1" stop-color="#DFDDE3" stop-opacity="0"/>
</linearGradient>
<linearGradient id="paint28_linear_155_1810" x1="32.3574" y1="52.2434" x2="87.6431" y2="52.2501" gradientUnits="userSpaceOnUse">
<stop stop-color="#2A99F1"/>
<stop offset="1" stop-color="#41B0E5"/>
</linearGradient>
<linearGradient id="paint29_linear_155_1810" x1="30.7348" y1="55.8013" x2="33.8062" y2="55.8013" gradientUnits="userSpaceOnUse">
<stop stop-color="#0787E1"/>
<stop offset="1" stop-color="#0787E1" stop-opacity="0"/>
</linearGradient>
<linearGradient id="paint30_linear_155_1810" x1="60.0003" y1="37.4933" x2="60.0003" y2="44.5786" gradientUnits="userSpaceOnUse">
<stop offset="0.159107" stop-color="#144E97"/>
<stop offset="1" stop-color="#144E97" stop-opacity="0"/>
</linearGradient>
<linearGradient id="paint31_linear_155_1810" x1="60.0003" y1="38.4287" x2="60.0003" y2="39.1124" gradientUnits="userSpaceOnUse">
<stop stop-color="#1F53A9"/>
<stop offset="1" stop-color="#1E53AA" stop-opacity="0"/>
</linearGradient>
<radialGradient id="paint32_radial_155_1810" cx="0" cy="0" r="1" gradientUnits="userSpaceOnUse" gradientTransform="translate(69.7997 72.9823) rotate(-90) scale(15.5491 21.692)">
<stop stop-color="#3ACAFC"/>
<stop offset="1" stop-color="#3ACAFC" stop-opacity="0"/>
</radialGradient>
<linearGradient id="paint33_linear_155_1810" x1="60.5697" y1="80.7568" x2="60.5697" y2="78.4302" gradientUnits="userSpaceOnUse">
<stop stop-color="#FFDE69"/>
<stop offset="1" stop-color="#CA9049"/>
</linearGradient>
<linearGradient id="paint34_linear_155_1810" x1="60.8537" y1="74.6138" x2="60.8537" y2="72.2871" gradientUnits="userSpaceOnUse">
<stop stop-color="#FFDE69"/>
<stop offset="1" stop-color="#CA9049"/>
</linearGradient>
<linearGradient id="paint35_linear_155_1810" x1="34.4297" y1="84.9319" x2="31.5022" y2="81.2367" gradientUnits="userSpaceOnUse">
<stop stop-color="#FFDE69"/>
<stop offset="1" stop-color="#FFDE69" stop-opacity="0"/>
</linearGradient>
<linearGradient id="paint36_linear_155_1810" x1="30.3927" y1="78.3572" x2="34.7103" y2="71.8992" gradientUnits="userSpaceOnUse">
<stop stop-color="#CA9049" stop-opacity="0"/>
<stop offset="1" stop-color="#CA9049"/>
</linearGradient>
<linearGradient id="paint37_linear_155_1810" x1="30.822" y1="72.2144" x2="30.822" y2="84.5001" gradientUnits="userSpaceOnUse">
<stop stop-color="#BEB0BF"/>
<stop offset="1" stop-color="#F3F0E9"/>
</linearGradient>
<linearGradient id="paint38_linear_155_1810" x1="85.9243" y1="84.7879" x2="90.7172" y2="80.2766" gradientUnits="userSpaceOnUse">
<stop stop-color="#F4C86E"/>
<stop offset="1" stop-color="#F4C86E" stop-opacity="0"/>
</linearGradient>
<linearGradient id="paint39_linear_155_1810" x1="87.0484" y1="77.8252" x2="93.663" y2="71.3525" gradientUnits="userSpaceOnUse">
<stop stop-color="#8E5D32" stop-opacity="0"/>
<stop offset="1" stop-color="#8E5D32"/>
</linearGradient>
<linearGradient id="paint40_linear_155_1810" x1="89.1784" y1="72.2144" x2="89.1784" y2="84.5001" gradientUnits="userSpaceOnUse">
<stop stop-color="#B1A2B4"/>
<stop offset="1" stop-color="#EBE7E2"/>
</linearGradient>
<linearGradient id="paint41_linear_155_1810" x1="95.1106" y1="79.4632" x2="92.1596" y2="79.4632" gradientUnits="userSpaceOnUse">
<stop stop-color="#CCC0CD"/>
<stop offset="1" stop-color="#CCC0CD" stop-opacity="0"/>
</linearGradient>
<linearGradient id="paint42_linear_155_1810" x1="87.6553" y1="85.8312" x2="87.8107" y2="81.7155" gradientUnits="userSpaceOnUse">
<stop stop-color="#EDE8E2"/>
<stop offset="1" stop-color="#EDE8E2" stop-opacity="0"/>
</linearGradient>
<linearGradient id="paint43_linear_155_1810" x1="83.2288" y1="72.2144" x2="89.9073" y2="78.3572" gradientUnits="userSpaceOnUse">
<stop offset="0.0899224" stop-color="#B3A1B8"/>
<stop offset="1" stop-color="#B3A1B8" stop-opacity="0"/>
</linearGradient>
<linearGradient id="paint44_linear_155_1810" x1="32.3574" y1="33.8304" x2="84.5843" y2="33.8304" gradientUnits="userSpaceOnUse">
<stop stop-color="#2B2731"/>
<stop offset="1" stop-color="#362A46"/>
</linearGradient>
<linearGradient id="paint45_linear_155_1810" x1="nan" y1="nan" x2="nan" y2="nan" gradientUnits="userSpaceOnUse">
<stop stop-color="#4AB8FF"/>
<stop offset="1" stop-color="#50CEFC"/>
</linearGradient>
</defs>
</svg>
